<?xml version="1.0" encoding="UTF-8" standalone="no"?>
<!DOCTYPE svg PUBLIC "-//W3C//DTD SVG 1.1//EN"
 "http://www.w3.org/Graphics/SVG/1.1/DTD/svg11.dtd">
<!-- Generated by graphviz version 14.1.5 (20260411.2331)
 -->
<!-- Title: G Pages: 1 -->
<svg width="853pt" height="369pt"
 viewBox="0.00 0.00 853.00 369.00" xmlns="http://www.w3.org/2000/svg" xmlns:xlink="http://www.w3.org/1999/xlink">
<g id="graph0" class="graph" transform="scale(1 1) rotate(0) translate(25.2 343.4)">
<title>G</title>
<polygon fill="#f8fafc" stroke="none" points="-25.2,25.2 -25.2,-343.4 828.03,-343.4 828.03,25.2 -25.2,25.2"/>
<!-- topology -->
<g id="node1" class="node">
<title>topology</title>
<path fill="#ffffff" stroke="none" d="M363.01,-302.4C363.01,-302.4 12,-302.4 12,-302.4 6,-302.4 0,-296.4 0,-290.4 0,-290.4 0,-26.8 0,-26.8 0,-20.8 6,-14.8 12,-14.8 12,-14.8 363.01,-14.8 363.01,-14.8 369.01,-14.8 375.01,-20.8 375.01,-26.8 375.01,-26.8 375.01,-290.4 375.01,-290.4 375.01,-296.4 369.01,-302.4 363.01,-302.4"/>
<polygon fill="#ffffff" stroke="none" points="7,-253.8 7,-295.4 368.01,-295.4 368.01,-253.8 7,-253.8"/>
<polygon fill="none" stroke="#cbd5e1" points="7,-253.8 7,-295.4 368.01,-295.4 368.01,-253.8 7,-253.8"/>
<text xml:space="preserve" text-anchor="start" x="75.2" y="-271.7" font-family="Microsoft YaHei" font-weight="bold" font-size="13.00">Graphviz DOT: 4x4 topology, source G5</text>
<polygon fill="#eff6ff" stroke="none" points="7,-195.8 7,-247.8 64.05,-247.8 64.05,-195.8 7,-195.8"/>
<polygon fill="none" stroke="#cbd5e1" points="7,-195.8 7,-247.8 64.05,-247.8 64.05,-195.8 7,-195.8"/>
<text xml:space="preserve" text-anchor="start" x="27.58" y="-216.6" font-family="Microsoft YaHei" font-size="13.00">G0</text>
<polygon fill="#dbeafe" stroke="none" points="70.05,-195.8 70.05,-247.8 136.49,-247.8 136.49,-195.8 70.05,-195.8"/>
<polygon fill="none" stroke="#cbd5e1" points="70.05,-195.8 70.05,-247.8 136.49,-247.8 136.49,-195.8 70.05,-195.8"/>
<text xml:space="preserve" text-anchor="start" x="94.96" y="-224.1" font-family="Microsoft YaHei" font-weight="bold" font-size="13.00">G1</text>
<text xml:space="preserve" text-anchor="start" x="94.96" y="-211.1" font-family="Microsoft YaHei" font-size="13.00">UP</text>
<polygon fill="#eff6ff" stroke="none" points="142.49,-195.8 142.49,-247.8 252.25,-247.8 252.25,-195.8 142.49,-195.8"/>
<polygon fill="none" stroke="#cbd5e1" points="142.49,-195.8 142.49,-247.8 252.25,-247.8 252.25,-195.8 142.49,-195.8"/>
<text xml:space="preserve" text-anchor="start" x="189.43" y="-216.6" font-family="Microsoft YaHei" font-size="13.00">G2</text>
<polygon fill="#eff6ff" stroke="none" points="258.25,-195.8 258.25,-247.8 368.01,-247.8 368.01,-195.8 258.25,-195.8"/>
<polygon fill="none" stroke="#cbd5e1" points="258.25,-195.8 258.25,-247.8 368.01,-247.8 368.01,-195.8 258.25,-195.8"/>
<text xml:space="preserve" text-anchor="start" x="305.19" y="-216.6" font-family="Microsoft YaHei" font-size="13.00">G3</text>
<polygon fill="#dcfce7" stroke="none" points="7,-137.8 7,-189.8 64.05,-189.8 64.05,-137.8 7,-137.8"/>
<polygon fill="none" stroke="#cbd5e1" points="7,-137.8 7,-189.8 64.05,-189.8 64.05,-137.8 7,-137.8"/>
<text xml:space="preserve" text-anchor="start" x="27.22" y="-166.1" font-family="Microsoft YaHei" font-weight="bold" font-size="13.00">G4</text>
<text xml:space="preserve" text-anchor="start" x="20" y="-153.1" font-family="Microsoft YaHei" font-size="13.00">LEFT</text>
<polygon fill="#1d4ed8" stroke="none" points="70.05,-137.8 70.05,-189.8 136.49,-189.8 136.49,-137.8 70.05,-137.8"/>
<polygon fill="none" stroke="#cbd5e1" points="70.05,-137.8 70.05,-189.8 136.49,-189.8 136.49,-137.8 70.05,-137.8"/>
<text xml:space="preserve" text-anchor="start" x="94.96" y="-166.1" font-family="Microsoft YaHei" font-weight="bold" font-size="13.00" fill="white">G5</text>
<text xml:space="preserve" text-anchor="start" x="86.31" y="-153.1" font-family="Microsoft YaHei" font-size="13.00" fill="white">source</text>
<polygon fill="#fef3c7" stroke="none" points="142.49,-137.8 142.49,-189.8 252.25,-189.8 252.25,-137.8 142.49,-137.8"/>
<polygon fill="none" stroke="#cbd5e1" points="142.49,-137.8 142.49,-189.8 252.25,-189.8 252.25,-137.8 142.49,-137.8"/>
<text xml:space="preserve" text-anchor="start" x="189.06" y="-166.1" font-family="Microsoft YaHei" font-weight="bold" font-size="13.00">G6</text>
<text xml:space="preserve" text-anchor="start" x="177.51" y="-153.1" font-family="Microsoft YaHei" font-size="13.00">RIGHT</text>
<polygon fill="#fef3c7" stroke="none" points="258.25,-137.8 258.25,-189.8 368.01,-189.8 368.01,-137.8 258.25,-137.8"/>
<polygon fill="none" stroke="#cbd5e1" points="258.25,-137.8 258.25,-189.8 368.01,-189.8 368.01,-137.8 258.25,-137.8"/>
<text xml:space="preserve" text-anchor="start" x="304.83" y="-166.1" font-family="Microsoft YaHei" font-weight="bold" font-size="13.00">G7</text>
<text xml:space="preserve" text-anchor="start" x="293.27" y="-153.1" font-family="Microsoft YaHei" font-size="13.00">RIGHT</text>
<polygon fill="#eff6ff" stroke="none" points="7,-79.8 7,-131.8 64.05,-131.8 64.05,-79.8 7,-79.8"/>
<polygon fill="none" stroke="#cbd5e1" points="7,-79.8 7,-131.8 64.05,-131.8 64.05,-79.8 7,-79.8"/>
<text xml:space="preserve" text-anchor="start" x="27.58" y="-100.6" font-family="Microsoft YaHei" font-size="13.00">G8</text>
<polygon fill="#fce7f3" stroke="none" points="70.05,-79.8 70.05,-131.8 136.49,-131.8 136.49,-79.8 70.05,-79.8"/>
<polygon fill="none" stroke="#cbd5e1" points="70.05,-79.8 70.05,-131.8 136.49,-131.8 136.49,-79.8 70.05,-79.8"/>
<text xml:space="preserve" text-anchor="start" x="94.96" y="-108.1" font-family="Microsoft YaHei" font-weight="bold" font-size="13.00">G9</text>
<text xml:space="preserve" text-anchor="start" x="83.05" y="-95.1" font-family="Microsoft YaHei" font-size="13.00">DOWN</text>
<polygon fill="#fef3c7" stroke="none" points="142.49,-79.8 142.49,-131.8 252.25,-131.8 252.25,-79.8 142.49,-79.8"/>
<polygon fill="none" stroke="#cbd5e1" points="142.49,-79.8 142.49,-131.8 252.25,-131.8 252.25,-79.8 142.49,-79.8"/>
<text xml:space="preserve" text-anchor="start" x="185.81" y="-108.1" font-family="Microsoft YaHei" font-weight="bold" font-size="13.00">G10</text>
<text xml:space="preserve" text-anchor="start" x="155.49" y="-95.1" font-family="Microsoft YaHei" font-size="13.00">RIGHT/DOWN</text>
<polygon fill="#fef3c7" stroke="none" points="258.25,-79.8 258.25,-131.8 368.01,-131.8 368.01,-79.8 258.25,-79.8"/>
<polygon fill="none" stroke="#cbd5e1" points="258.25,-79.8 258.25,-131.8 368.01,-131.8 368.01,-79.8 258.25,-79.8"/>
<text xml:space="preserve" text-anchor="start" x="301.58" y="-108.1" font-family="Microsoft YaHei" font-weight="bold" font-size="13.00">G11</text>
<text xml:space="preserve" text-anchor="start" x="271.25" y="-95.1" font-family="Microsoft YaHei" font-size="13.00">RIGHT/DOWN</text>
<polygon fill="#eff6ff" stroke="none" points="7,-21.8 7,-73.8 64.05,-73.8 64.05,-21.8 7,-21.8"/>
<polygon fill="none" stroke="#cbd5e1" points="7,-21.8 7,-73.8 64.05,-73.8 64.05,-21.8 7,-21.8"/>
<text xml:space="preserve" text-anchor="start" x="24.33" y="-42.6" font-family="Microsoft YaHei" font-size="13.00">G12</text>
<polygon fill="#fce7f3" stroke="none" points="70.05,-21.8 70.05,-73.8 136.49,-73.8 136.49,-21.8 70.05,-21.8"/>
<polygon fill="none" stroke="#cbd5e1" points="70.05,-21.8 70.05,-73.8 136.49,-73.8 136.49,-21.8 70.05,-21.8"/>
<text xml:space="preserve" text-anchor="start" x="91.71" y="-50.1" font-family="Microsoft YaHei" font-weight="bold" font-size="13.00">G13</text>
<text xml:space="preserve" text-anchor="start" x="83.05" y="-37.1" font-family="Microsoft YaHei" font-size="13.00">DOWN</text>
<polygon fill="#eff6ff" stroke="none" points="142.49,-21.8 142.49,-73.8 252.25,-73.8 252.25,-21.8 142.49,-21.8"/>
<polygon fill="none" stroke="#cbd5e1" points="142.49,-21.8 142.49,-73.8 252.25,-73.8 252.25,-21.8 142.49,-21.8"/>
<text xml:space="preserve" text-anchor="start" x="186.18" y="-42.6" font-family="Microsoft YaHei" font-size="13.00">G14</text>
<polygon fill="#eff6ff" stroke="none" points="258.25,-21.8 258.25,-73.8 368.01,-73.8 368.01,-21.8 258.25,-21.8"/>
<polygon fill="none" stroke="#cbd5e1" points="258.25,-21.8 258.25,-73.8 368.01,-73.8 368.01,-21.8 258.25,-21.8"/>
<text xml:space="preserve" text-anchor="start" x="301.94" y="-42.6" font-family="Microsoft YaHei" font-size="13.00">G15</text>
<polygon fill="none" stroke="#cbd5e1" points="0,-14.8 0,-302.4 375.01,-302.4 375.01,-14.8 0,-14.8"/>
</g>
<!-- up -->
<g id="node2" class="node">
<title>up</title>
<path fill="#dbeafe" stroke="#60a5fa" d="M557.07,-318.2C557.07,-318.2 513.07,-318.2 513.07,-318.2 507.07,-318.2 501.07,-312.2 501.07,-306.2 501.07,-306.2 501.07,-291 501.07,-291 501.07,-285 507.07,-279 513.07,-279 513.07,-279 557.07,-279 557.07,-279 563.07,-279 569.07,-285 569.07,-291 569.07,-291 569.07,-306.2 569.07,-306.2 569.07,-312.2 563.07,-318.2 557.07,-318.2"/>
<text xml:space="preserve" text-anchor="middle" x="535.07" y="-302.5" font-family="Microsoft YaHei" font-size="13.00">UP</text>
<text xml:space="preserve" text-anchor="middle" x="535.07" y="-286.9" font-family="Microsoft YaHei" font-size="13.00">11000000</text>
</g>
<!-- topology&#45;&gt;up -->
<g id="edge1" class="edge">
<title>topology&#45;&gt;up</title>
<path fill="none" stroke="#64748b" d="M374.94,-234.13C419.04,-252 461.95,-269.38 492.08,-281.59"/>
<polygon fill="#64748b" stroke="#64748b" points="490.74,-284.07 499.21,-284.48 492.85,-278.88 490.74,-284.07"/>
<text xml:space="preserve" text-anchor="middle" x="438.04" y="-271.66" font-family="Microsoft YaHei" font-size="11.00">target above</text>
</g>
<!-- right_mask -->
<g id="node3" class="node">
<title>right_mask</title>
<path fill="#fef3c7" stroke="#f59e0b" d="M557.07,-225.2C557.07,-225.2 513.07,-225.2 513.07,-225.2 507.07,-225.2 501.07,-219.2 501.07,-213.2 501.07,-213.2 501.07,-198 501.07,-198 501.07,-192 507.07,-186 513.07,-186 513.07,-186 557.07,-186 557.07,-186 563.07,-186 569.07,-192 569.07,-198 569.07,-198 569.07,-213.2 569.07,-213.2 569.07,-219.2 563.07,-225.2 557.07,-225.2"/>
<text xml:space="preserve" text-anchor="middle" x="535.07" y="-209.5" font-family="Microsoft YaHei" font-size="13.00">RIGHT</text>
<text xml:space="preserve" text-anchor="middle" x="535.07" y="-193.9" font-family="Microsoft YaHei" font-size="13.00">00110000</text>
</g>
<!-- topology&#45;&gt;right_mask -->
<g id="edge2" class="edge">
<title>topology&#45;&gt;right_mask</title>
<path fill="none" stroke="#64748b" d="M374.94,-183.96C418.67,-189.9 461.21,-195.69 491.3,-199.78"/>
<polygon fill="#64748b" stroke="#64748b" points="490.81,-202.54 499.11,-200.85 491.56,-196.99 490.81,-202.54"/>
<text xml:space="preserve" text-anchor="middle" x="438.04" y="-198.75" font-family="Microsoft YaHei" font-size="11.00">G5 &#45;&gt; G10</text>
</g>
<!-- down -->
<g id="node4" class="node">
<title>down</title>
<path fill="#fce7f3" stroke="#f472b6" d="M557.07,-132.2C557.07,-132.2 513.07,-132.2 513.07,-132.2 507.07,-132.2 501.07,-126.2 501.07,-120.2 501.07,-120.2 501.07,-105 501.07,-105 501.07,-99 507.07,-93 513.07,-93 513.07,-93 557.07,-93 557.07,-93 563.07,-93 569.07,-99 569.07,-105 569.07,-105 569.07,-120.2 569.07,-120.2 569.07,-126.2 563.07,-132.2 557.07,-132.2"/>
<text xml:space="preserve" text-anchor="middle" x="535.07" y="-116.5" font-family="Microsoft YaHei" font-size="13.00">DOWN</text>
<text xml:space="preserve" text-anchor="middle" x="535.07" y="-100.9" font-family="Microsoft YaHei" font-size="13.00">00001100</text>
</g>
<!-- topology&#45;&gt;down -->
<g id="edge3" class="edge">
<title>topology&#45;&gt;down</title>
<path fill="none" stroke="#64748b" d="M374.93,-124.08C387.12,-122.34 399.23,-120.76 411.01,-119.4 437.64,-116.33 467.66,-114.64 491.39,-113.71"/>
<polygon fill="#64748b" stroke="#64748b" points="491.41,-116.51 499.3,-113.42 491.2,-110.91 491.41,-116.51"/>
<text xml:space="preserve" text-anchor="middle" x="438.04" y="-122.7" font-family="Microsoft YaHei" font-size="11.00">G5 &#45;&gt; G13</text>
</g>
<!-- left_mask -->
<g id="node5" class="node">
<title>left_mask</title>
<path fill="#dcfce7" stroke="#22c55e" d="M557.07,-39.2C557.07,-39.2 513.07,-39.2 513.07,-39.2 507.07,-39.2 501.07,-33.2 501.07,-27.2 501.07,-27.2 501.07,-12 501.07,-12 501.07,-6 507.07,0 513.07,0 513.07,0 557.07,0 557.07,0 563.07,0 569.07,-6 569.07,-12 569.07,-12 569.07,-27.2 569.07,-27.2 569.07,-33.2 563.07,-39.2 557.07,-39.2"/>
<text xml:space="preserve" text-anchor="middle" x="535.07" y="-23.5" font-family="Microsoft YaHei" font-size="13.00">LEFT</text>
<text xml:space="preserve" text-anchor="middle" x="535.07" y="-7.9" font-family="Microsoft YaHei" font-size="13.00">00000011</text>
</g>
<!-- topology&#45;&gt;left_mask -->
<g id="edge4" class="edge">
<title>topology&#45;&gt;left_mask</title>
<path fill="none" stroke="#64748b" d="M374.94,-83.61C419.04,-65.87 461.95,-48.61 492.08,-36.49"/>
<polygon fill="#64748b" stroke="#64748b" points="492.83,-39.21 499.21,-33.62 490.74,-34.01 492.83,-39.21"/>
<text xml:space="preserve" text-anchor="middle" x="438.04" y="-71.83" font-family="Microsoft YaHei" font-size="11.00">G5 &#45;&gt; G0</text>
</g>
<!-- note -->
<g id="node6" class="node">
<title>note</title>
<polygon fill="#ffffff" stroke="#94a3b8" points="796.83,-178.2 642.07,-178.2 642.07,-139 802.83,-139 802.83,-172.2 796.83,-178.2"/>
<polyline fill="none" stroke="#94a3b8" points="796.83,-178.2 796.83,-172.2"/>
<polyline fill="none" stroke="#94a3b8" points="802.83,-172.2 796.83,-172.2"/>
<text xml:space="preserve" text-anchor="middle" x="722.45" y="-162.5" font-family="Microsoft YaHei" font-size="13.00">portmap entry only encodes</text>
<text xml:space="preserve" text-anchor="middle" x="722.45" y="-146.9" font-family="Microsoft YaHei" font-size="13.00">first&#45;hop C2C exit</text>
</g>
<!-- up&#45;&gt;note -->
<g id="edge5" class="edge">
<title>up&#45;&gt;note</title>
<path fill="none" stroke="#64748b" d="M562.63,-278.54C595.53,-253.69 651.63,-211.33 687.59,-184.17"/>
<polygon fill="#64748b" stroke="#64748b" points="689.04,-186.59 693.73,-179.53 685.66,-182.12 689.04,-186.59"/>
</g>
<!-- right_mask&#45;&gt;note -->
<g id="edge6" class="edge">
<title>right_mask&#45;&gt;note</title>
<path fill="none" stroke="#64748b" d="M569.21,-197.2C587.23,-192.63 610.46,-186.74 633.32,-180.94"/>
<polygon fill="#64748b" stroke="#64748b" points="633.85,-183.7 640.92,-179.02 632.48,-178.27 633.85,-183.7"/>
</g>
<!-- down&#45;&gt;note -->
<g id="edge7" class="edge">
<title>down&#45;&gt;note</title>
<path fill="none" stroke="#64748b" d="M569.21,-120.82C587.05,-125.25 609.99,-130.94 632.62,-136.56"/>
<polygon fill="#64748b" stroke="#64748b" points="631.69,-139.21 640.13,-138.42 633.04,-133.78 631.69,-139.21"/>
</g>
<!-- left_mask&#45;&gt;note -->
<g id="edge8" class="edge">
<title>left_mask&#45;&gt;note</title>
<path fill="none" stroke="#64748b" d="M562.63,-39.52C595.53,-64.18 651.63,-106.24 687.59,-133.21"/>
<polygon fill="#64748b" stroke="#64748b" points="685.65,-135.25 693.73,-137.81 689.01,-130.77 685.65,-135.25"/>
</g>
</g>
</svg>
