<?xml version="1.0" encoding="UTF-8" standalone="no"?>
<!DOCTYPE svg PUBLIC "-//W3C//DTD SVG 1.1//EN"
 "http://www.w3.org/Graphics/SVG/1.1/DTD/svg11.dtd">
<!-- Generated by graphviz version 2.43.0 (0)
 -->
<!-- Title: panorama Pages: 1 -->
<svg width="492pt" height="430pt"
 viewBox="0.00 0.00 491.50 430.00" xmlns="http://www.w3.org/2000/svg" xmlns:xlink="http://www.w3.org/1999/xlink">
<g id="graph0" class="graph" transform="scale(1 1) rotate(0) translate(4 426)">
<title>panorama</title>
<polygon fill="white" stroke="transparent" points="-4,4 -4,-426 487.5,-426 487.5,4 -4,4"/>
<!-- umd -->
<g id="node1" class="node">
<title>umd</title>
<path fill="#eef3fb" stroke="#9fb3c8" d="M352,-422C352,-422 273,-422 273,-422 267,-422 261,-416 261,-410 261,-410 261,-388 261,-388 261,-382 267,-376 273,-376 273,-376 352,-376 352,-376 358,-376 364,-382 364,-388 364,-388 364,-410 364,-410 364,-416 358,-422 352,-422"/>
<text text-anchor="middle" x="312.5" y="-402.4" font-family="Noto Sans CJK SC" font-size="12.00">UMD</text>
<text text-anchor="middle" x="312.5" y="-389.4" font-family="Noto Sans CJK SC" font-size="12.00">应用 / 运行时</text>
</g>
<!-- thunk -->
<g id="node2" class="node">
<title>thunk</title>
<path fill="#eef3fb" stroke="#9fb3c8" d="M364,-328C364,-328 261,-328 261,-328 255,-328 249,-322 249,-316 249,-316 249,-294 249,-294 249,-288 255,-282 261,-282 261,-282 364,-282 364,-282 370,-282 376,-288 376,-294 376,-294 376,-316 376,-316 376,-322 370,-328 364,-328"/>
<text text-anchor="middle" x="312.5" y="-308.4" font-family="Noto Sans CJK SC" font-size="12.00">ajthunk 用户态库</text>
<text text-anchor="middle" x="312.5" y="-295.4" font-family="Noto Sans CJK SC" font-size="12.00">Thunk_* C API</text>
</g>
<!-- umd&#45;&gt;thunk -->
<g id="edge1" class="edge">
<title>umd&#45;&gt;thunk</title>
<path fill="none" stroke="#52606d" stroke-width="1.3" d="M312.5,-375.73C312.5,-364.54 312.5,-350.78 312.5,-338.44"/>
<polygon fill="#52606d" stroke="#52606d" stroke-width="1.3" points="316,-338.07 312.5,-328.07 309,-338.07 316,-338.07"/>
<text text-anchor="middle" x="338" y="-349.2" font-family="Noto Sans CJK SC" font-size="11.00">调用 C API</text>
</g>
<!-- dev -->
<g id="node3" class="node">
<title>dev</title>
<path fill="#fff4e0" stroke="#d9a441" d="M374,-234C374,-234 251,-234 251,-234 245,-234 239,-228 239,-222 239,-222 239,-200 239,-200 239,-194 245,-188 251,-188 251,-188 374,-188 374,-188 380,-188 386,-194 386,-200 386,-200 386,-222 386,-222 386,-228 380,-234 374,-234"/>
<text text-anchor="middle" x="312.5" y="-214.4" font-family="Noto Sans CJK SC" font-size="12.00">/dev/aigcN &#160;字符设备</text>
<text text-anchor="middle" x="312.5" y="-201.4" font-family="Noto Sans CJK SC" font-size="12.00">ioctl(fd, AIP_*, args)</text>
</g>
<!-- thunk&#45;&gt;dev -->
<g id="edge2" class="edge">
<title>thunk&#45;&gt;dev</title>
<path fill="none" stroke="#52606d" stroke-width="1.3" d="M312.5,-281.73C312.5,-270.54 312.5,-256.78 312.5,-244.44"/>
<polygon fill="#52606d" stroke="#52606d" stroke-width="1.3" points="316,-244.07 312.5,-234.07 309,-244.07 316,-244.07"/>
<text text-anchor="middle" x="335.5" y="-255.2" font-family="Noto Sans CJK SC" font-size="11.00">系统调用</text>
</g>
<!-- kmd -->
<g id="node4" class="node">
<title>kmd</title>
<path fill="#e3f0e3" stroke="#5a9367" stroke-width="2.2" d="M387.5,-140C387.5,-140 237.5,-140 237.5,-140 231.5,-140 225.5,-134 225.5,-128 225.5,-128 225.5,-106 225.5,-106 225.5,-100 231.5,-94 237.5,-94 237.5,-94 387.5,-94 387.5,-94 393.5,-94 399.5,-100 399.5,-106 399.5,-106 399.5,-128 399.5,-128 399.5,-134 393.5,-140 387.5,-140"/>
<text text-anchor="middle" x="312.5" y="-120.4" font-family="Noto Sans CJK SC" font-size="12.00">kmd &#160;内核态驱动 (aigc.ko)</text>
<text text-anchor="middle" x="312.5" y="-107.4" font-family="Noto Sans CJK SC" font-size="12.00">本知识库讲的就是这一层</text>
</g>
<!-- dev&#45;&gt;kmd -->
<g id="edge3" class="edge">
<title>dev&#45;&gt;kmd</title>
<path fill="none" stroke="#52606d" stroke-width="1.3" d="M312.5,-187.73C312.5,-176.54 312.5,-162.78 312.5,-150.44"/>
<polygon fill="#52606d" stroke="#52606d" stroke-width="1.3" points="316,-150.07 312.5,-140.07 309,-150.07 316,-150.07"/>
<text text-anchor="middle" x="335.5" y="-161.2" font-family="Noto Sans CJK SC" font-size="11.00">进入内核</text>
</g>
<!-- hw -->
<g id="node5" class="node">
<title>hw</title>
<path fill="#f3e4f0" stroke="#a86fa0" d="M360.5,-41C360.5,-41 264.5,-41 264.5,-41 258.5,-41 252.5,-35 252.5,-29 252.5,-29 252.5,-17 252.5,-17 252.5,-11 258.5,-5 264.5,-5 264.5,-5 360.5,-5 360.5,-5 366.5,-5 372.5,-11 372.5,-17 372.5,-17 372.5,-29 372.5,-29 372.5,-35 366.5,-41 360.5,-41"/>
<text text-anchor="middle" x="312.5" y="-19.9" font-family="Noto Sans CJK SC" font-size="12.00">Grace GPU 硬件</text>
</g>
<!-- kmd&#45;&gt;hw -->
<g id="edge4" class="edge">
<title>kmd&#45;&gt;hw</title>
<path fill="none" stroke="#52606d" stroke-width="1.3" d="M312.5,-93.73C312.5,-80.97 312.5,-64.86 312.5,-51.34"/>
<polygon fill="#52606d" stroke="#52606d" stroke-width="1.3" points="316,-51.17 312.5,-41.17 309,-51.17 316,-51.17"/>
<text text-anchor="middle" x="358" y="-67.2" font-family="Noto Sans CJK SC" font-size="11.00">寄存器读写 + DMA</text>
</g>
<!-- fw -->
<g id="node6" class="node">
<title>fw</title>
<path fill="#f3e4f0" stroke="#a86fa0" d="M177,-46C177,-46 12,-46 12,-46 6,-46 0,-40 0,-34 0,-34 0,-12 0,-12 0,-6 6,0 12,0 12,0 177,0 177,0 183,0 189,-6 189,-12 189,-12 189,-34 189,-34 189,-40 183,-46 177,-46"/>
<text text-anchor="middle" x="94.5" y="-26.4" font-family="Noto Sans CJK SC" font-size="12.00">fw &#160;片上固件</text>
<text text-anchor="middle" x="94.5" y="-13.4" font-family="Noto Sans CJK SC" font-size="12.00">(IMC / CP master，姊妹项目)</text>
</g>
<!-- kmd&#45;&gt;fw -->
<g id="edge5" class="edge">
<title>kmd&#45;&gt;fw</title>
<path fill="none" stroke="#52606d" stroke-width="1.3" stroke-dasharray="5,2" d="M393.02,-93.89C407.67,-86.05 415.32,-76.1 404.5,-64 380.5,-37.17 279.2,-50.63 243.5,-46 229.17,-44.14 214.09,-42.06 199.24,-39.94"/>
<polygon fill="#52606d" stroke="#52606d" stroke-width="1.3" points="199.41,-36.43 189.02,-38.47 198.42,-43.36 199.41,-36.43"/>
<text text-anchor="middle" x="446.5" y="-67.2" font-family="Noto Sans CJK SC" font-size="11.00">CP / IMC IPC 环</text>
</g>
<!-- fw&#45;&gt;hw -->
<g id="edge6" class="edge">
<title>fw&#45;&gt;hw</title>
<path fill="none" stroke="#52606d" stroke-width="1.3" stroke-dasharray="5,2" d="M189.17,-23C206.96,-23 225.27,-23 242.16,-23"/>
<polygon fill="#52606d" stroke="#52606d" stroke-width="1.3" points="242.48,-26.5 252.48,-23 242.48,-19.5 242.48,-26.5"/>
<text text-anchor="middle" x="220.75" y="-29.2" font-family="Noto Sans CJK SC" font-size="11.00">驱动片内</text>
</g>
</g>
</svg>
