<?xml version="1.0" encoding="UTF-8" standalone="no"?>
<!DOCTYPE svg PUBLIC "-//W3C//DTD SVG 1.1//EN"
 "http://www.w3.org/Graphics/SVG/1.1/DTD/svg11.dtd">
<!-- Generated by graphviz version 2.43.0 (0)
 -->
<!-- Title: layers Pages: 1 -->
<svg width="598pt" height="382pt"
 viewBox="0.00 0.00 598.00 382.00" xmlns="http://www.w3.org/2000/svg" xmlns:xlink="http://www.w3.org/1999/xlink">
<g id="graph0" class="graph" transform="scale(1 1) rotate(0) translate(4 378)">
<title>layers</title>
<polygon fill="white" stroke="transparent" points="-4,4 -4,-378 594,-378 594,4 -4,4"/>
<g id="clust1" class="cluster">
<title>cluster_entry</title>
<polygon fill="#fff4e0" stroke="#d9a441" points="8,-291 8,-366 582,-366 582,-291 8,-291"/>
<text text-anchor="middle" x="295" y="-352.4" font-family="Noto Sans CJK SC" font-size="12.00">① 驱动入口层 &#160;kmd/aigc/*.c &#160;（唯一允许直接调 Linux 内核 API）</text>
</g>
<g id="clust2" class="cluster">
<title>cluster_core</title>
<polygon fill="#e8f4e8" stroke="#5a9367" points="102,-112 102,-262 470,-262 470,-112 102,-112"/>
<text text-anchor="middle" x="286" y="-248.4" font-family="Noto Sans CJK SC" font-size="12.00">② 可移植核心 &#160;kmd/aigc/kmdlib/* &#160;（OS 无关，只走 os_* 包装）</text>
</g>
<g id="clust3" class="cluster">
<title>cluster_hal</title>
<polygon fill="#f6e8f3" stroke="#a86fa0" points="111,-8 111,-83 462,-83 462,-8 111,-8"/>
<text text-anchor="middle" x="286.5" y="-69.4" font-family="Noto Sans CJK SC" font-size="12.00">③ Grace HAL &#160;kmdlib/hal/grace/* + regs/* &#160;（芯片专属后端）</text>
</g>
<!-- drv -->
<g id="node1" class="node">
<title>drv</title>
<path fill="#ffffff" stroke="#9fb3c8" d="M562,-337C562,-337 388,-337 388,-337 382,-337 376,-331 376,-325 376,-325 376,-311 376,-311 376,-305 382,-299 388,-299 388,-299 562,-299 562,-299 568,-299 574,-305 574,-311 574,-311 574,-325 574,-325 574,-331 568,-337 562,-337"/>
<text text-anchor="middle" x="475" y="-321.2" font-family="Noto Sans CJK SC" font-size="11.00">aigc_drv.c</text>
<text text-anchor="middle" x="475" y="-309.2" font-family="Noto Sans CJK SC" font-size="11.00">PCI probe / BAR / MSI&#45;X / 模块参数</text>
</g>
<!-- ioc -->
<g id="node2" class="node">
<title>ioc</title>
<path fill="#ffffff" stroke="#9fb3c8" d="M345.5,-337C345.5,-337 226.5,-337 226.5,-337 220.5,-337 214.5,-331 214.5,-325 214.5,-325 214.5,-311 214.5,-311 214.5,-305 220.5,-299 226.5,-299 226.5,-299 345.5,-299 345.5,-299 351.5,-299 357.5,-305 357.5,-311 357.5,-311 357.5,-325 357.5,-325 357.5,-331 351.5,-337 345.5,-337"/>
<text text-anchor="middle" x="286" y="-321.2" font-family="Noto Sans CJK SC" font-size="11.00">aigc_ioctl.c</text>
<text text-anchor="middle" x="286" y="-309.2" font-family="Noto Sans CJK SC" font-size="11.00">fops + 第一级 ioctl 校验</text>
</g>
<!-- fops -->
<g id="node4" class="node">
<title>fops</title>
<path fill="#ffffff" stroke="#9fb3c8" d="M381,-233C381,-233 191,-233 191,-233 185,-233 179,-227 179,-221 179,-221 179,-207 179,-207 179,-201 185,-195 191,-195 191,-195 381,-195 381,-195 387,-195 393,-201 393,-207 393,-207 393,-221 393,-221 393,-227 387,-233 381,-233"/>
<text text-anchor="middle" x="286" y="-217.2" font-family="Noto Sans CJK SC" font-size="11.00">aigc_fops.c</text>
<text text-anchor="middle" x="286" y="-205.2" font-family="Noto Sans CJK SC" font-size="11.00">第二级派发 + 各 aigc_ioctl_* 处理函数</text>
</g>
<!-- ioc&#45;&gt;fops -->
<g id="edge1" class="edge">
<title>ioc&#45;&gt;fops</title>
<path fill="none" stroke="#52606d" d="M286,-291C286,-285.14 286,-278.69 286,-272.11"/>
<polygon fill="#52606d" stroke="#52606d" points="289.5,-272 286,-262 282.5,-272 289.5,-272"/>
<text text-anchor="middle" x="321.5" y="-273" font-family="Noto Sans CJK SC" font-size="10.00">aigc_lib_ioctl()</text>
</g>
<!-- osif -->
<g id="node3" class="node">
<title>osif</title>
<path fill="#ffe3c2" stroke="#9fb3c8" d="M184,-337C184,-337 28,-337 28,-337 22,-337 16,-331 16,-325 16,-325 16,-311 16,-311 16,-305 22,-299 28,-299 28,-299 184,-299 184,-299 190,-299 196,-305 196,-311 196,-311 196,-325 196,-325 196,-331 190,-337 184,-337"/>
<text text-anchor="middle" x="106" y="-321.2" font-family="Noto Sans CJK SC" font-size="11.00">os_interface.c</text>
<text text-anchor="middle" x="106" y="-309.2" font-family="Noto Sans CJK SC" font-size="11.00">唯一 #include &lt;linux/*&gt; 的文件</text>
</g>
<!-- sub -->
<g id="node5" class="node">
<title>sub</title>
<path fill="#ffffff" stroke="#9fb3c8" d="M417.5,-158C417.5,-158 154.5,-158 154.5,-158 148.5,-158 142.5,-152 142.5,-146 142.5,-146 142.5,-132 142.5,-132 142.5,-126 148.5,-120 154.5,-120 154.5,-120 417.5,-120 417.5,-120 423.5,-120 429.5,-126 429.5,-132 429.5,-132 429.5,-146 429.5,-146 429.5,-152 423.5,-158 417.5,-158"/>
<text text-anchor="middle" x="286" y="-142.2" font-family="Noto Sans CJK SC" font-size="11.00">ctx · devm · page_table · mem_handle</text>
<text text-anchor="middle" x="286" y="-130.2" font-family="Noto Sans CJK SC" font-size="11.00">cp_ring · sched · interrupt · fence · fw_update</text>
</g>
<!-- osif&#45;&gt;sub -->
<g id="edge4" class="edge">
<title>osif&#45;&gt;sub</title>
<path fill="none" stroke="#d9a441" stroke-dasharray="5,2" d="M167.76,-298.99C180.32,-295.88 193.51,-293.01 206,-291 249.47,-284.01 378.3,-299.11 402,-262 418.03,-236.9 417.92,-220.17 402,-195 393.12,-180.96 379.58,-170.44 364.84,-162.57"/>
<polygon fill="#d9a441" stroke="#d9a441" points="366.06,-159.27 355.54,-158 362.98,-165.55 366.06,-159.27"/>
<text text-anchor="middle" x="473.5" y="-211.5" font-family="Noto Sans CJK SC" font-size="10.00">os_* 包装（可移植性缝隙）</text>
</g>
<!-- fops&#45;&gt;sub -->
<!-- hal -->
<g id="node6" class="node">
<title>hal</title>
<path fill="#ffffff" stroke="#9fb3c8" d="M370.5,-54C370.5,-54 201.5,-54 201.5,-54 195.5,-54 189.5,-48 189.5,-42 189.5,-42 189.5,-28 189.5,-28 189.5,-22 195.5,-16 201.5,-16 201.5,-16 370.5,-16 370.5,-16 376.5,-16 382.5,-22 382.5,-28 382.5,-28 382.5,-42 382.5,-42 382.5,-48 376.5,-54 370.5,-54"/>
<text text-anchor="middle" x="286" y="-38.2" font-family="Noto Sans CJK SC" font-size="11.00">CP · arch · IMC · L2C · TCU</text>
<text text-anchor="middle" x="286" y="-26.2" font-family="Noto Sans CJK SC" font-size="11.00">C2C · D2D · link &#160;&#160;+ &#160;&#160;寄存器布局</text>
</g>
<!-- sub&#45;&gt;hal -->
<g id="edge3" class="edge">
<title>sub&#45;&gt;hal</title>
<path fill="none" stroke="#52606d" d="M286,-119.76C286,-112.11 286,-102.76 286,-93.11"/>
<polygon fill="#52606d" stroke="#52606d" points="289.5,-93 286,-83 282.5,-93 289.5,-93"/>
<text text-anchor="middle" x="331.5" y="-94" font-family="Noto Sans CJK SC" font-size="10.00">aigc_hal_* 函数指针</text>
</g>
</g>
</svg>
