<?xml version="1.0" encoding="UTF-8" standalone="no"?>
<!DOCTYPE svg PUBLIC "-//W3C//DTD SVG 1.1//EN"
 "http://www.w3.org/Graphics/SVG/1.1/DTD/svg11.dtd">
<!-- Generated by graphviz version 2.43.0 (0)
 -->
<!-- Title: ioctl_path Pages: 1 -->
<svg width="556pt" height="410pt"
 viewBox="0.00 0.00 556.00 410.00" xmlns="http://www.w3.org/2000/svg" xmlns:xlink="http://www.w3.org/1999/xlink">
<g id="graph0" class="graph" transform="scale(1 1) rotate(0) translate(4 406)">
<title>ioctl_path</title>
<polygon fill="white" stroke="transparent" points="-4,4 -4,-406 552,-406 552,4 -4,4"/>
<!-- open -->
<g id="node1" class="node">
<title>open</title>
<path fill="#eef3fb" stroke="#9fb3c8" d="M261,-402C261,-402 12,-402 12,-402 6,-402 0,-396 0,-390 0,-390 0,-360 0,-360 0,-354 6,-348 12,-348 12,-348 261,-348 261,-348 267,-348 273,-354 273,-360 273,-360 273,-390 273,-390 273,-396 267,-402 261,-402"/>
<text text-anchor="middle" x="136.5" y="-384.2" font-family="Noto Sans CJK SC" font-size="11.00">① open(&quot;/dev/aigcN&quot;)</text>
<text text-anchor="middle" x="136.5" y="-372.2" font-family="Noto Sans CJK SC" font-size="11.00">aigc_open → aigc_lib_open()</text>
<text text-anchor="middle" x="136.5" y="-360.2" font-family="Noto Sans CJK SC" font-size="11.00">分配每&#45;fd 的 aigc_vdev，存入 file&#45;&gt;private_data</text>
</g>
<!-- val -->
<g id="node2" class="node">
<title>val</title>
<path fill="#fff4e0" stroke="#d9a441" d="M240.5,-312C240.5,-312 32.5,-312 32.5,-312 26.5,-312 20.5,-306 20.5,-300 20.5,-300 20.5,-258 20.5,-258 20.5,-252 26.5,-246 32.5,-246 32.5,-246 240.5,-246 240.5,-246 246.5,-246 252.5,-252 252.5,-258 252.5,-258 252.5,-300 252.5,-300 252.5,-306 246.5,-312 240.5,-312"/>
<text text-anchor="middle" x="136.5" y="-294.2" font-family="Noto Sans CJK SC" font-size="11.00">② ioctl(fd, cmd, arg)</text>
<text text-anchor="middle" x="136.5" y="-282.2" font-family="Noto Sans CJK SC" font-size="11.00">aigc_ioctl()：解出 _IOC_NR / _IOC_SIZE</text>
<text text-anchor="middle" x="136.5" y="-270.2" font-family="Noto Sans CJK SC" font-size="11.00">对照 aigc_ioctl_tbl[] 安检</text>
<text text-anchor="middle" x="136.5" y="-258.2" font-family="Noto Sans CJK SC" font-size="11.00">编号越界或 .cmd 不精确匹配 → &#45;EINVAL</text>
</g>
<!-- open&#45;&gt;val -->
<g id="edge1" class="edge">
<title>open&#45;&gt;val</title>
<path fill="none" stroke="#52606d" stroke-width="1.3" d="M136.5,-347.82C136.5,-339.85 136.5,-330.89 136.5,-322.15"/>
<polygon fill="#52606d" stroke="#52606d" stroke-width="1.3" points="140,-322.07 136.5,-312.07 133,-322.07 140,-322.07"/>
</g>
<!-- disp -->
<g id="node3" class="node">
<title>disp</title>
<path fill="#e8f4e8" stroke="#5a9367" d="M242,-210C242,-210 31,-210 31,-210 25,-210 19,-204 19,-198 19,-198 19,-180 19,-180 19,-174 25,-168 31,-168 31,-168 242,-168 242,-168 248,-168 254,-174 254,-180 254,-180 254,-198 254,-198 254,-204 248,-210 242,-210"/>
<text text-anchor="middle" x="136.5" y="-192.2" font-family="Noto Sans CJK SC" font-size="11.00">③ aigc_lib_ioctl() &#160;第二级派发</text>
<text text-anchor="middle" x="136.5" y="-180.2" font-family="Noto Sans CJK SC" font-size="11.00">用 [AIP_x] = handler 表按编号取处理函数</text>
</g>
<!-- val&#45;&gt;disp -->
<g id="edge2" class="edge">
<title>val&#45;&gt;disp</title>
<path fill="none" stroke="#52606d" stroke-width="1.3" d="M136.5,-245.73C136.5,-237.48 136.5,-228.63 136.5,-220.47"/>
<polygon fill="#52606d" stroke="#52606d" stroke-width="1.3" points="140,-220.25 136.5,-210.25 133,-220.25 140,-220.25"/>
</g>
<!-- hdl -->
<g id="node4" class="node">
<title>hdl</title>
<path fill="#eef3fb" stroke="#9fb3c8" d="M223,-132C223,-132 50,-132 50,-132 44,-132 38,-126 38,-120 38,-120 38,-90 38,-90 38,-84 44,-78 50,-78 50,-78 223,-78 223,-78 229,-78 235,-84 235,-90 235,-90 235,-120 235,-120 235,-126 229,-132 223,-132"/>
<text text-anchor="middle" x="136.5" y="-114.2" font-family="Noto Sans CJK SC" font-size="11.00">④ aigc_ioctl_*() &#160;处理函数</text>
<text text-anchor="middle" x="136.5" y="-102.2" font-family="Noto Sans CJK SC" font-size="11.00">os_memcpy_from/to_user 拷参</text>
<text text-anchor="middle" x="136.5" y="-90.2" font-family="Noto Sans CJK SC" font-size="11.00">驱动 ctx / vm / 页表 / 命令 / fence</text>
</g>
<!-- disp&#45;&gt;hdl -->
<g id="edge3" class="edge">
<title>disp&#45;&gt;hdl</title>
<path fill="none" stroke="#52606d" stroke-width="1.3" d="M136.5,-167.73C136.5,-160.03 136.5,-151 136.5,-142.26"/>
<polygon fill="#52606d" stroke="#52606d" stroke-width="1.3" points="140,-142.23 136.5,-132.23 133,-142.23 140,-142.23"/>
</g>
<!-- hal -->
<g id="node5" class="node">
<title>hal</title>
<path fill="#f6e8f3" stroke="#a86fa0" d="M241.5,-42C241.5,-42 31.5,-42 31.5,-42 25.5,-42 19.5,-36 19.5,-30 19.5,-30 19.5,-12 19.5,-12 19.5,-6 25.5,0 31.5,0 31.5,0 241.5,0 241.5,0 247.5,0 253.5,-6 253.5,-12 253.5,-12 253.5,-30 253.5,-30 253.5,-36 247.5,-42 241.5,-42"/>
<text text-anchor="middle" x="136.5" y="-24.2" font-family="Noto Sans CJK SC" font-size="11.00">⑤ aigc_hal_* &#160;入口</text>
<text text-anchor="middle" x="136.5" y="-12.2" font-family="Noto Sans CJK SC" font-size="11.00">经 ops 表落到 Grace 后端（寄存器/IPC）</text>
</g>
<!-- hdl&#45;&gt;hal -->
<g id="edge4" class="edge">
<title>hdl&#45;&gt;hal</title>
<path fill="none" stroke="#52606d" stroke-width="1.3" d="M136.5,-77.6C136.5,-69.51 136.5,-60.53 136.5,-52.2"/>
<polygon fill="#52606d" stroke="#52606d" stroke-width="1.3" points="140,-52.1 136.5,-42.1 133,-52.1 140,-52.1"/>
</g>
<!-- note -->
<g id="node6" class="node">
<title>note</title>
<polygon fill="#fffbe6" stroke="#c9a227" points="542,-402 291,-402 291,-348 548,-348 548,-396 542,-402"/>
<polyline fill="none" stroke="#c9a227" points="542,-402 542,-396 "/>
<polyline fill="none" stroke="#c9a227" points="548,-396 542,-396 "/>
<text text-anchor="middle" x="419.5" y="-384.2" font-family="Noto Sans CJK SC" font-size="11.00">两张表（第一级校验表 + 第二级派发表）都由</text>
<text text-anchor="middle" x="419.5" y="-372.2" font-family="Noto Sans CJK SC" font-size="11.00">同一个 X&#45;macro 头 aigc_ioctl_tab.h 生成，</text>
<text text-anchor="middle" x="419.5" y="-360.2" font-family="Noto Sans CJK SC" font-size="11.00">因此永不漂移，并与用户态 AIP_* 枚举同步。</text>
</g>
<!-- note&#45;&gt;disp -->
<g id="edge5" class="edge">
<title>note&#45;&gt;disp</title>
<path fill="none" stroke="#c9a227" stroke-width="1.3" stroke-dasharray="5,2" d="M391.78,-347.78C361.49,-320.05 310.68,-276.22 261.5,-246 238.91,-232.12 212.29,-219.71 189.43,-210.12"/>
</g>
</g>
</svg>
