<?xml version="1.0" encoding="UTF-8" standalone="no"?>
<!DOCTYPE svg PUBLIC "-//W3C//DTD SVG 1.1//EN"
 "http://www.w3.org/Graphics/SVG/1.1/DTD/svg11.dtd">
<!-- Generated by graphviz version 2.43.0 (0)
 -->
<!-- Title: subsystem_map Pages: 1 -->
<svg width="463pt" height="398pt"
 viewBox="0.00 0.00 463.00 398.00" xmlns="http://www.w3.org/2000/svg" xmlns:xlink="http://www.w3.org/1999/xlink">
<g id="graph0" class="graph" transform="scale(1 1) rotate(0) translate(4 394)">
<title>subsystem_map</title>
<polygon fill="white" stroke="transparent" points="-4,4 -4,-394 459,-394 459,4 -4,4"/>
<!-- core -->
<g id="node1" class="node">
<title>core</title>
<path fill="#e3f0e3" stroke="#5a9367" stroke-width="2" d="M105,-211C105,-211 12,-211 12,-211 6,-211 0,-205 0,-199 0,-199 0,-179 0,-179 0,-173 6,-167 12,-167 12,-167 105,-167 105,-167 111,-167 117,-173 117,-179 117,-179 117,-199 117,-199 117,-205 111,-211 105,-211"/>
<text text-anchor="middle" x="58.5" y="-192.4" font-family="Noto Sans CJK SC" font-size="12.00">kmd 可移植核心</text>
<text text-anchor="middle" x="58.5" y="-179.4" font-family="Noto Sans CJK SC" font-size="12.00">kmdlib/</text>
</g>
<!-- ioctl -->
<g id="node2" class="node">
<title>ioctl</title>
<path fill="#eef3fb" stroke="#9fb3c8" d="M371,-390C371,-390 237,-390 237,-390 231,-390 225,-384 225,-378 225,-378 225,-336 225,-336 225,-330 231,-324 237,-324 237,-324 371,-324 371,-324 377,-324 383,-330 383,-336 383,-336 383,-378 383,-378 383,-384 377,-390 371,-390"/>
<text text-anchor="middle" x="304" y="-372.2" font-family="Noto Sans CJK SC" font-size="11.00">ioctl ABI 与派发</text>
<text text-anchor="middle" x="304" y="-360.2" font-family="Noto Sans CJK SC" font-size="11.00">aigc_ioctl.c · aigc_fops.c</text>
<text text-anchor="middle" x="304" y="-348.2" font-family="Noto Sans CJK SC" font-size="11.00">aigc_ioctl_tab.h</text>
<text text-anchor="middle" x="304" y="-336.2" font-family="Noto Sans CJK SC" font-size="11.00">→ 第 03 章</text>
</g>
<!-- core&#45;&gt;ioctl -->
<g id="edge1" class="edge">
<title>core&#45;&gt;ioctl</title>
<path fill="none" stroke="#7b8794" stroke-width="1.2" d="M70.12,-211.23C84.79,-239.58 113.95,-288.13 153,-315 172.18,-328.2 195.42,-337.27 217.83,-343.5"/>
<polygon fill="#7b8794" stroke="#7b8794" stroke-width="1.2" points="217.36,-345.91 224.75,-345.34 218.62,-341.17 217.36,-345.91"/>
</g>
<!-- mem -->
<g id="node3" class="node">
<title>mem</title>
<path fill="#eef3fb" stroke="#9fb3c8" d="M397.5,-306C397.5,-306 210.5,-306 210.5,-306 204.5,-306 198.5,-300 198.5,-294 198.5,-294 198.5,-252 198.5,-252 198.5,-246 204.5,-240 210.5,-240 210.5,-240 397.5,-240 397.5,-240 403.5,-240 409.5,-246 409.5,-252 409.5,-252 409.5,-294 409.5,-294 409.5,-300 403.5,-306 397.5,-306"/>
<text text-anchor="middle" x="304" y="-288.2" font-family="Noto Sans CJK SC" font-size="11.00">内存与页表</text>
<text text-anchor="middle" x="304" y="-276.2" font-family="Noto Sans CJK SC" font-size="11.00">aigc_mem_handle.c · aigc_devm.c</text>
<text text-anchor="middle" x="304" y="-264.2" font-family="Noto Sans CJK SC" font-size="11.00">aigc_page_table.c · genalloc.c</text>
<text text-anchor="middle" x="304" y="-252.2" font-family="Noto Sans CJK SC" font-size="11.00">→ 第 04 章</text>
</g>
<!-- core&#45;&gt;mem -->
<g id="edge2" class="edge">
<title>core&#45;&gt;mem</title>
<path fill="none" stroke="#7b8794" stroke-width="1.2" d="M105.07,-211.11C120.13,-217.97 137.11,-225.24 153,-231 165.34,-235.47 178.4,-239.76 191.45,-243.77"/>
<polygon fill="#7b8794" stroke="#7b8794" stroke-width="1.2" points="190.86,-246.15 198.27,-245.84 192.28,-241.46 190.86,-246.15"/>
</g>
<!-- sub -->
<g id="node4" class="node">
<title>sub</title>
<path fill="#eef3fb" stroke="#9fb3c8" d="M443,-222C443,-222 165,-222 165,-222 159,-222 153,-216 153,-210 153,-210 153,-168 153,-168 153,-162 159,-156 165,-156 165,-156 443,-156 443,-156 449,-156 455,-162 455,-168 455,-168 455,-210 455,-210 455,-216 449,-222 443,-222"/>
<text text-anchor="middle" x="304" y="-204.2" font-family="Noto Sans CJK SC" font-size="11.00">提交 / 事件 / 中断</text>
<text text-anchor="middle" x="304" y="-192.2" font-family="Noto Sans CJK SC" font-size="11.00">aigc_cmd*.c · aigc_cp_ring.c</text>
<text text-anchor="middle" x="304" y="-180.2" font-family="Noto Sans CJK SC" font-size="11.00">aigc_sched.c · aigc_interrupt*.c · aigc_kmd_fence.c</text>
<text text-anchor="middle" x="304" y="-168.2" font-family="Noto Sans CJK SC" font-size="11.00">→ 第 05 章</text>
</g>
<!-- core&#45;&gt;sub -->
<g id="edge3" class="edge">
<title>core&#45;&gt;sub</title>
<path fill="none" stroke="#7b8794" stroke-width="1.2" d="M117.21,-189C126.15,-189 135.73,-189 145.66,-189"/>
<polygon fill="#7b8794" stroke="#7b8794" stroke-width="1.2" points="145.95,-191.45 152.95,-189 145.95,-186.55 145.95,-191.45"/>
</g>
<!-- hal -->
<g id="node5" class="node">
<title>hal</title>
<path fill="#eef3fb" stroke="#9fb3c8" d="M358.5,-138C358.5,-138 249.5,-138 249.5,-138 243.5,-138 237.5,-132 237.5,-126 237.5,-126 237.5,-96 237.5,-96 237.5,-90 243.5,-84 249.5,-84 249.5,-84 358.5,-84 358.5,-84 364.5,-84 370.5,-90 370.5,-96 370.5,-96 370.5,-126 370.5,-126 370.5,-132 364.5,-138 358.5,-138"/>
<text text-anchor="middle" x="304" y="-120.2" font-family="Noto Sans CJK SC" font-size="11.00">Grace HAL</text>
<text text-anchor="middle" x="304" y="-108.2" font-family="Noto Sans CJK SC" font-size="11.00">hal/grace/* · regs/*</text>
<text text-anchor="middle" x="304" y="-96.2" font-family="Noto Sans CJK SC" font-size="11.00">→ 第 06 章</text>
</g>
<!-- core&#45;&gt;hal -->
<g id="edge4" class="edge">
<title>core&#45;&gt;hal</title>
<path fill="none" stroke="#7b8794" stroke-width="1.2" d="M104,-166.97C119.28,-159.95 136.66,-152.57 153,-147 177.79,-138.54 205.53,-131.29 230.35,-125.56"/>
<polygon fill="#7b8794" stroke="#7b8794" stroke-width="1.2" points="230.99,-127.93 237.27,-123.98 229.9,-123.15 230.99,-127.93"/>
</g>
<!-- build -->
<g id="node6" class="node">
<title>build</title>
<path fill="#eef3fb" stroke="#9fb3c8" d="M378.5,-66C378.5,-66 229.5,-66 229.5,-66 223.5,-66 217.5,-60 217.5,-54 217.5,-54 217.5,-12 217.5,-12 217.5,-6 223.5,0 229.5,0 229.5,0 378.5,0 378.5,0 384.5,0 390.5,-6 390.5,-12 390.5,-12 390.5,-54 390.5,-54 390.5,-60 384.5,-66 378.5,-66"/>
<text text-anchor="middle" x="304" y="-48.2" font-family="Noto Sans CJK SC" font-size="11.00">构建与测试</text>
<text text-anchor="middle" x="304" y="-36.2" font-family="Noto Sans CJK SC" font-size="11.00">Kbuild · Makefile</text>
<text text-anchor="middle" x="304" y="-24.2" font-family="Noto Sans CJK SC" font-size="11.00">kmd/test/* · kmd/scripts/*</text>
<text text-anchor="middle" x="304" y="-12.2" font-family="Noto Sans CJK SC" font-size="11.00">→ 第 07 章</text>
</g>
<!-- core&#45;&gt;build -->
<g id="edge5" class="edge">
<title>core&#45;&gt;build</title>
<path fill="none" stroke="#7b8794" stroke-width="1.2" d="M72.01,-166.64C87.63,-140.76 116.78,-98.65 153,-75 170.29,-63.71 190.62,-55.42 210.62,-49.34"/>
<polygon fill="#7b8794" stroke="#7b8794" stroke-width="1.2" points="211.36,-51.68 217.39,-47.36 209.99,-46.97 211.36,-51.68"/>
</g>
</g>
</svg>
