<?xml version="1.0" encoding="UTF-8" standalone="no"?>
<!DOCTYPE svg PUBLIC "-//W3C//DTD SVG 1.1//EN"
 "http://www.w3.org/Graphics/SVG/1.1/DTD/svg11.dtd">
<!-- Generated by graphviz version 2.43.0 (0)
 -->
<!-- Title: memcpy_lifecycle Pages: 1 -->
<svg width="601pt" height="1103pt"
 viewBox="0.00 0.00 600.50 1103.00" xmlns="http://www.w3.org/2000/svg" xmlns:xlink="http://www.w3.org/1999/xlink">
<g id="graph0" class="graph" transform="scale(1 1) rotate(0) translate(4 1099)">
<title>memcpy_lifecycle</title>
<polygon fill="white" stroke="transparent" points="-4,4 -4,-1099 596.5,-1099 596.5,4 -4,4"/>
<g id="clust1" class="cluster">
<title>cluster_i</title>
<path fill="#f7f9fc" stroke="#81a1c1" d="M105,-532C105,-532 384,-532 384,-532 390,-532 396,-538 396,-544 396,-544 396,-924 396,-924 396,-930 390,-936 384,-936 384,-936 105,-936 105,-936 99,-936 93,-930 93,-924 93,-924 93,-544 93,-544 93,-538 99,-532 105,-532"/>
<text text-anchor="middle" x="244.5" y="-922.4" font-family="Noto Sans CJK SC" font-size="12.00">③ iaicaMemcpy（核心） &#160;src/aica_memory.cpp:378</text>
</g>
<g id="clust2" class="cluster">
<title>cluster_c</title>
<path fill="#f4f7f4" stroke="#81a1c1" d="M20,-318C20,-318 472,-318 472,-318 478,-318 484,-324 484,-330 484,-330 484,-503 484,-503 484,-509 478,-515 472,-515 472,-515 20,-515 20,-515 14,-515 8,-509 8,-503 8,-503 8,-330 8,-330 8,-324 14,-318 20,-318"/>
<text text-anchor="middle" x="246" y="-501.4" font-family="Noto Sans CJK SC" font-size="12.00">④ createCopyCommand &#160;src/aica_memory.cpp:353</text>
</g>
<!-- user -->
<g id="node1" class="node">
<title>user</title>
<path fill="#e5e9f0" stroke="#3b4252" stroke-width="1.2" d="M375,-1095C375,-1095 171,-1095 171,-1095 165,-1095 159,-1089 159,-1083 159,-1083 159,-1063 159,-1063 159,-1057 165,-1051 171,-1051 171,-1051 375,-1051 375,-1051 381,-1051 387,-1057 387,-1063 387,-1063 387,-1083 387,-1083 387,-1089 381,-1095 375,-1095"/>
<text text-anchor="middle" x="273" y="-1076.4" font-family="Noto Sans CJK SC" font-size="12.00">① 用户调用</text>
<text text-anchor="middle" x="273" y="-1063.4" font-family="Noto Sans CJK SC" font-size="12.00">aicaMemcpy(deviceA, hostA, 4, H2D)</text>
</g>
<!-- api -->
<g id="node2" class="node">
<title>api</title>
<path fill="#eceff4" stroke="#3b4252" stroke-width="1.2" d="M375.5,-1018C375.5,-1018 170.5,-1018 170.5,-1018 164.5,-1018 158.5,-1012 158.5,-1006 158.5,-1006 158.5,-973 158.5,-973 158.5,-967 164.5,-961 170.5,-961 170.5,-961 375.5,-961 375.5,-961 381.5,-961 387.5,-967 387.5,-973 387.5,-973 387.5,-1006 387.5,-1006 387.5,-1012 381.5,-1018 375.5,-1018"/>
<text text-anchor="middle" x="273" y="-999.4" font-family="Noto Sans CJK SC" font-size="12.00">② aicaMemcpy（同步包装）</text>
<text text-anchor="middle" x="273" y="-986.4" font-family="Noto Sans CJK SC" font-size="12.00">sync=true，stream=getNullStream()</text>
<text text-anchor="middle" x="273" y="-973.4" font-family="Noto Sans CJK SC" font-size="12.00">src/aica_memory.cpp:546</text>
</g>
<!-- user&#45;&gt;api -->
<g id="edge1" class="edge">
<title>user&#45;&gt;api</title>
<path fill="none" stroke="#4c566a" d="M273,-1050.59C273,-1042.85 273,-1033.9 273,-1025.31"/>
<polygon fill="#4c566a" stroke="#4c566a" points="275.45,-1025.22 273,-1018.22 270.55,-1025.22 275.45,-1025.22"/>
</g>
<!-- chk -->
<g id="node3" class="node">
<title>chk</title>
<path fill="#eceff4" stroke="#3b4252" stroke-width="1.2" d="M358,-907C358,-907 188,-907 188,-907 182,-907 176,-901 176,-895 176,-895 176,-883 176,-883 176,-877 182,-871 188,-871 188,-871 358,-871 358,-871 364,-871 370,-877 370,-883 370,-883 370,-895 370,-895 370,-901 364,-907 358,-907"/>
<text text-anchor="middle" x="273" y="-885.9" font-family="Noto Sans CJK SC" font-size="12.00">参数校验 checkMemcpyParam</text>
</g>
<!-- api&#45;&gt;chk -->
<g id="edge2" class="edge">
<title>api&#45;&gt;chk</title>
<path fill="none" stroke="#4c566a" d="M273,-960.8C273,-946.3 273,-928.7 273,-914.67"/>
<polygon fill="#4c566a" stroke="#4c566a" points="275.45,-914.29 273,-907.29 270.55,-914.29 275.45,-914.29"/>
</g>
<!-- parse -->
<g id="node4" class="node">
<title>parse</title>
<path fill="#eceff4" stroke="#3b4252" stroke-width="1.2" d="M366,-838C366,-838 180,-838 180,-838 174,-838 168,-832 168,-826 168,-826 168,-806 168,-806 168,-800 174,-794 180,-794 180,-794 366,-794 366,-794 372,-794 378,-800 378,-806 378,-806 378,-826 378,-826 378,-832 372,-838 366,-838"/>
<text text-anchor="middle" x="273" y="-819.4" font-family="Noto Sans CJK SC" font-size="12.00">解析裸指针 → aigc::Memory*</text>
<text text-anchor="middle" x="273" y="-806.4" font-family="Noto Sans CJK SC" font-size="12.00">getMemoryObject(src/dst, offset)</text>
</g>
<!-- chk&#45;&gt;parse -->
<g id="edge3" class="edge">
<title>chk&#45;&gt;parse</title>
<path fill="none" stroke="#4c566a" d="M273,-870.81C273,-863.12 273,-853.84 273,-845.18"/>
<polygon fill="#4c566a" stroke="#4c566a" points="275.45,-845.09 273,-838.09 270.55,-845.09 275.45,-845.09"/>
</g>
<!-- kind -->
<g id="node5" class="node">
<title>kind</title>
<path fill="#eceff4" stroke="#3b4252" stroke-width="1.2" d="M337.5,-761C337.5,-761 208.5,-761 208.5,-761 202.5,-761 196.5,-755 196.5,-749 196.5,-749 196.5,-729 196.5,-729 196.5,-723 202.5,-717 208.5,-717 208.5,-717 337.5,-717 337.5,-717 343.5,-717 349.5,-723 349.5,-729 349.5,-729 349.5,-749 349.5,-749 349.5,-755 343.5,-761 337.5,-761"/>
<text text-anchor="middle" x="273" y="-742.4" font-family="Noto Sans CJK SC" font-size="12.00">重判真实方向</text>
<text text-anchor="middle" x="273" y="-729.4" font-family="Noto Sans CJK SC" font-size="12.00">getActualKind(dst, src)</text>
</g>
<!-- parse&#45;&gt;kind -->
<g id="edge4" class="edge">
<title>parse&#45;&gt;kind</title>
<path fill="none" stroke="#4c566a" d="M273,-793.71C273,-785.8 273,-776.71 273,-768.28"/>
<polygon fill="#4c566a" stroke="#4c566a" points="275.45,-768.08 273,-761.09 270.55,-768.09 275.45,-768.08"/>
</g>
<!-- pin -->
<g id="node6" class="node">
<title>pin</title>
<path fill="#eceff4" stroke="#3b4252" stroke-width="1.2" d="M365.5,-667.5C365.5,-667.5 126.5,-667.5 126.5,-667.5 120.5,-667.5 114.5,-661.5 114.5,-655.5 114.5,-655.5 114.5,-635.5 114.5,-635.5 114.5,-629.5 120.5,-623.5 126.5,-623.5 126.5,-623.5 365.5,-623.5 365.5,-623.5 371.5,-623.5 377.5,-629.5 377.5,-635.5 377.5,-635.5 377.5,-655.5 377.5,-655.5 377.5,-661.5 371.5,-667.5 365.5,-667.5"/>
<text text-anchor="middle" x="246" y="-648.9" font-family="Noto Sans CJK SC" font-size="12.00">host 非锁页时注册临时锁页内存</text>
<text text-anchor="middle" x="246" y="-635.9" font-family="Noto Sans CJK SC" font-size="12.00">registerTempPinnedMemory（DMA 要求）</text>
</g>
<!-- kind&#45;&gt;pin -->
<g id="edge6" class="edge">
<title>kind&#45;&gt;pin</title>
<path fill="none" stroke="#4c566a" d="M266.74,-716.78C263.02,-704.19 258.27,-688.09 254.25,-674.47"/>
<polygon fill="#4c566a" stroke="#4c566a" points="256.56,-673.63 252.23,-667.61 251.86,-675.01 256.56,-673.63"/>
<text text-anchor="middle" x="285" y="-693" font-family="Noto Sans CJK SC" font-size="10.00">H2D / D2H</text>
</g>
<!-- h2h -->
<g id="node8" class="node">
<title>h2h</title>
<path fill="#fff0d6" stroke="#d08770" stroke-width="1.2" d="M580.5,-674C580.5,-674 421.5,-674 421.5,-674 415.5,-674 409.5,-668 409.5,-662 409.5,-662 409.5,-629 409.5,-629 409.5,-623 415.5,-617 421.5,-617 421.5,-617 580.5,-617 580.5,-617 586.5,-617 592.5,-623 592.5,-629 592.5,-629 592.5,-662 592.5,-662 592.5,-668 586.5,-674 580.5,-674"/>
<text text-anchor="middle" x="501" y="-655.4" font-family="Noto Sans CJK SC" font-size="12.00">捷径：Host→Host</text>
<text text-anchor="middle" x="501" y="-642.4" font-family="Noto Sans CJK SC" font-size="12.00">stream.finish() + 裸 memcpy</text>
<text text-anchor="middle" x="501" y="-629.4" font-family="Noto Sans CJK SC" font-size="12.00">直接返回，不造命令</text>
</g>
<!-- kind&#45;&gt;h2h -->
<g id="edge5" class="edge">
<title>kind&#45;&gt;h2h</title>
<path fill="none" stroke="#d08770" d="M325.59,-716.89C355.18,-705.02 392.64,-689.99 425.34,-676.87"/>
<polygon fill="#d08770" stroke="#d08770" points="426.65,-678.98 432.24,-674.1 424.83,-674.43 426.65,-678.98"/>
<text text-anchor="middle" x="413" y="-693" font-family="Noto Sans CJK SC" font-size="10.00" fill="#bf616a">实际是 H2H</text>
</g>
<!-- fill -->
<g id="node7" class="node">
<title>fill</title>
<path fill="#eceff4" stroke="#3b4252" stroke-width="1.2" d="M369.5,-584C369.5,-584 122.5,-584 122.5,-584 116.5,-584 110.5,-578 110.5,-572 110.5,-572 110.5,-552 110.5,-552 110.5,-546 116.5,-540 122.5,-540 122.5,-540 369.5,-540 369.5,-540 375.5,-540 381.5,-546 381.5,-552 381.5,-552 381.5,-572 381.5,-572 381.5,-578 375.5,-584 369.5,-584"/>
<text text-anchor="middle" x="246" y="-565.4" font-family="Noto Sans CJK SC" font-size="12.00">填 CopyCmdParams</text>
<text text-anchor="middle" x="246" y="-552.4" font-family="Noto Sans CJK SC" font-size="12.00">{sync, off, size, src/dstMemory, kind, stream}</text>
</g>
<!-- pin&#45;&gt;fill -->
<g id="edge7" class="edge">
<title>pin&#45;&gt;fill</title>
<path fill="none" stroke="#4c566a" d="M246,-623.09C246,-613.45 246,-601.93 246,-591.57"/>
<polygon fill="#4c566a" stroke="#4c566a" points="248.45,-591.27 246,-584.27 243.55,-591.27 248.45,-591.27"/>
</g>
<!-- strat -->
<g id="node9" class="node">
<title>strat</title>
<path fill="#e8f0e6" stroke="#3b4252" stroke-width="1.2" d="M354,-486C354,-486 138,-486 138,-486 132,-486 126,-480 126,-474 126,-474 126,-441 126,-441 126,-435 132,-429 138,-429 138,-429 354,-429 354,-429 360,-429 366,-435 366,-441 366,-441 366,-474 366,-474 366,-480 360,-486 354,-486"/>
<text text-anchor="middle" x="246" y="-467.4" font-family="Noto Sans CJK SC" font-size="12.00">getCopyStrategy(params)</text>
<text text-anchor="middle" x="246" y="-454.4" font-family="Noto Sans CJK SC" font-size="12.00">选 SDMA / TMA / HostStage / WaitHost</text>
<text text-anchor="middle" x="246" y="-441.4" font-family="Noto Sans CJK SC" font-size="12.00">（决策树见图 m2）</text>
</g>
<!-- fill&#45;&gt;strat -->
<g id="edge8" class="edge">
<title>fill&#45;&gt;strat</title>
<path fill="none" stroke="#4c566a" d="M246,-539.76C246,-526.46 246,-508.99 246,-493.66"/>
<polygon fill="#4c566a" stroke="#4c566a" points="248.45,-493.33 246,-486.33 243.55,-493.33 248.45,-493.33"/>
</g>
<!-- newcmd -->
<g id="node10" class="node">
<title>newcmd</title>
<path fill="#d8ead0" stroke="#a3be8c" stroke-width="1.2" d="M463.5,-396C463.5,-396 28.5,-396 28.5,-396 22.5,-396 16.5,-390 16.5,-384 16.5,-384 16.5,-338 16.5,-338 16.5,-332 22.5,-326 28.5,-326 28.5,-326 463.5,-326 463.5,-326 469.5,-326 475.5,-332 475.5,-338 475.5,-338 475.5,-384 475.5,-384 475.5,-390 469.5,-396 463.5,-396"/>
<text text-anchor="middle" x="246" y="-377.4" font-family="Noto Sans CJK SC" font-size="12.00">new DMACopyCommand(...)（堆对象）</text>
<text text-anchor="middle" x="246" y="-364.4" font-family="Noto Sans CJK SC" font-size="12.00">记 {dst/srcMemory, off, size, sync}</text>
<text text-anchor="middle" x="246" y="-351.4" font-family="Noto Sans CJK SC" font-size="12.00">继承链 DMACopyCommand→TwoMemoryArgsCommand→Command→Event</text>
<text text-anchor="middle" x="246" y="-338.4" font-family="Noto Sans CJK SC" font-size="12.00">src/platform/command.hpp:659</text>
</g>
<!-- strat&#45;&gt;newcmd -->
<g id="edge9" class="edge">
<title>strat&#45;&gt;newcmd</title>
<path fill="none" stroke="#4c566a" d="M246,-428.91C246,-420.91 246,-411.99 246,-403.34"/>
<polygon fill="#4c566a" stroke="#4c566a" points="248.45,-403.17 246,-396.17 243.55,-403.17 248.45,-403.17"/>
</g>
<!-- enq -->
<g id="node11" class="node">
<title>enq</title>
<path fill="#eceff4" stroke="#3b4252" stroke-width="1.2" d="M360.5,-293C360.5,-293 131.5,-293 131.5,-293 125.5,-293 119.5,-287 119.5,-281 119.5,-281 119.5,-261 119.5,-261 119.5,-255 125.5,-249 131.5,-249 131.5,-249 360.5,-249 360.5,-249 366.5,-249 372.5,-255 372.5,-261 372.5,-261 372.5,-281 372.5,-281 372.5,-287 366.5,-293 360.5,-293"/>
<text text-anchor="middle" x="246" y="-274.4" font-family="Noto Sans CJK SC" font-size="12.00">⑤ command&#45;&gt;enqueue() &#160;进 host queue</text>
<text text-anchor="middle" x="246" y="-261.4" font-family="Noto Sans CJK SC" font-size="12.00">src/platform/command.cpp</text>
</g>
<!-- newcmd&#45;&gt;enq -->
<g id="edge10" class="edge">
<title>newcmd&#45;&gt;enq</title>
<path fill="none" stroke="#4c566a" d="M246,-325.98C246,-317.53 246,-308.57 246,-300.43"/>
<polygon fill="#4c566a" stroke="#4c566a" points="248.45,-300.22 246,-293.22 243.55,-300.22 248.45,-300.22"/>
</g>
<!-- sub -->
<g id="node12" class="node">
<title>sub</title>
<path fill="#e5e9f0" stroke="#5e81ac" stroke-width="1.2" d="M387,-216C387,-216 105,-216 105,-216 99,-216 93,-210 93,-204 93,-204 93,-158 93,-158 93,-152 99,-146 105,-146 105,-146 387,-146 387,-146 393,-146 399,-152 399,-158 399,-158 399,-204 399,-204 399,-210 393,-216 387,-216"/>
<text text-anchor="middle" x="246" y="-197.4" font-family="Noto Sans CJK SC" font-size="12.00">⑥ DIRECT_DISPATCH：当场 submit</text>
<text text-anchor="middle" x="246" y="-184.4" font-family="Noto Sans CJK SC" font-size="12.00">DMACopyCommand::submit() →</text>
<text text-anchor="middle" x="246" y="-171.4" font-family="Noto Sans CJK SC" font-size="12.00">VirtualGPU::submitDMACopy()（编程 SDMA 引擎）</text>
<text text-anchor="middle" x="246" y="-158.4" font-family="Noto Sans CJK SC" font-size="12.00">src/device/grace/gracevirtualgpu.cpp:1430</text>
</g>
<!-- enq&#45;&gt;sub -->
<g id="edge11" class="edge">
<title>enq&#45;&gt;sub</title>
<path fill="none" stroke="#4c566a" d="M246,-248.7C246,-240.99 246,-232.01 246,-223.17"/>
<polygon fill="#4c566a" stroke="#4c566a" points="248.45,-223.15 246,-216.15 243.55,-223.15 248.45,-223.15"/>
</g>
<!-- wait -->
<g id="node13" class="node">
<title>wait</title>
<path fill="#eceff4" stroke="#3b4252" stroke-width="1.2" d="M390,-113C390,-113 102,-113 102,-113 96,-113 90,-107 90,-101 90,-101 90,-89 90,-89 90,-83 96,-77 102,-77 102,-77 390,-77 390,-77 396,-77 402,-83 402,-89 402,-89 402,-101 402,-101 402,-107 396,-113 390,-113"/>
<text text-anchor="middle" x="246" y="-91.9" font-family="Noto Sans CJK SC" font-size="12.00">⑦ sync? command&#45;&gt;awaitCompletion() 阻塞等完成</text>
</g>
<!-- sub&#45;&gt;wait -->
<g id="edge12" class="edge">
<title>sub&#45;&gt;wait</title>
<path fill="none" stroke="#4c566a" d="M246,-145.83C246,-137.21 246,-128.13 246,-120.11"/>
<polygon fill="#4c566a" stroke="#4c566a" points="248.45,-120.1 246,-113.1 243.55,-120.1 248.45,-120.1"/>
</g>
<!-- rel -->
<g id="node14" class="node">
<title>rel</title>
<path fill="#e5e9f0" stroke="#3b4252" stroke-width="1.2" d="M367.5,-44C367.5,-44 124.5,-44 124.5,-44 118.5,-44 112.5,-38 112.5,-32 112.5,-32 112.5,-12 112.5,-12 112.5,-6 118.5,0 124.5,0 124.5,0 367.5,0 367.5,0 373.5,0 379.5,-6 379.5,-12 379.5,-12 379.5,-32 379.5,-32 379.5,-38 373.5,-44 367.5,-44"/>
<text text-anchor="middle" x="246" y="-25.4" font-family="Noto Sans CJK SC" font-size="12.00">⑧ command&#45;&gt;release() + 释放临时锁页内存</text>
<text text-anchor="middle" x="246" y="-12.4" font-family="Noto Sans CJK SC" font-size="12.00">返回 aicaSuccess</text>
</g>
<!-- wait&#45;&gt;rel -->
<g id="edge13" class="edge">
<title>wait&#45;&gt;rel</title>
<path fill="none" stroke="#4c566a" d="M246,-76.81C246,-69.12 246,-59.84 246,-51.18"/>
<polygon fill="#4c566a" stroke="#4c566a" points="248.45,-51.09 246,-44.09 243.55,-51.09 248.45,-51.09"/>
</g>
</g>
</svg>
