<?xml version="1.0" encoding="UTF-8" standalone="no"?>
<!DOCTYPE svg PUBLIC "-//W3C//DTD SVG 1.1//EN"
 "http://www.w3.org/Graphics/SVG/1.1/DTD/svg11.dtd">
<!-- Generated by graphviz version 2.43.0 (0)
 -->
<!-- Title: copy_strategy Pages: 1 -->
<svg width="1117pt" height="579pt"
 viewBox="0.00 0.00 1116.50 579.00" xmlns="http://www.w3.org/2000/svg" xmlns:xlink="http://www.w3.org/1999/xlink">
<g id="graph0" class="graph" transform="scale(1 1) rotate(0) translate(4 575)">
<title>copy_strategy</title>
<polygon fill="white" stroke="transparent" points="-4,4 -4,-575 1112.5,-575 1112.5,4 -4,4"/>
<!-- start -->
<g id="node1" class="node">
<title>start</title>
<polygon fill="#e5e9f0" stroke="#3b4252" stroke-width="1.2" points="581.5,-571 410.5,-571 410.5,-527 581.5,-527 581.5,-571"/>
<text text-anchor="middle" x="496" y="-552.4" font-family="Noto Sans CJK SC" font-size="12.00">getCopyStrategy(params)</text>
<text text-anchor="middle" x="496" y="-539.4" font-family="Noto Sans CJK SC" font-size="12.00">src/aica_memory.cpp:229</text>
</g>
<!-- kind -->
<g id="node2" class="node">
<title>kind</title>
<path fill="#eceff4" stroke="#3b4252" stroke-width="1.2" d="M484.14,-488.14C484.14,-488.14 393.02,-473.86 393.02,-473.86 387.1,-472.93 387.1,-471.07 393.02,-470.14 393.02,-470.14 484.14,-455.86 484.14,-455.86 490.07,-454.93 501.93,-454.93 507.86,-455.86 507.86,-455.86 598.98,-470.14 598.98,-470.14 604.9,-471.07 604.9,-472.93 598.98,-473.86 598.98,-473.86 507.86,-488.14 507.86,-488.14 501.93,-489.07 490.07,-489.07 484.14,-488.14"/>
<text text-anchor="middle" x="496" y="-468.9" font-family="Noto Sans CJK SC" font-size="12.00">判断 kind（实际方向）</text>
</g>
<!-- start&#45;&gt;kind -->
<g id="edge1" class="edge">
<title>start&#45;&gt;kind</title>
<path fill="none" stroke="#4c566a" d="M496,-526.71C496,-517.55 496,-506.8 496,-497.32"/>
<polygon fill="#4c566a" stroke="#4c566a" points="498.45,-497.06 496,-490.06 493.55,-497.06 498.45,-497.06"/>
</g>
<!-- d2d -->
<g id="node3" class="node">
<title>d2d</title>
<path fill="#eceff4" stroke="#3b4252" stroke-width="1.2" d="M429.5,-407C429.5,-407 286.5,-407 286.5,-407 280.5,-407 274.5,-401 274.5,-395 274.5,-395 274.5,-362 274.5,-362 274.5,-356 280.5,-350 286.5,-350 286.5,-350 429.5,-350 429.5,-350 435.5,-350 441.5,-356 441.5,-362 441.5,-362 441.5,-395 441.5,-395 441.5,-401 435.5,-407 429.5,-407"/>
<text text-anchor="middle" x="358" y="-388.4" font-family="Noto Sans CJK SC" font-size="12.00">D2D</text>
<text text-anchor="middle" x="358" y="-375.4" font-family="Noto Sans CJK SC" font-size="12.00">cmdType=COPY_BUFFER</text>
<text text-anchor="middle" x="358" y="-362.4" font-family="Noto Sans CJK SC" font-size="12.00">sync=false（默认异步）</text>
</g>
<!-- kind&#45;&gt;d2d -->
<g id="edge2" class="edge">
<title>kind&#45;&gt;d2d</title>
<path fill="none" stroke="#4c566a" d="M475.04,-457.1C456.62,-444.89 429.13,-426.66 405.42,-410.94"/>
<polygon fill="#4c566a" stroke="#4c566a" points="406.67,-408.83 399.48,-407.01 403.97,-412.92 406.67,-408.83"/>
<text text-anchor="middle" x="449.5" y="-428" font-family="Noto Sans CJK SC" font-size="10.00">D2D</text>
</g>
<!-- hd -->
<g id="node4" class="node">
<title>hd</title>
<path fill="#eceff4" stroke="#3b4252" stroke-width="1.2" d="M796.5,-407C796.5,-407 491.5,-407 491.5,-407 485.5,-407 479.5,-401 479.5,-395 479.5,-395 479.5,-362 479.5,-362 479.5,-356 485.5,-350 491.5,-350 491.5,-350 796.5,-350 796.5,-350 802.5,-350 808.5,-356 808.5,-362 808.5,-362 808.5,-395 808.5,-395 808.5,-401 802.5,-407 796.5,-407"/>
<text text-anchor="middle" x="644" y="-388.4" font-family="Noto Sans CJK SC" font-size="12.00">H2D / D2H</text>
<text text-anchor="middle" x="644" y="-375.4" font-family="Noto Sans CJK SC" font-size="12.00">H2D: cmdType=WRITE_BUFFER, devMemDeviceId=dst</text>
<text text-anchor="middle" x="644" y="-362.4" font-family="Noto Sans CJK SC" font-size="12.00">D2H: cmdType=READ_BUFFER, &#160;devMemDeviceId=src</text>
</g>
<!-- kind&#45;&gt;hd -->
<g id="edge3" class="edge">
<title>kind&#45;&gt;hd</title>
<path fill="none" stroke="#4c566a" d="M518.16,-457.3C537.94,-445.07 567.66,-426.7 593.25,-410.88"/>
<polygon fill="#4c566a" stroke="#4c566a" points="594.65,-412.89 599.32,-407.13 592.07,-408.72 594.65,-412.89"/>
<text text-anchor="middle" x="594" y="-428" font-family="Noto Sans CJK SC" font-size="10.00">H2D / D2H</text>
</g>
<!-- sameD -->
<g id="node6" class="node">
<title>sameD</title>
<path fill="#eceff4" stroke="#3b4252" stroke-width="1.2" d="M292.55,-296.4C292.55,-296.4 207.45,-269.6 207.45,-269.6 201.72,-267.8 201.72,-264.2 207.45,-262.4 207.45,-262.4 292.55,-235.6 292.55,-235.6 298.28,-233.8 309.72,-233.8 315.45,-235.6 315.45,-235.6 400.55,-262.4 400.55,-262.4 406.28,-264.2 406.28,-267.8 400.55,-269.6 400.55,-269.6 315.45,-296.4 315.45,-296.4 309.72,-298.2 298.28,-298.2 292.55,-296.4"/>
<text text-anchor="middle" x="304" y="-269.4" font-family="Noto Sans CJK SC" font-size="12.00">同设备？</text>
<text text-anchor="middle" x="304" y="-256.4" font-family="Noto Sans CJK SC" font-size="12.00">src==dst==stream</text>
</g>
<!-- d2d&#45;&gt;sameD -->
<g id="edge9" class="edge">
<title>d2d&#45;&gt;sameD</title>
<path fill="none" stroke="#4c566a" d="M344.51,-349.9C337.46,-335.47 328.75,-317.65 321.22,-302.23"/>
<polygon fill="#4c566a" stroke="#4c566a" points="323.34,-301 318.07,-295.79 318.94,-303.15 323.34,-301"/>
</g>
<!-- same -->
<g id="node5" class="node">
<title>same</title>
<path fill="#eceff4" stroke="#3b4252" stroke-width="1.2" d="M642.28,-310.41C642.28,-310.41 452.72,-268.59 452.72,-268.59 446.86,-267.29 446.86,-264.71 452.72,-263.41 452.72,-263.41 642.28,-221.59 642.28,-221.59 648.14,-220.29 659.86,-220.29 665.72,-221.59 665.72,-221.59 855.28,-263.41 855.28,-263.41 861.14,-264.71 861.14,-267.29 855.28,-268.59 855.28,-268.59 665.72,-310.41 665.72,-310.41 659.86,-311.71 648.14,-311.71 642.28,-310.41"/>
<text text-anchor="middle" x="654" y="-275.9" font-family="Noto Sans CJK SC" font-size="12.00">设备内存与流同设备？</text>
<text text-anchor="middle" x="654" y="-262.9" font-family="Noto Sans CJK SC" font-size="12.00">(devMemDeviceId==streamDeviceId)</text>
<text text-anchor="middle" x="654" y="-249.9" font-family="Noto Sans CJK SC" font-size="12.00">|| AICA_CROSS_DIE_SDMA_ACCESS</text>
</g>
<!-- hd&#45;&gt;same -->
<g id="edge4" class="edge">
<title>hd&#45;&gt;same</title>
<path fill="none" stroke="#4c566a" d="M646.5,-349.9C647.33,-340.66 648.3,-330.02 649.25,-319.51"/>
<polygon fill="#4c566a" stroke="#4c566a" points="651.71,-319.47 649.9,-312.28 646.83,-319.03 651.71,-319.47"/>
</g>
<!-- bothD -->
<g id="node8" class="node">
<title>bothD</title>
<path fill="#eceff4" stroke="#3b4252" stroke-width="1.2" d="M816.23,-169.67C816.23,-169.67 667.77,-140.33 667.77,-140.33 661.89,-139.16 661.89,-136.84 667.77,-135.67 667.77,-135.67 816.23,-106.33 816.23,-106.33 822.11,-105.16 833.89,-105.16 839.77,-106.33 839.77,-106.33 988.23,-135.67 988.23,-135.67 994.11,-136.84 994.11,-139.16 988.23,-140.33 988.23,-140.33 839.77,-169.67 839.77,-169.67 833.89,-170.84 822.11,-170.84 816.23,-169.67"/>
<text text-anchor="middle" x="828" y="-141.4" font-family="Noto Sans CJK SC" font-size="12.00">流能访问两端？</text>
<text text-anchor="middle" x="828" y="-128.4" font-family="Noto Sans CJK SC" font-size="12.00">&amp;&amp; AICA_COPY_PREFER_TMA</text>
</g>
<!-- same&#45;&gt;bothD -->
<g id="edge6" class="edge">
<title>same&#45;&gt;bothD</title>
<path fill="none" stroke="#4c566a" d="M702.93,-229.57C729.17,-210.56 761.17,-187.39 786.23,-169.24"/>
<polygon fill="#4c566a" stroke="#4c566a" points="787.89,-171.07 792.12,-164.98 785.01,-167.1 787.89,-171.07"/>
<text text-anchor="middle" x="785.5" y="-193" font-family="Noto Sans CJK SC" font-size="10.00">否（跨设备）</text>
</g>
<!-- sdma -->
<g id="node9" class="node">
<title>sdma</title>
<path fill="#d8ead0" stroke="#a3be8c" stroke-width="1.2" d="M626.5,-57C626.5,-57 475.5,-57 475.5,-57 469.5,-57 463.5,-51 463.5,-45 463.5,-45 463.5,-12 463.5,-12 463.5,-6 469.5,0 475.5,0 475.5,0 626.5,0 626.5,0 632.5,0 638.5,-6 638.5,-12 638.5,-12 638.5,-45 638.5,-45 638.5,-51 632.5,-57 626.5,-57"/>
<text text-anchor="middle" x="551" y="-38.4" font-family="Noto Sans CJK SC" font-size="12.00">SDMA（最常见）</text>
<text text-anchor="middle" x="551" y="-25.4" font-family="Noto Sans CJK SC" font-size="12.00">createDMACopyCommand</text>
<text text-anchor="middle" x="551" y="-12.4" font-family="Noto Sans CJK SC" font-size="12.00">→ DMACopyCommand</text>
</g>
<!-- same&#45;&gt;sdma -->
<g id="edge5" class="edge">
<title>same&#45;&gt;sdma</title>
<path fill="none" stroke="#4c566a" d="M622.52,-225.58C611,-209.66 598.67,-190.66 590,-172 573.76,-137.05 563.15,-94.03 557.15,-64.46"/>
<polygon fill="#4c566a" stroke="#4c566a" points="559.49,-63.64 555.73,-57.24 554.68,-64.59 559.49,-63.64"/>
<text text-anchor="middle" x="616" y="-135.5" font-family="Noto Sans CJK SC" font-size="10.00">是 → SDMA</text>
</g>
<!-- both -->
<g id="node7" class="node">
<title>both</title>
<path fill="#eceff4" stroke="#3b4252" stroke-width="1.2" d="M259.48,-168.65C259.48,-168.65 165.52,-141.35 165.52,-141.35 159.76,-139.67 159.76,-136.33 165.52,-134.65 165.52,-134.65 259.48,-107.35 259.48,-107.35 265.24,-105.67 276.76,-105.67 282.52,-107.35 282.52,-107.35 376.48,-134.65 376.48,-134.65 382.24,-136.33 382.24,-139.67 376.48,-141.35 376.48,-141.35 282.52,-168.65 282.52,-168.65 276.76,-170.33 265.24,-170.33 259.48,-168.65"/>
<text text-anchor="middle" x="271" y="-141.4" font-family="Noto Sans CJK SC" font-size="12.00">流能访问两端内存？</text>
<text text-anchor="middle" x="271" y="-128.4" font-family="Noto Sans CJK SC" font-size="12.00">streamAccessBoth</text>
</g>
<!-- sameD&#45;&gt;both -->
<g id="edge11" class="edge">
<title>sameD&#45;&gt;both</title>
<path fill="none" stroke="#4c566a" d="M296.01,-234.5C291.5,-217.27 285.82,-195.57 281.01,-177.21"/>
<polygon fill="#4c566a" stroke="#4c566a" points="283.29,-176.25 279.14,-170.1 278.55,-177.49 283.29,-176.25"/>
<text text-anchor="middle" x="302" y="-193" font-family="Noto Sans CJK SC" font-size="10.00">跨设备</text>
</g>
<!-- sameD&#45;&gt;sdma -->
<g id="edge10" class="edge">
<title>sameD&#45;&gt;sdma</title>
<path fill="none" stroke="#4c566a" d="M330.23,-240.16C349.98,-221.44 377.71,-195.14 402,-172 441.57,-134.31 486.93,-90.89 517.11,-61.98"/>
<polygon fill="#4c566a" stroke="#4c566a" points="518.83,-63.73 522.19,-57.12 515.44,-60.19 518.83,-63.73"/>
<text text-anchor="middle" x="508.5" y="-135.5" font-family="Noto Sans CJK SC" font-size="10.00">同设备 → SDMA</text>
</g>
<!-- tma2 -->
<g id="node11" class="node">
<title>tma2</title>
<path fill="#e3effb" stroke="#81a1c1" stroke-width="1.2" d="M162,-50.5C162,-50.5 12,-50.5 12,-50.5 6,-50.5 0,-44.5 0,-38.5 0,-38.5 0,-18.5 0,-18.5 0,-12.5 6,-6.5 12,-6.5 12,-6.5 162,-6.5 162,-6.5 168,-6.5 174,-12.5 174,-18.5 174,-18.5 174,-38.5 174,-38.5 174,-44.5 168,-50.5 162,-50.5"/>
<text text-anchor="middle" x="87" y="-31.9" font-family="Noto Sans CJK SC" font-size="12.00">CrossDev_TMA</text>
<text text-anchor="middle" x="87" y="-18.9" font-family="Noto Sans CJK SC" font-size="12.00">createTMACopyCommand</text>
</g>
<!-- both&#45;&gt;tma2 -->
<g id="edge12" class="edge">
<title>both&#45;&gt;tma2</title>
<path fill="none" stroke="#4c566a" d="M232.88,-114.73C202.68,-97.08 160.52,-72.46 129.29,-54.21"/>
<polygon fill="#4c566a" stroke="#4c566a" points="130.48,-52.06 123.2,-50.65 128.01,-56.29 130.48,-52.06"/>
<text text-anchor="middle" x="201.5" y="-78" font-family="Noto Sans CJK SC" font-size="10.00">能 → TMA</text>
</g>
<!-- hstg -->
<g id="node12" class="node">
<title>hstg</title>
<path fill="#fdeee0" stroke="#d08770" stroke-width="1.2" d="M398.5,-57C398.5,-57 215.5,-57 215.5,-57 209.5,-57 203.5,-51 203.5,-45 203.5,-45 203.5,-12 203.5,-12 203.5,-6 209.5,0 215.5,0 215.5,0 398.5,0 398.5,0 404.5,0 410.5,-6 410.5,-12 410.5,-12 410.5,-45 410.5,-45 410.5,-51 404.5,-57 398.5,-57"/>
<text text-anchor="middle" x="307" y="-38.4" font-family="Noto Sans CJK SC" font-size="12.00">CrossDev_HostStage</text>
<text text-anchor="middle" x="307" y="-25.4" font-family="Noto Sans CJK SC" font-size="12.00">createHostStageCopyCommand</text>
<text text-anchor="middle" x="307" y="-12.4" font-family="Noto Sans CJK SC" font-size="12.00">（host 中转）</text>
</g>
<!-- both&#45;&gt;hstg -->
<g id="edge13" class="edge">
<title>both&#45;&gt;hstg</title>
<path fill="none" stroke="#4c566a" d="M281.12,-106.77C285.55,-93.55 290.77,-77.96 295.36,-64.26"/>
<polygon fill="#4c566a" stroke="#4c566a" points="297.79,-64.71 297.69,-57.3 293.15,-63.16 297.79,-64.71"/>
<text text-anchor="middle" x="333" y="-78" font-family="Noto Sans CJK SC" font-size="10.00">不能 → HostStage</text>
</g>
<!-- tma1 -->
<g id="node10" class="node">
<title>tma1</title>
<path fill="#e3effb" stroke="#81a1c1" stroke-width="1.2" d="M866,-50.5C866,-50.5 716,-50.5 716,-50.5 710,-50.5 704,-44.5 704,-38.5 704,-38.5 704,-18.5 704,-18.5 704,-12.5 710,-6.5 716,-6.5 716,-6.5 866,-6.5 866,-6.5 872,-6.5 878,-12.5 878,-18.5 878,-18.5 878,-38.5 878,-38.5 878,-44.5 872,-50.5 866,-50.5"/>
<text text-anchor="middle" x="791" y="-31.9" font-family="Noto Sans CJK SC" font-size="12.00">CrossDev_TMA</text>
<text text-anchor="middle" x="791" y="-18.9" font-family="Noto Sans CJK SC" font-size="12.00">createTMACopyCommand</text>
</g>
<!-- bothD&#45;&gt;tma1 -->
<g id="edge7" class="edge">
<title>bothD&#45;&gt;tma1</title>
<path fill="none" stroke="#4c566a" d="M817.3,-105.91C812.05,-90.67 805.78,-72.45 800.68,-57.63"/>
<polygon fill="#4c566a" stroke="#4c566a" points="802.88,-56.47 798.28,-50.65 798.24,-58.07 802.88,-56.47"/>
<text text-anchor="middle" x="831.5" y="-78" font-family="Noto Sans CJK SC" font-size="10.00">是 → TMA</text>
</g>
<!-- whost -->
<g id="node13" class="node">
<title>whost</title>
<path fill="#fdeee0" stroke="#d08770" stroke-width="1.2" d="M1096.5,-57C1096.5,-57 919.5,-57 919.5,-57 913.5,-57 907.5,-51 907.5,-45 907.5,-45 907.5,-12 907.5,-12 907.5,-6 913.5,0 919.5,0 919.5,0 1096.5,0 1096.5,0 1102.5,0 1108.5,-6 1108.5,-12 1108.5,-12 1108.5,-45 1108.5,-45 1108.5,-51 1102.5,-57 1096.5,-57"/>
<text text-anchor="middle" x="1008" y="-38.4" font-family="Noto Sans CJK SC" font-size="12.00">CrossDev_WaitHost</text>
<text text-anchor="middle" x="1008" y="-25.4" font-family="Noto Sans CJK SC" font-size="12.00">createWaitHostCopyCommand</text>
<text text-anchor="middle" x="1008" y="-12.4" font-family="Noto Sans CJK SC" font-size="12.00">（wait host）</text>
</g>
<!-- bothD&#45;&gt;whost -->
<g id="edge8" class="edge">
<title>bothD&#45;&gt;whost</title>
<path fill="none" stroke="#4c566a" d="M869.75,-112.07C895.33,-96.79 928.31,-77.09 955.64,-60.77"/>
<polygon fill="#4c566a" stroke="#4c566a" points="956.98,-62.82 961.73,-57.13 954.47,-58.62 956.98,-62.82"/>
<text text-anchor="middle" x="961.5" y="-78" font-family="Noto Sans CJK SC" font-size="10.00">否 → WaitHost</text>
</g>
</g>
</svg>
