<?xml version="1.0" encoding="UTF-8" standalone="no"?>
<!DOCTYPE svg PUBLIC "-//W3C//DTD SVG 1.1//EN"
 "http://www.w3.org/Graphics/SVG/1.1/DTD/svg11.dtd">
<!-- Generated by graphviz version 2.43.0 (0)
 -->
<!-- Title: stack Pages: 1 -->
<svg width="499pt" height="654pt"
 viewBox="0.00 0.00 499.00 654.00" xmlns="http://www.w3.org/2000/svg" xmlns:xlink="http://www.w3.org/1999/xlink">
<g id="graph0" class="graph" transform="scale(1 1) rotate(0) translate(4 650)">
<title>stack</title>
<polygon fill="white" stroke="transparent" points="-4,4 -4,-650 495,-650 495,4 -4,4"/>
<g id="clust1" class="cluster">
<title>cluster_umd</title>
<path fill="#f7f9fc" stroke="#81a1c1" d="M20,-260C20,-260 444,-260 444,-260 450,-260 456,-266 456,-272 456,-272 456,-565 456,-565 456,-571 450,-577 444,-577 444,-577 20,-577 20,-577 14,-577 8,-571 8,-565 8,-565 8,-272 8,-272 8,-266 14,-260 20,-260"/>
<text text-anchor="middle" x="232" y="-562.6" font-family="Noto Sans CJK SC" font-size="13.00">libaicart.so（用户态运行时 / CLR）</text>
</g>
<!-- app -->
<g id="node1" class="node">
<title>app</title>
<path fill="#e5e9f0" stroke="#3b4252" stroke-width="1.1" d="M281.5,-646C281.5,-646 182.5,-646 182.5,-646 176.5,-646 170.5,-640 170.5,-634 170.5,-634 170.5,-616 170.5,-616 170.5,-610 176.5,-604 182.5,-604 182.5,-604 281.5,-604 281.5,-604 287.5,-604 293.5,-610 293.5,-616 293.5,-616 293.5,-634 293.5,-634 293.5,-640 287.5,-646 281.5,-646"/>
<text text-anchor="middle" x="232" y="-628.4" font-family="Noto Sans CJK SC" font-size="12.00">应用 / .cu</text>
<text text-anchor="middle" x="232" y="-615.4" font-family="Noto Sans CJK SC" font-size="12.00">(链接 libaicart.so)</text>
</g>
<!-- api -->
<g id="node2" class="node">
<title>api</title>
<path fill="#eceff4" stroke="#3b4252" stroke-width="1.1" d="M320.5,-547C320.5,-547 143.5,-547 143.5,-547 137.5,-547 131.5,-541 131.5,-535 131.5,-535 131.5,-517 131.5,-517 131.5,-511 137.5,-505 143.5,-505 143.5,-505 320.5,-505 320.5,-505 326.5,-505 332.5,-511 332.5,-517 332.5,-517 332.5,-535 332.5,-535 332.5,-541 326.5,-547 320.5,-547"/>
<text text-anchor="middle" x="232" y="-529.4" font-family="Noto Sans CJK SC" font-size="12.00">aica* 公开 API</text>
<text text-anchor="middle" x="232" y="-516.4" font-family="Noto Sans CJK SC" font-size="12.00">src/aica_*.cpp（类 CUDA/HIP）</text>
</g>
<!-- app&#45;&gt;api -->
<g id="edge4" class="edge">
<title>app&#45;&gt;api</title>
<path fill="none" stroke="#4c566a" d="M232,-603.9C232,-597.97 232,-591.17 232,-584.11"/>
<polygon fill="#4c566a" stroke="#4c566a" points="234.45,-584 232,-577 229.55,-584 234.45,-584"/>
</g>
<!-- plat -->
<g id="node3" class="node">
<title>plat</title>
<path fill="#eceff4" stroke="#3b4252" stroke-width="1.1" d="M436,-468C436,-468 28,-468 28,-468 22,-468 16,-462 16,-456 16,-456 16,-438 16,-438 16,-432 22,-426 28,-426 28,-426 436,-426 436,-426 442,-426 448,-432 448,-438 448,-438 448,-456 448,-456 448,-462 442,-468 436,-468"/>
<text text-anchor="middle" x="232" y="-450.4" font-family="Noto Sans CJK SC" font-size="12.00">aigc:: 平台层 &#160;src/platform/</text>
<text text-anchor="middle" x="232" y="-437.4" font-family="Noto Sans CJK SC" font-size="12.00">Command · Queue · Signal · Memory · Agent · Kernel · Program</text>
</g>
<!-- api&#45;&gt;plat -->
<g id="edge1" class="edge">
<title>api&#45;&gt;plat</title>
<path fill="none" stroke="#c8d0dc" d="M232,-504.77C232,-493.45 232,-479.39 232,-468.1"/>
</g>
<!-- devabs -->
<g id="node4" class="node">
<title>devabs</title>
<path fill="#eceff4" stroke="#3b4252" stroke-width="1.1" d="M358,-389C358,-389 106,-389 106,-389 100,-389 94,-383 94,-377 94,-377 94,-359 94,-359 94,-353 100,-347 106,-347 106,-347 358,-347 358,-347 364,-347 370,-353 370,-359 370,-359 370,-377 370,-377 370,-383 364,-389 358,-389"/>
<text text-anchor="middle" x="232" y="-371.4" font-family="Noto Sans CJK SC" font-size="12.00">device:: 抽象层 &#160;src/device/device.hpp</text>
<text text-anchor="middle" x="232" y="-358.4" font-family="Noto Sans CJK SC" font-size="12.00">VirtualDevice · Device · Kernel · Program</text>
</g>
<!-- plat&#45;&gt;devabs -->
<g id="edge2" class="edge">
<title>plat&#45;&gt;devabs</title>
<path fill="none" stroke="#c8d0dc" d="M232,-425.77C232,-414.45 232,-400.39 232,-389.1"/>
</g>
<!-- grace -->
<g id="node5" class="node">
<title>grace</title>
<path fill="#e8f0e6" stroke="#a3be8c" stroke-width="1.1" d="M353.5,-310C353.5,-310 110.5,-310 110.5,-310 104.5,-310 98.5,-304 98.5,-298 98.5,-298 98.5,-280 98.5,-280 98.5,-274 104.5,-268 110.5,-268 110.5,-268 353.5,-268 353.5,-268 359.5,-268 365.5,-274 365.5,-280 365.5,-280 365.5,-298 365.5,-298 365.5,-304 359.5,-310 353.5,-310"/>
<text text-anchor="middle" x="232" y="-292.4" font-family="Noto Sans CJK SC" font-size="12.00">grace:: 后端 &#160;src/device/grace/</text>
<text text-anchor="middle" x="232" y="-279.4" font-family="Noto Sans CJK SC" font-size="12.00">VirtualGPU（直发核心）· Device · Kernel</text>
</g>
<!-- devabs&#45;&gt;grace -->
<g id="edge3" class="edge">
<title>devabs&#45;&gt;grace</title>
<path fill="none" stroke="#c8d0dc" d="M232,-346.77C232,-335.45 232,-321.39 232,-310.1"/>
</g>
<!-- ring -->
<g id="node6" class="node">
<title>ring</title>
<path fill="#d8ead0" stroke="#a3be8c" stroke-width="1.1" d="M186.5,-214.5C186.5,-214.5 27.5,-214.5 27.5,-214.5 21.5,-214.5 15.5,-208.5 15.5,-202.5 15.5,-202.5 15.5,-184.5 15.5,-184.5 15.5,-178.5 21.5,-172.5 27.5,-172.5 27.5,-172.5 186.5,-172.5 186.5,-172.5 192.5,-172.5 198.5,-178.5 198.5,-184.5 198.5,-184.5 198.5,-202.5 198.5,-202.5 198.5,-208.5 192.5,-214.5 186.5,-214.5"/>
<text text-anchor="middle" x="107" y="-196.9" font-family="Noto Sans CJK SC" font-size="12.00">host ring buffer + doorbell</text>
<text text-anchor="middle" x="107" y="-183.9" font-family="Noto Sans CJK SC" font-size="12.00">(host 内存，CP 经 DMA 取包)</text>
</g>
<!-- grace&#45;&gt;ring -->
<g id="edge8" class="edge">
<title>grace&#45;&gt;ring</title>
<path fill="none" stroke="#a3be8c" stroke-width="1.6" d="M121.4,-267.82C113.99,-263.01 107.36,-257.15 102,-250 95.98,-241.96 95.66,-231.32 97.41,-221.5"/>
<polygon fill="#a3be8c" stroke="#a3be8c" stroke-width="1.6" points="99.83,-221.92 99,-214.55 95.05,-220.83 99.83,-221.92"/>
<text text-anchor="middle" x="213" y="-242" font-family="Noto Sans CJK SC" font-size="10.00" fill="#5e8050">kernel launch：sendPacket + 敲 doorbell(MMIO)</text>
</g>
<!-- thunk -->
<g id="node7" class="node">
<title>thunk</title>
<path fill="#e3effb" stroke="#81a1c1" stroke-width="1.1" d="M438.5,-221C438.5,-221 279.5,-221 279.5,-221 273.5,-221 267.5,-215 267.5,-209 267.5,-209 267.5,-178 267.5,-178 267.5,-172 273.5,-166 279.5,-166 279.5,-166 438.5,-166 438.5,-166 444.5,-166 450.5,-172 450.5,-178 450.5,-178 450.5,-209 450.5,-209 450.5,-215 444.5,-221 438.5,-221"/>
<text text-anchor="middle" x="359" y="-203.4" font-family="Noto Sans CJK SC" font-size="12.00">ajthunk thunk 层</text>
<text text-anchor="middle" x="359" y="-190.4" font-family="Noto Sans CJK SC" font-size="12.00">Thunk_*→ ioctl(/dev/aigcN)</text>
<text text-anchor="middle" x="359" y="-177.4" font-family="Noto Sans CJK SC" font-size="12.00">3rdparty/ajthunk（多闭源）</text>
</g>
<!-- grace&#45;&gt;thunk -->
<g id="edge5" class="edge">
<title>grace&#45;&gt;thunk</title>
<path fill="none" stroke="#5e81ac" d="M299.14,-267.8C309.13,-262.97 318.81,-257.1 327,-250 334.17,-243.79 340.11,-235.56 344.85,-227.34"/>
<polygon fill="#5e81ac" stroke="#5e81ac" points="347.05,-228.42 348.24,-221.1 342.74,-226.08 347.05,-228.42"/>
<text text-anchor="middle" x="414" y="-242" font-family="Noto Sans CJK SC" font-size="10.00" fill="#5e81ac">建立类：malloc / stream / context</text>
</g>
<!-- gpu -->
<g id="node9" class="node">
<title>gpu</title>
<path fill="#e5e9f0" stroke="#3b4252" stroke-width="1.1" d="M228.5,-36C228.5,-36 43.5,-36 43.5,-36 37.5,-36 31.5,-30 31.5,-24 31.5,-24 31.5,-12 31.5,-12 31.5,-6 37.5,0 43.5,0 43.5,0 228.5,0 228.5,0 234.5,0 240.5,-6 240.5,-12 240.5,-12 240.5,-24 240.5,-24 240.5,-30 234.5,-36 228.5,-36"/>
<text text-anchor="middle" x="136" y="-14.9" font-family="Noto Sans CJK SC" font-size="12.00">GraceC GPU（CP 固件 + 计算核）</text>
</g>
<!-- ring&#45;&gt;gpu -->
<g id="edge9" class="edge">
<title>ring&#45;&gt;gpu</title>
<path fill="none" stroke="#a3be8c" stroke-width="1.6" d="M110.38,-172.26C115.75,-140.18 126.18,-77.78 131.93,-43.32"/>
<polygon fill="#a3be8c" stroke="#a3be8c" stroke-width="1.6" points="134.42,-43.32 133.16,-36.01 129.59,-42.51 134.42,-43.32"/>
<text text-anchor="middle" x="193.5" y="-98.5" font-family="Noto Sans CJK SC" font-size="10.00" fill="#5e8050">HWS 直发（KMD 不经手每包）</text>
</g>
<!-- kmd -->
<g id="node8" class="node">
<title>kmd</title>
<path fill="#eceff4" stroke="#3b4252" stroke-width="1.1" d="M425,-119C425,-119 291,-119 291,-119 285,-119 279,-113 279,-107 279,-107 279,-95 279,-95 279,-89 285,-83 291,-83 291,-83 425,-83 425,-83 431,-83 437,-89 437,-95 437,-95 437,-107 437,-107 437,-113 431,-119 425,-119"/>
<text text-anchor="middle" x="358" y="-97.9" font-family="Noto Sans CJK SC" font-size="12.00">KMD &#160;aigc.ko（内核态）</text>
</g>
<!-- thunk&#45;&gt;kmd -->
<g id="edge6" class="edge">
<title>thunk&#45;&gt;kmd</title>
<path fill="none" stroke="#5e81ac" d="M358.71,-165.84C358.57,-153.31 358.4,-138.5 358.27,-126.29"/>
<polygon fill="#5e81ac" stroke="#5e81ac" points="360.72,-126.04 358.19,-119.07 355.82,-126.1 360.72,-126.04"/>
<text text-anchor="middle" x="370" y="-140" font-family="Noto Sans CJK SC" font-size="10.00" fill="#5e81ac">ioctl</text>
</g>
<!-- kmd&#45;&gt;gpu -->
<g id="edge7" class="edge">
<title>kmd&#45;&gt;gpu</title>
<path fill="none" stroke="#5e81ac" d="M311.19,-82.92C275.62,-69.94 226.66,-52.08 189.53,-38.53"/>
<polygon fill="#5e81ac" stroke="#5e81ac" points="190.16,-36.15 182.75,-36.06 188.48,-40.76 190.16,-36.15"/>
<text text-anchor="middle" x="285.5" y="-57" font-family="Noto Sans CJK SC" font-size="10.00" fill="#5e81ac">一次性建场</text>
</g>
</g>
</svg>
