<?xml version="1.0" encoding="UTF-8" standalone="no"?>
<!DOCTYPE svg PUBLIC "-//W3C//DTD SVG 1.1//EN"
 "http://www.w3.org/Graphics/SVG/1.1/DTD/svg11.dtd">
<!-- Generated by graphviz version 2.43.0 (0)
 -->
<!-- Title: nsmap Pages: 1 -->
<svg width="1580pt" height="227pt"
 viewBox="0.00 0.00 1580.00 226.50" xmlns="http://www.w3.org/2000/svg" xmlns:xlink="http://www.w3.org/1999/xlink">
<g id="graph0" class="graph" transform="scale(1 1) rotate(0) translate(4 222.5)">
<title>nsmap</title>
<polygon fill="white" stroke="transparent" points="-4,4 -4,-222.5 1576,-222.5 1576,4 -4,4"/>
<!-- aica -->
<g id="node1" class="node">
<title>aica</title>
<path fill="#e5e9f0" stroke="#3b4252" stroke-width="1.1" d="M217.5,-150.5C217.5,-150.5 17.5,-150.5 17.5,-150.5 11.5,-150.5 5.5,-144.5 5.5,-138.5 5.5,-138.5 5.5,-105.5 5.5,-105.5 5.5,-99.5 11.5,-93.5 17.5,-93.5 17.5,-93.5 217.5,-93.5 217.5,-93.5 223.5,-93.5 229.5,-99.5 229.5,-105.5 229.5,-105.5 229.5,-138.5 229.5,-138.5 229.5,-144.5 223.5,-150.5 217.5,-150.5"/>
<text text-anchor="middle" x="117.5" y="-131.9" font-family="Noto Sans CJK SC" font-size="12.00">aica*（无命名空间，C API）</text>
<text text-anchor="middle" x="117.5" y="-118.9" font-family="Noto Sans CJK SC" font-size="12.00">对外类 CUDA/HIP 接口</text>
<text text-anchor="middle" x="117.5" y="-105.9" font-family="Noto Sans CJK SC" font-size="12.00">例：aicaMalloc / aicaLaunchKernel</text>
</g>
<!-- aigc -->
<g id="node2" class="node">
<title>aigc</title>
<path fill="#eceff4" stroke="#3b4252" stroke-width="1.1" d="M628,-150.5C628,-150.5 298,-150.5 298,-150.5 292,-150.5 286,-144.5 286,-138.5 286,-138.5 286,-105.5 286,-105.5 286,-99.5 292,-93.5 298,-93.5 298,-93.5 628,-93.5 628,-93.5 634,-93.5 640,-99.5 640,-105.5 640,-105.5 640,-138.5 640,-138.5 640,-144.5 634,-150.5 628,-150.5"/>
<text text-anchor="middle" x="463" y="-131.9" font-family="Noto Sans CJK SC" font-size="12.00">aigc::</text>
<text text-anchor="middle" x="463" y="-118.9" font-family="Noto Sans CJK SC" font-size="12.00">平台/运行时通用层（host 侧）</text>
<text text-anchor="middle" x="463" y="-105.9" font-family="Noto Sans CJK SC" font-size="12.00">Command · HostQueue · Memory · Signal · Program</text>
</g>
<!-- aica&#45;&gt;aigc -->
<g id="edge1" class="edge">
<title>aica&#45;&gt;aigc</title>
<path fill="none" stroke="#4c566a" d="M229.55,-122C245.33,-122 261.89,-122 278.6,-122"/>
<polygon fill="#4c566a" stroke="#4c566a" points="278.77,-124.45 285.77,-122 278.77,-119.55 278.77,-124.45"/>
</g>
<!-- rocm -->
<g id="node7" class="node">
<title>rocm</title>
<polygon fill="#fff7e6" stroke="#d0a070" stroke-width="1.1" points="229,-44 0,-44 0,0 235,0 235,-38 229,-44"/>
<polyline fill="none" stroke="#d0a070" stroke-width="1.1" points="229,-44 229,-38 "/>
<polyline fill="none" stroke="#d0a070" stroke-width="1.1" points="235,-38 229,-38 "/>
<text text-anchor="middle" x="117.5" y="-25.4" font-family="Noto Sans CJK SC" font-size="12.00">对应 ROCm/HIP 原型</text>
<text text-anchor="middle" x="117.5" y="-12.4" font-family="Noto Sans CJK SC" font-size="12.00">hip* / amdgpu / ROCt / COMGR / HSA</text>
</g>
<!-- aica&#45;&gt;rocm -->
<g id="edge6" class="edge">
<title>aica&#45;&gt;rocm</title>
<path fill="none" stroke="#d0a070" stroke-dasharray="1,5" d="M117.5,-93.4C117.5,-80.21 117.5,-64.57 117.5,-51.29"/>
<polygon fill="#d0a070" stroke="#d0a070" points="119.95,-51.19 117.5,-44.19 115.05,-51.19 119.95,-51.19"/>
<text text-anchor="middle" x="109.5" y="-66.55" font-family="Noto Sans CJK SC" font-size="9.00" fill="#b08030">血缘</text>
</g>
<!-- dev -->
<g id="node3" class="node">
<title>dev</title>
<path fill="#eceff4" stroke="#3b4252" stroke-width="1.1" d="M966,-218.5C966,-218.5 712,-218.5 712,-218.5 706,-218.5 700,-212.5 700,-206.5 700,-206.5 700,-173.5 700,-173.5 700,-167.5 706,-161.5 712,-161.5 712,-161.5 966,-161.5 966,-161.5 972,-161.5 978,-167.5 978,-173.5 978,-173.5 978,-206.5 978,-206.5 978,-212.5 972,-218.5 966,-218.5"/>
<text text-anchor="middle" x="839" y="-199.9" font-family="Noto Sans CJK SC" font-size="12.00">device::</text>
<text text-anchor="middle" x="839" y="-186.9" font-family="Noto Sans CJK SC" font-size="12.00">设备抽象（与后端无关）</text>
<text text-anchor="middle" x="839" y="-173.9" font-family="Noto Sans CJK SC" font-size="12.00">VirtualDevice · Device · Kernel · Program</text>
</g>
<!-- aigc&#45;&gt;dev -->
<g id="edge2" class="edge">
<title>aigc&#45;&gt;dev</title>
<path fill="none" stroke="#4c566a" d="M620.98,-150.54C644.82,-154.88 669.32,-159.33 692.89,-163.62"/>
<polygon fill="#4c566a" stroke="#4c566a" points="692.51,-166.04 699.84,-164.88 693.39,-161.22 692.51,-166.04"/>
</g>
<!-- core -->
<g id="node5" class="node">
<title>core</title>
<path fill="#eceff4" stroke="#3b4252" stroke-width="1.1" d="M903.5,-136.5C903.5,-136.5 774.5,-136.5 774.5,-136.5 768.5,-136.5 762.5,-130.5 762.5,-124.5 762.5,-124.5 762.5,-91.5 762.5,-91.5 762.5,-85.5 768.5,-79.5 774.5,-79.5 774.5,-79.5 903.5,-79.5 903.5,-79.5 909.5,-79.5 915.5,-85.5 915.5,-91.5 915.5,-91.5 915.5,-124.5 915.5,-124.5 915.5,-130.5 909.5,-136.5 903.5,-136.5"/>
<text text-anchor="middle" x="839" y="-117.9" font-family="Noto Sans CJK SC" font-size="12.00">core::</text>
<text text-anchor="middle" x="839" y="-104.9" font-family="Noto Sans CJK SC" font-size="12.00">HSA 式底层原语</text>
<text text-anchor="middle" x="839" y="-91.9" font-family="Noto Sans CJK SC" font-size="12.00">Signal · Queue · Isa</text>
</g>
<!-- aigc&#45;&gt;core -->
<g id="edge4" class="edge">
<title>aigc&#45;&gt;core</title>
<path fill="none" stroke="#4c566a" stroke-dasharray="5,2" d="M640.05,-115.41C680.2,-113.91 721.03,-112.38 755.09,-111.1"/>
<polygon fill="#4c566a" stroke="#4c566a" points="755.35,-113.55 762.26,-110.84 755.17,-108.65 755.35,-113.55"/>
<text text-anchor="middle" x="670" y="-117.8" font-family="Noto Sans CJK SC" font-size="9.00" fill="#7b8394">用</text>
</g>
<!-- grace -->
<g id="node4" class="node">
<title>grace</title>
<path fill="#e8f0e6" stroke="#a3be8c" stroke-width="1.1" d="M1283,-218.5C1283,-218.5 1041,-218.5 1041,-218.5 1035,-218.5 1029,-212.5 1029,-206.5 1029,-206.5 1029,-173.5 1029,-173.5 1029,-167.5 1035,-161.5 1041,-161.5 1041,-161.5 1283,-161.5 1283,-161.5 1289,-161.5 1295,-167.5 1295,-173.5 1295,-173.5 1295,-206.5 1295,-206.5 1295,-212.5 1289,-218.5 1283,-218.5"/>
<text text-anchor="middle" x="1162" y="-199.9" font-family="Noto Sans CJK SC" font-size="12.00">grace::</text>
<text text-anchor="middle" x="1162" y="-186.9" font-family="Noto Sans CJK SC" font-size="12.00">GraceC 后端实现</text>
<text text-anchor="middle" x="1162" y="-173.9" font-family="Noto Sans CJK SC" font-size="12.00">VirtualGPU · Device · Kernel · Program</text>
</g>
<!-- dev&#45;&gt;grace -->
<g id="edge3" class="edge">
<title>dev&#45;&gt;grace</title>
<path fill="none" stroke="#4c566a" d="M978.46,-190C992.83,-190 1007.43,-190 1021.8,-190"/>
<polygon fill="#4c566a" stroke="#4c566a" points="1021.84,-192.45 1028.84,-190 1021.84,-187.55 1021.84,-192.45"/>
</g>
<!-- thunk -->
<g id="node6" class="node">
<title>thunk</title>
<path fill="#e3effb" stroke="#81a1c1" stroke-width="1.1" d="M1560,-218.5C1560,-218.5 1421,-218.5 1421,-218.5 1415,-218.5 1409,-212.5 1409,-206.5 1409,-206.5 1409,-173.5 1409,-173.5 1409,-167.5 1415,-161.5 1421,-161.5 1421,-161.5 1560,-161.5 1560,-161.5 1566,-161.5 1572,-167.5 1572,-173.5 1572,-173.5 1572,-206.5 1572,-206.5 1572,-212.5 1566,-218.5 1560,-218.5"/>
<text text-anchor="middle" x="1490.5" y="-199.9" font-family="Noto Sans CJK SC" font-size="12.00">ajthunk（Thunk_*）</text>
<text text-anchor="middle" x="1490.5" y="-186.9" font-family="Noto Sans CJK SC" font-size="12.00">用户态→内核态 thunk</text>
<text text-anchor="middle" x="1490.5" y="-173.9" font-family="Noto Sans CJK SC" font-size="12.00">ROCt / libhsakmt 等价物</text>
</g>
<!-- grace&#45;&gt;thunk -->
<g id="edge5" class="edge">
<title>grace&#45;&gt;thunk</title>
<path fill="none" stroke="#4c566a" stroke-dasharray="5,2" d="M1295.33,-190C1330.99,-190 1368.7,-190 1401.3,-190"/>
<polygon fill="#4c566a" stroke="#4c566a" points="1401.6,-192.45 1408.6,-190 1401.6,-187.55 1401.6,-192.45"/>
<text text-anchor="middle" x="1352" y="-192.8" font-family="Noto Sans CJK SC" font-size="9.00" fill="#7b8394">建立类经其下沉</text>
</g>
</g>
</svg>
