<?xml version="1.0" encoding="UTF-8" standalone="no"?>
<!DOCTYPE svg PUBLIC "-//W3C//DTD SVG 1.1//EN"
 "http://www.w3.org/Graphics/SVG/1.1/DTD/svg11.dtd">
<!-- Generated by graphviz version 2.43.0 (0)
 -->
<!-- Title: reg Pages: 1 -->
<svg width="724pt" height="432pt"
 viewBox="0.00 0.00 723.50 432.00" xmlns="http://www.w3.org/2000/svg" xmlns:xlink="http://www.w3.org/1999/xlink">
<g id="graph0" class="graph" transform="scale(1 1) rotate(0) translate(4 428)">
<title>reg</title>
<polygon fill="white" stroke="transparent" points="-4,4 -4,-428 719.5,-428 719.5,4 -4,4"/>
<g id="clust1" class="cluster">
<title>cluster_co</title>
<path fill="#f7f9fc" stroke="#81a1c1" d="M63.5,-79C63.5,-79 695.5,-79 695.5,-79 701.5,-79 707.5,-85 707.5,-91 707.5,-91 707.5,-140 707.5,-140 707.5,-146 701.5,-152 695.5,-152 695.5,-152 63.5,-152 63.5,-152 57.5,-152 51.5,-146 51.5,-140 51.5,-140 51.5,-91 51.5,-91 51.5,-85 57.5,-79 63.5,-79"/>
<text text-anchor="middle" x="379.5" y="-138.4" font-family="Noto Sans CJK SC" font-size="12.00">StatCO（静态 code object 注册表） &#160;src/aica_code_object.hpp</text>
</g>
<!-- bin -->
<g id="node1" class="node">
<title>bin</title>
<path fill="#e5e9f0" stroke="#3b4252" stroke-width="1.1" d="M549,-424C549,-424 336,-424 336,-424 330,-424 324,-418 324,-412 324,-412 324,-394 324,-394 324,-388 330,-382 336,-382 336,-382 549,-382 549,-382 555,-382 561,-388 561,-394 561,-394 561,-412 561,-412 561,-418 555,-424 549,-424"/>
<text text-anchor="middle" x="442.5" y="-406.4" font-family="Noto Sans CJK SC" font-size="12.00">可执行文件加载</text>
<text text-anchor="middle" x="442.5" y="-393.4" font-family="Noto Sans CJK SC" font-size="12.00">（链接器注入的 __aica 模块构造函数）</text>
</g>
<!-- fat -->
<g id="node2" class="node">
<title>fat</title>
<path fill="#eceff4" stroke="#3b4252" stroke-width="1.1" d="M528,-350C528,-350 357,-350 357,-350 351,-350 345,-344 345,-338 345,-338 345,-320 345,-320 345,-314 351,-308 357,-308 357,-308 528,-308 528,-308 534,-308 540,-314 540,-320 540,-320 540,-338 540,-338 540,-344 534,-350 528,-350"/>
<text text-anchor="middle" x="442.5" y="-332.4" font-family="Noto Sans CJK SC" font-size="12.00">__aicaRegisterFatBinary(data)</text>
<text text-anchor="middle" x="442.5" y="-319.4" font-family="Noto Sans CJK SC" font-size="12.00">校验 magic → addFatBinary</text>
</g>
<!-- bin&#45;&gt;fat -->
<g id="edge1" class="edge">
<title>bin&#45;&gt;fat</title>
<path fill="none" stroke="#4c566a" d="M442.5,-381.94C442.5,-374.36 442.5,-365.6 442.5,-357.45"/>
<polygon fill="#4c566a" stroke="#4c566a" points="444.95,-357.2 442.5,-350.2 440.05,-357.2 444.95,-357.2"/>
</g>
<!-- fn -->
<g id="node3" class="node">
<title>fn</title>
<path fill="#eceff4" stroke="#3b4252" stroke-width="1.1" d="M488,-276C488,-276 193,-276 193,-276 187,-276 181,-270 181,-264 181,-264 181,-246 181,-246 181,-240 187,-234 193,-234 193,-234 488,-234 488,-234 494,-234 500,-240 500,-246 500,-246 500,-264 500,-264 500,-270 494,-276 488,-276"/>
<text text-anchor="middle" x="340.5" y="-258.4" font-family="Noto Sans CJK SC" font-size="12.00">__aicaRegisterFunction(modules, hostFn, devName)</text>
<text text-anchor="middle" x="340.5" y="-245.4" font-family="Noto Sans CJK SC" font-size="12.00">建 Function（host桩→名字）</text>
</g>
<!-- fat&#45;&gt;fn -->
<g id="edge2" class="edge">
<title>fat&#45;&gt;fn</title>
<path fill="none" stroke="#4c566a" d="M414.09,-307.94C401.92,-299.36 387.61,-289.25 374.85,-280.25"/>
<polygon fill="#4c566a" stroke="#4c566a" points="376.25,-278.23 369.11,-276.2 373.42,-282.24 376.25,-278.23"/>
</g>
<!-- m1 -->
<g id="node5" class="node">
<title>m1</title>
<path fill="#eceff4" stroke="#3b4252" stroke-width="1.1" d="M687.5,-123C687.5,-123 483.5,-123 483.5,-123 477.5,-123 471.5,-117 471.5,-111 471.5,-111 471.5,-99 471.5,-99 471.5,-93 477.5,-87 483.5,-87 483.5,-87 687.5,-87 687.5,-87 693.5,-87 699.5,-93 699.5,-99 699.5,-99 699.5,-111 699.5,-111 699.5,-117 693.5,-123 687.5,-123"/>
<text text-anchor="middle" x="585.5" y="-101.9" font-family="Noto Sans CJK SC" font-size="12.00">modules_：hostFn → FatBinaryInfo</text>
</g>
<!-- fat&#45;&gt;m1 -->
<g id="edge4" class="edge">
<title>fat&#45;&gt;m1</title>
<path fill="none" stroke="#4c566a" d="M478.34,-307.81C491.05,-299.29 504.63,-288.44 514.5,-276 550.31,-230.84 570.88,-165.04 579.93,-130.02"/>
<polygon fill="#4c566a" stroke="#4c566a" points="582.35,-130.42 581.69,-123.03 577.6,-129.22 582.35,-130.42"/>
</g>
<!-- var -->
<g id="node4" class="node">
<title>var</title>
<path fill="#eceff4" stroke="#3b4252" stroke-width="1.1" d="M275,-202C275,-202 12,-202 12,-202 6,-202 0,-196 0,-190 0,-190 0,-172 0,-172 0,-166 6,-160 12,-160 12,-160 275,-160 275,-160 281,-160 287,-166 287,-172 287,-172 287,-190 287,-190 287,-196 281,-202 275,-202"/>
<text text-anchor="middle" x="143.5" y="-184.4" font-family="Noto Sans CJK SC" font-size="12.00">__aicaRegisterVar / __aicaRegisterManagedVar</text>
<text text-anchor="middle" x="143.5" y="-171.4" font-family="Noto Sans CJK SC" font-size="12.00">建 Var；managed 变量分配统一内存</text>
</g>
<!-- fn&#45;&gt;var -->
<g id="edge3" class="edge">
<title>fn&#45;&gt;var</title>
<path fill="none" stroke="#4c566a" d="M285.62,-233.94C260.65,-224.82 230.98,-213.97 205.23,-204.56"/>
<polygon fill="#4c566a" stroke="#4c566a" points="205.84,-202.18 198.42,-202.07 204.16,-206.78 205.84,-202.18"/>
</g>
<!-- m2 -->
<g id="node6" class="node">
<title>m2</title>
<path fill="#eceff4" stroke="#3b4252" stroke-width="1.1" d="M430.5,-123C430.5,-123 250.5,-123 250.5,-123 244.5,-123 238.5,-117 238.5,-111 238.5,-111 238.5,-99 238.5,-99 238.5,-93 244.5,-87 250.5,-87 250.5,-87 430.5,-87 430.5,-87 436.5,-87 442.5,-93 442.5,-99 442.5,-99 442.5,-111 442.5,-111 442.5,-117 436.5,-123 430.5,-123"/>
<text text-anchor="middle" x="340.5" y="-101.9" font-family="Noto Sans CJK SC" font-size="12.00">functions_：hostFn → Function</text>
</g>
<!-- fn&#45;&gt;m2 -->
<g id="edge5" class="edge">
<title>fn&#45;&gt;m2</title>
<path fill="none" stroke="#4c566a" d="M340.5,-233.73C340.5,-206.84 340.5,-159.42 340.5,-130.54"/>
<polygon fill="#4c566a" stroke="#4c566a" points="342.95,-130.27 340.5,-123.27 338.05,-130.27 342.95,-130.27"/>
</g>
<!-- m3 -->
<g id="node7" class="node">
<title>m3</title>
<path fill="#eceff4" stroke="#3b4252" stroke-width="1.1" d="M197.5,-123C197.5,-123 71.5,-123 71.5,-123 65.5,-123 59.5,-117 59.5,-111 59.5,-111 59.5,-99 59.5,-99 59.5,-93 65.5,-87 71.5,-87 71.5,-87 197.5,-87 197.5,-87 203.5,-87 209.5,-93 209.5,-99 209.5,-99 209.5,-111 209.5,-111 209.5,-117 203.5,-123 197.5,-123"/>
<text text-anchor="middle" x="134.5" y="-101.9" font-family="Noto Sans CJK SC" font-size="12.00">vars_ / managedVars_</text>
</g>
<!-- var&#45;&gt;m3 -->
<g id="edge6" class="edge">
<title>var&#45;&gt;m3</title>
<path fill="none" stroke="#4c566a" d="M141.04,-159.78C139.93,-150.64 138.61,-139.77 137.44,-130.2"/>
<polygon fill="#4c566a" stroke="#4c566a" points="139.87,-129.84 136.59,-123.19 135,-130.43 139.87,-129.84"/>
</g>
<!-- build -->
<g id="node8" class="node">
<title>build</title>
<path fill="#fff7e6" stroke="#d0a070" stroke-width="1.1" d="M465,-55C465,-55 216,-55 216,-55 210,-55 204,-49 204,-43 204,-43 204,-12 204,-12 204,-6 210,0 216,0 216,0 465,0 465,0 471,0 477,-6 477,-12 477,-12 477,-43 477,-43 477,-49 471,-55 465,-55"/>
<text text-anchor="middle" x="340.5" y="-37.4" font-family="Noto Sans CJK SC" font-size="12.00">按 AICA_ENABLE_DEFERRED_LOADING：</text>
<text text-anchor="middle" x="340.5" y="-24.4" font-family="Noto Sans CJK SC" font-size="12.00">默认懒构建（首次 launch 时 BuildProgram）</text>
<text text-anchor="middle" x="340.5" y="-11.4" font-family="Noto Sans CJK SC" font-size="12.00">或启动即 eager 构建每设备 DeviceFunc</text>
</g>
<!-- m2&#45;&gt;build -->
<g id="edge7" class="edge">
<title>m2&#45;&gt;build</title>
<path fill="none" stroke="#d0a070" stroke-dasharray="5,2" d="M340.5,-86.87C340.5,-79.53 340.5,-70.68 340.5,-62.13"/>
<polygon fill="#d0a070" stroke="#d0a070" points="342.95,-62.05 340.5,-55.05 338.05,-62.05 342.95,-62.05"/>
</g>
</g>
</svg>
