<?xml version="1.0" encoding="UTF-8" standalone="no"?>
<!DOCTYPE svg PUBLIC "-//W3C//DTD SVG 1.1//EN"
 "http://www.w3.org/Graphics/SVG/1.1/DTD/svg11.dtd">
<!-- Generated by graphviz version 2.43.0 (0)
 -->
<!-- Title: coload Pages: 1 -->
<svg width="656pt" height="371pt"
 viewBox="0.00 0.00 656.00 371.00" xmlns="http://www.w3.org/2000/svg" xmlns:xlink="http://www.w3.org/1999/xlink">
<g id="graph0" class="graph" transform="scale(1 1) rotate(0) translate(4 367)">
<title>coload</title>
<polygon fill="white" stroke="transparent" points="-4,4 -4,-367 652,-367 652,4 -4,4"/>
<g id="clust1" class="cluster">
<title>cluster_static</title>
<path fill="#f7f9fc" stroke="#81a1c1" d="M20,-166C20,-166 298,-166 298,-166 304,-166 310,-172 310,-178 310,-178 310,-301 310,-301 310,-307 304,-313 298,-313 298,-313 20,-313 20,-313 14,-313 8,-307 8,-301 8,-301 8,-178 8,-178 8,-172 14,-166 20,-166"/>
<text text-anchor="middle" x="159" y="-299.4" font-family="Noto Sans CJK SC" font-size="12.00">静态路径（编译期内嵌）</text>
</g>
<g id="clust2" class="cluster">
<title>cluster_dyn</title>
<path fill="#f4f7f4" stroke="#81a1c1" d="M330,-169C330,-169 628,-169 628,-169 634,-169 640,-175 640,-181 640,-181 640,-301 640,-301 640,-307 634,-313 628,-313 628,-313 330,-313 330,-313 324,-313 318,-307 318,-301 318,-301 318,-181 318,-181 318,-175 324,-169 330,-169"/>
<text text-anchor="middle" x="479" y="-299.4" font-family="Noto Sans CJK SC" font-size="12.00">动态路径（运行期加载）</text>
</g>
<!-- fatbin -->
<g id="node1" class="node">
<title>fatbin</title>
<path fill="#e5e9f0" stroke="#3b4252" stroke-width="1.1" d="M444,-363C444,-363 204,-363 204,-363 198,-363 192,-357 192,-351 192,-351 192,-333 192,-333 192,-327 198,-321 204,-321 204,-321 444,-321 444,-321 450,-321 456,-327 456,-333 456,-333 456,-351 456,-351 456,-357 450,-363 444,-363"/>
<text text-anchor="middle" x="324" y="-345.4" font-family="Noto Sans CJK SC" font-size="12.00">fatbin（__CLANG_OFFLOAD_BUNDLE__）</text>
<text text-anchor="middle" x="324" y="-332.4" font-family="Noto Sans CJK SC" font-size="12.00">多 ISA code object 打包</text>
</g>
<!-- sreg -->
<g id="node2" class="node">
<title>sreg</title>
<path fill="#eceff4" stroke="#3b4252" stroke-width="1.1" d="M280,-284C280,-284 48,-284 48,-284 42,-284 36,-278 36,-272 36,-272 36,-260 36,-260 36,-254 42,-248 48,-248 48,-248 280,-248 280,-248 286,-248 292,-254 292,-260 292,-260 292,-272 292,-272 292,-278 286,-284 280,-284"/>
<text text-anchor="middle" x="164" y="-262.9" font-family="Noto Sans CJK SC" font-size="12.00">__aicaRegisterFatBinary → FatBinaryInfo</text>
</g>
<!-- fatbin&#45;&gt;sreg -->
<g id="edge3" class="edge">
<title>fatbin&#45;&gt;sreg</title>
<path fill="none" stroke="#4c566a" d="M280.7,-320.97C257.96,-310.46 230.16,-297.6 207.4,-287.07"/>
<polygon fill="#4c566a" stroke="#4c566a" points="208.2,-284.74 200.82,-284.03 206.15,-289.19 208.2,-284.74"/>
</g>
<!-- dload -->
<g id="node4" class="node">
<title>dload</title>
<path fill="#eceff4" stroke="#3b4252" stroke-width="1.1" d="M620,-284C620,-284 338,-284 338,-284 332,-284 326,-278 326,-272 326,-272 326,-260 326,-260 326,-254 332,-248 338,-248 338,-248 620,-248 620,-248 626,-248 632,-254 632,-260 632,-260 632,-272 632,-272 632,-278 626,-284 620,-284"/>
<text text-anchor="middle" x="479" y="-262.9" font-family="Noto Sans CJK SC" font-size="12.00">aicaModuleLoad[Data] → DynCO::loadCodeObject</text>
</g>
<!-- fatbin&#45;&gt;dload -->
<g id="edge4" class="edge">
<title>fatbin&#45;&gt;dload</title>
<path fill="none" stroke="#4c566a" d="M365.95,-320.97C387.98,-310.46 414.9,-297.6 436.95,-287.07"/>
<polygon fill="#4c566a" stroke="#4c566a" points="438.07,-289.26 443.33,-284.03 435.96,-284.84 438.07,-289.26"/>
</g>
<!-- sres -->
<g id="node3" class="node">
<title>sres</title>
<path fill="#eceff4" stroke="#3b4252" stroke-width="1.1" d="M290,-216C290,-216 28,-216 28,-216 22,-216 16,-210 16,-204 16,-204 16,-186 16,-186 16,-180 22,-174 28,-174 28,-174 290,-174 290,-174 296,-174 302,-180 302,-186 302,-186 302,-204 302,-204 302,-210 296,-216 290,-216"/>
<text text-anchor="middle" x="159" y="-198.4" font-family="Noto Sans CJK SC" font-size="12.00">aicaLaunchKernel → getStatFunc(hostFn, dev)</text>
<text text-anchor="middle" x="159" y="-185.4" font-family="Noto Sans CJK SC" font-size="12.00">Function::getStatFunc 懒 BuildProgram</text>
</g>
<!-- sreg&#45;&gt;sres -->
<g id="edge1" class="edge">
<title>sreg&#45;&gt;sres</title>
<path fill="none" stroke="#4c566a" d="M162.76,-247.94C162.23,-240.54 161.58,-231.67 160.98,-223.38"/>
<polygon fill="#4c566a" stroke="#4c566a" points="163.42,-223.1 160.47,-216.29 158.53,-223.45 163.42,-223.1"/>
</g>
<!-- unbundle -->
<g id="node6" class="node">
<title>unbundle</title>
<path fill="#e3effb" stroke="#81a1c1" stroke-width="1.1" d="M420.5,-142C420.5,-142 215.5,-142 215.5,-142 209.5,-142 203.5,-136 203.5,-130 203.5,-130 203.5,-86 203.5,-86 203.5,-80 209.5,-74 215.5,-74 215.5,-74 420.5,-74 420.5,-74 426.5,-74 432.5,-80 432.5,-86 432.5,-86 432.5,-130 432.5,-130 432.5,-136 426.5,-142 420.5,-142"/>
<text text-anchor="middle" x="318" y="-124.4" font-family="Noto Sans CJK SC" font-size="12.00">解包 + ISA 匹配</text>
<text text-anchor="middle" x="318" y="-111.4" font-family="Noto Sans CJK SC" font-size="12.00">ELF(src/elf/elfio) + COMGR</text>
<text text-anchor="middle" x="318" y="-98.4" font-family="Noto Sans CJK SC" font-size="12.00">src/rtc/aica_rtc_comgr_helper.cpp</text>
<text text-anchor="middle" x="318" y="-85.4" font-family="Noto Sans CJK SC" font-size="12.00">isCodeObjectCompatibleWithDevice</text>
</g>
<!-- sres&#45;&gt;unbundle -->
<g id="edge5" class="edge">
<title>sres&#45;&gt;unbundle</title>
<path fill="none" stroke="#4c566a" d="M196.68,-173.86C212.47,-165.42 231.33,-155.34 249.42,-145.66"/>
<polygon fill="#4c566a" stroke="#4c566a" points="251.02,-147.58 256.04,-142.12 248.71,-143.26 251.02,-147.58"/>
</g>
<!-- dget -->
<g id="node5" class="node">
<title>dget</title>
<path fill="#eceff4" stroke="#3b4252" stroke-width="1.1" d="M608.5,-213C608.5,-213 345.5,-213 345.5,-213 339.5,-213 333.5,-207 333.5,-201 333.5,-201 333.5,-189 333.5,-189 333.5,-183 339.5,-177 345.5,-177 345.5,-177 608.5,-177 608.5,-177 614.5,-177 620.5,-183 620.5,-189 620.5,-189 620.5,-201 620.5,-201 620.5,-207 614.5,-213 608.5,-213"/>
<text text-anchor="middle" x="477" y="-191.9" font-family="Noto Sans CJK SC" font-size="12.00">aicaModuleGetFunction → getDynFunc(name)</text>
</g>
<!-- dload&#45;&gt;dget -->
<g id="edge2" class="edge">
<title>dload&#45;&gt;dget</title>
<path fill="none" stroke="#4c566a" d="M478.51,-247.94C478.26,-239.63 477.97,-229.48 477.71,-220.37"/>
<polygon fill="#4c566a" stroke="#4c566a" points="480.15,-220.27 477.5,-213.34 475.26,-220.41 480.15,-220.27"/>
</g>
<!-- dget&#45;&gt;unbundle -->
<g id="edge6" class="edge">
<title>dget&#45;&gt;unbundle</title>
<path fill="none" stroke="#4c566a" d="M444.82,-176.8C427.97,-167.79 406.64,-156.39 386.32,-145.52"/>
<polygon fill="#4c566a" stroke="#4c566a" points="387.37,-143.31 380.05,-142.17 385.06,-147.63 387.37,-143.31"/>
</g>
<!-- prog -->
<g id="node7" class="node">
<title>prog</title>
<path fill="#e8f0e6" stroke="#a3be8c" stroke-width="1.1" d="M458,-42C458,-42 178,-42 178,-42 172,-42 166,-36 166,-30 166,-30 166,-12 166,-12 166,-6 172,0 178,0 178,0 458,0 458,0 464,0 470,-6 470,-12 470,-12 470,-30 470,-30 470,-36 464,-42 458,-42"/>
<text text-anchor="middle" x="318" y="-24.4" font-family="Noto Sans CJK SC" font-size="12.00">aigc::Program（每设备）</text>
<text text-anchor="middle" x="318" y="-11.4" font-family="Noto Sans CJK SC" font-size="12.00">DeviceFunc / device::Kernel（含 init_pc / 段大小）</text>
</g>
<!-- unbundle&#45;&gt;prog -->
<g id="edge7" class="edge">
<title>unbundle&#45;&gt;prog</title>
<path fill="none" stroke="#4c566a" d="M318,-73.89C318,-65.92 318,-57.49 318,-49.79"/>
<polygon fill="#4c566a" stroke="#4c566a" points="320.45,-49.38 318,-42.38 315.55,-49.38 320.45,-49.38"/>
</g>
</g>
</svg>
