<?xml version="1.0" encoding="UTF-8" standalone="no"?>
<!DOCTYPE svg PUBLIC "-//W3C//DTD SVG 1.1//EN"
 "http://www.w3.org/Graphics/SVG/1.1/DTD/svg11.dtd">
<!-- Generated by graphviz version 2.43.0 (0)
 -->
<!-- Title: cmdtree Pages: 1 -->
<svg width="1305pt" height="260pt"
 viewBox="0.00 0.00 1305.00 260.00" xmlns="http://www.w3.org/2000/svg" xmlns:xlink="http://www.w3.org/1999/xlink">
<g id="graph0" class="graph" transform="scale(1 1) rotate(0) translate(4 256)">
<title>cmdtree</title>
<polygon fill="white" stroke="transparent" points="-4,4 -4,-256 1301,-256 1301,4 -4,4"/>
<!-- ev -->
<g id="node1" class="node">
<title>ev</title>
<path fill="#e5e9f0" stroke="#3b4252" stroke-width="1.1" d="M679.5,-252C679.5,-252 476.5,-252 476.5,-252 470.5,-252 464.5,-246 464.5,-240 464.5,-240 464.5,-228 464.5,-228 464.5,-222 470.5,-216 476.5,-216 476.5,-216 679.5,-216 679.5,-216 685.5,-216 691.5,-222 691.5,-228 691.5,-228 691.5,-240 691.5,-240 691.5,-246 685.5,-252 679.5,-252"/>
<text text-anchor="middle" x="578" y="-237.2" font-family="Noto Sans CJK SC" font-size="11.00">Event : RuntimeObject</text>
<text text-anchor="middle" x="578" y="-225.2" font-family="Noto Sans CJK SC" font-size="11.00">状态机 + 引用计数（command.hpp:44）</text>
</g>
<!-- cmd -->
<g id="node2" class="node">
<title>cmd</title>
<path fill="#e8f0e6" stroke="#a3be8c" stroke-width="1.1" d="M701.5,-180C701.5,-180 454.5,-180 454.5,-180 448.5,-180 442.5,-174 442.5,-168 442.5,-168 442.5,-156 442.5,-156 442.5,-150 448.5,-144 454.5,-144 454.5,-144 701.5,-144 701.5,-144 707.5,-144 713.5,-150 713.5,-156 713.5,-156 713.5,-168 713.5,-168 713.5,-174 707.5,-180 701.5,-180"/>
<text text-anchor="middle" x="578" y="-165.2" font-family="Noto Sans CJK SC" font-size="11.00">Command : Event</text>
<text text-anchor="middle" x="578" y="-153.2" font-family="Noto Sans CJK SC" font-size="11.00">HostQueue* · 等待表 · submit()(纯虚)（:225）</text>
</g>
<!-- ev&#45;&gt;cmd -->
<g id="edge1" class="edge">
<title>ev&#45;&gt;cmd</title>
<path fill="none" stroke="#4c566a" d="M578,-215.7C578,-206.8 578,-195.82 578,-186.2"/>
<polygon fill="none" stroke="#4c566a" points="580.1,-186.1 578,-180.1 575.9,-186.1 580.1,-186.1"/>
</g>
<!-- marker -->
<g id="node3" class="node">
<title>marker</title>
<path fill="#eceff4" stroke="#3b4252" stroke-width="1.1" d="M92,-108C92,-108 12,-108 12,-108 6,-108 0,-102 0,-96 0,-96 0,-84 0,-84 0,-78 6,-72 12,-72 12,-72 92,-72 92,-72 98,-72 104,-78 104,-84 104,-84 104,-96 104,-96 104,-102 98,-108 92,-108"/>
<text text-anchor="middle" x="52" y="-93.2" font-family="Noto Sans CJK SC" font-size="11.00">Marker（:355）</text>
<text text-anchor="middle" x="52" y="-81.2" font-family="Noto Sans CJK SC" font-size="11.00">同步屏障</text>
</g>
<!-- cmd&#45;&gt;marker -->
<g id="edge2" class="edge">
<title>cmd&#45;&gt;marker</title>
<path fill="none" stroke="#4c566a" d="M442.46,-150.86C349.73,-142.62 224.27,-128.88 115,-108 113.44,-107.7 111.87,-107.39 110.28,-107.06"/>
<polygon fill="none" stroke="#4c566a" points="110.42,-104.94 104.11,-105.71 109.53,-109.04 110.42,-104.94"/>
</g>
<!-- user -->
<g id="node4" class="node">
<title>user</title>
<path fill="#eceff4" stroke="#3b4252" stroke-width="1.1" d="M235.5,-108C235.5,-108 138.5,-108 138.5,-108 132.5,-108 126.5,-102 126.5,-96 126.5,-96 126.5,-84 126.5,-84 126.5,-78 132.5,-72 138.5,-72 138.5,-72 235.5,-72 235.5,-72 241.5,-72 247.5,-78 247.5,-84 247.5,-84 247.5,-96 247.5,-96 247.5,-102 241.5,-108 235.5,-108"/>
<text text-anchor="middle" x="187" y="-93.2" font-family="Noto Sans CJK SC" font-size="11.00">UserEvent（:342）</text>
<text text-anchor="middle" x="187" y="-81.2" font-family="Noto Sans CJK SC" font-size="11.00">应用建的事件</text>
</g>
<!-- cmd&#45;&gt;user -->
<g id="edge3" class="edge">
<title>cmd&#45;&gt;user</title>
<path fill="none" stroke="#4c566a" d="M463.98,-143.96C402.99,-134.37 326.7,-121.6 259,-108 257.29,-107.66 255.56,-107.3 253.81,-106.94"/>
<polygon fill="none" stroke="#4c566a" points="254.13,-104.86 247.82,-105.66 253.26,-108.97 254.13,-104.86"/>
</g>
<!-- kern -->
<g id="node5" class="node">
<title>kern</title>
<path fill="#d8ead0" stroke="#a3be8c" stroke-width="1.1" d="M442,-108C442,-108 282,-108 282,-108 276,-108 270,-102 270,-96 270,-96 270,-84 270,-84 270,-78 276,-72 282,-72 282,-72 442,-72 442,-72 448,-72 454,-78 454,-84 454,-84 454,-96 454,-96 454,-102 448,-108 442,-108"/>
<text text-anchor="middle" x="362" y="-93.2" font-family="Noto Sans CJK SC" font-size="11.00">GraceKernelCommand（:425）</text>
<text text-anchor="middle" x="362" y="-81.2" font-family="Noto Sans CJK SC" font-size="11.00">kernel 下发 → submitKernel</text>
</g>
<!-- cmd&#45;&gt;kern -->
<g id="edge4" class="edge">
<title>cmd&#45;&gt;kern</title>
<path fill="none" stroke="#4c566a" d="M525.44,-143.97C493.81,-133.72 453.49,-120.65 420.81,-110.06"/>
<polygon fill="none" stroke="#4c566a" points="421.15,-107.96 414.8,-108.11 419.86,-111.96 421.15,-107.96"/>
</g>
<!-- one -->
<g id="node6" class="node">
<title>one</title>
<path fill="#eceff4" stroke="#3b4252" stroke-width="1.1" d="M667.5,-108C667.5,-108 488.5,-108 488.5,-108 482.5,-108 476.5,-102 476.5,-96 476.5,-96 476.5,-84 476.5,-84 476.5,-78 482.5,-72 488.5,-72 488.5,-72 667.5,-72 667.5,-72 673.5,-72 679.5,-78 679.5,-84 679.5,-84 679.5,-96 679.5,-96 679.5,-102 673.5,-108 667.5,-108"/>
<text text-anchor="middle" x="578" y="-93.2" font-family="Noto Sans CJK SC" font-size="11.00">OneMemoryArgCommand（:524）</text>
<text text-anchor="middle" x="578" y="-81.2" font-family="Noto Sans CJK SC" font-size="11.00">单 buffer 基类</text>
</g>
<!-- cmd&#45;&gt;one -->
<g id="edge5" class="edge">
<title>cmd&#45;&gt;one</title>
<path fill="none" stroke="#4c566a" d="M578,-143.7C578,-134.8 578,-123.82 578,-114.2"/>
<polygon fill="none" stroke="#4c566a" points="580.1,-114.1 578,-108.1 575.9,-114.1 580.1,-114.1"/>
</g>
<!-- two -->
<g id="node7" class="node">
<title>two</title>
<path fill="#eceff4" stroke="#3b4252" stroke-width="1.1" d="M898.5,-108C898.5,-108 713.5,-108 713.5,-108 707.5,-108 701.5,-102 701.5,-96 701.5,-96 701.5,-84 701.5,-84 701.5,-78 707.5,-72 713.5,-72 713.5,-72 898.5,-72 898.5,-72 904.5,-72 910.5,-78 910.5,-84 910.5,-84 910.5,-96 910.5,-96 910.5,-102 904.5,-108 898.5,-108"/>
<text text-anchor="middle" x="806" y="-93.2" font-family="Noto Sans CJK SC" font-size="11.00">TwoMemoryArgsCommand（:580）</text>
<text text-anchor="middle" x="806" y="-81.2" font-family="Noto Sans CJK SC" font-size="11.00">src/dst 基类</text>
</g>
<!-- cmd&#45;&gt;two -->
<g id="edge6" class="edge">
<title>cmd&#45;&gt;two</title>
<path fill="none" stroke="#4c566a" d="M633.48,-143.97C667,-133.67 709.78,-120.54 744.35,-109.93"/>
<polygon fill="none" stroke="#4c566a" points="745.15,-111.88 750.27,-108.11 743.92,-107.86 745.15,-111.88"/>
</g>
<!-- ext -->
<g id="node8" class="node">
<title>ext</title>
<path fill="#eceff4" stroke="#3b4252" stroke-width="1.1" d="M1097,-108C1097,-108 945,-108 945,-108 939,-108 933,-102 933,-96 933,-96 933,-84 933,-84 933,-78 939,-72 945,-72 945,-72 1097,-72 1097,-72 1103,-72 1109,-78 1109,-84 1109,-84 1109,-96 1109,-96 1109,-102 1103,-108 1097,-108"/>
<text text-anchor="middle" x="1021" y="-87.2" font-family="Noto Sans CJK SC" font-size="11.00">ExtObjectsCommand（:816）</text>
</g>
<!-- cmd&#45;&gt;ext -->
<g id="edge7" class="edge">
<title>cmd&#45;&gt;ext</title>
<path fill="none" stroke="#4c566a" d="M691.96,-143.94C758.99,-133.79 845.36,-120.48 922,-108 923.54,-107.75 925.1,-107.49 926.67,-107.24"/>
<polygon fill="none" stroke="#4c566a" points="927.18,-109.28 932.76,-106.23 926.5,-105.14 927.18,-109.28"/>
</g>
<!-- svm -->
<g id="node9" class="node">
<title>svm</title>
<path fill="#eceff4" stroke="#3b4252" stroke-width="1.1" d="M1285,-108C1285,-108 1143,-108 1143,-108 1137,-108 1131,-102 1131,-96 1131,-96 1131,-84 1131,-84 1131,-78 1137,-72 1143,-72 1143,-72 1285,-72 1285,-72 1291,-72 1297,-78 1297,-84 1297,-84 1297,-96 1297,-96 1297,-102 1291,-108 1285,-108"/>
<text text-anchor="middle" x="1214" y="-93.2" font-family="Noto Sans CJK SC" font-size="11.00">Svm*Command（:1073+）</text>
<text text-anchor="middle" x="1214" y="-81.2" font-family="Noto Sans CJK SC" font-size="11.00">Free/Copy/Fill/Map/Unmap</text>
</g>
<!-- cmd&#45;&gt;svm -->
<g id="edge8" class="edge">
<title>cmd&#45;&gt;svm</title>
<path fill="none" stroke="#4c566a" d="M713.68,-150.82C823.53,-141.83 982.11,-127.18 1120,-108 1121.55,-107.79 1123.1,-107.56 1124.67,-107.33"/>
<polygon fill="none" stroke="#4c566a" points="1125.14,-109.39 1130.77,-106.42 1124.52,-105.23 1125.14,-109.39"/>
</g>
<!-- fill -->
<g id="node10" class="node">
<title>fill</title>
<path fill="#eceff4" stroke="#3b4252" stroke-width="1.1" d="M271,-36C271,-36 115,-36 115,-36 109,-36 103,-30 103,-24 103,-24 103,-12 103,-12 103,-6 109,0 115,0 115,0 271,0 271,0 277,0 283,-6 283,-12 283,-12 283,-24 283,-24 283,-30 277,-36 271,-36"/>
<text text-anchor="middle" x="193" y="-15.2" font-family="Noto Sans CJK SC" font-size="11.00">FillMemoryCommand（:609）</text>
</g>
<!-- one&#45;&gt;fill -->
<g id="edge9" class="edge">
<title>one&#45;&gt;fill</title>
<path fill="none" stroke="#4c566a" d="M484.31,-71.97C425.13,-61.21 348.86,-47.34 289.21,-36.49"/>
<polygon fill="none" stroke="#4c566a" points="289.4,-34.39 283.12,-35.39 288.65,-38.53 289.4,-34.39"/>
</g>
<!-- pref -->
<g id="node11" class="node">
<title>pref</title>
<path fill="#eceff4" stroke="#3b4252" stroke-width="1.1" d="M501,-36C501,-36 317,-36 317,-36 311,-36 305,-30 305,-24 305,-24 305,-12 305,-12 305,-6 311,0 317,0 317,0 501,0 501,0 507,0 513,-6 513,-12 513,-12 513,-24 513,-24 513,-30 507,-36 501,-36"/>
<text text-anchor="middle" x="409" y="-15.2" font-family="Noto Sans CJK SC" font-size="11.00">PrefetchMemoryCommand（:639）</text>
</g>
<!-- one&#45;&gt;pref -->
<g id="edge10" class="edge">
<title>one&#45;&gt;pref</title>
<path fill="none" stroke="#4c566a" d="M536.66,-71.88C512.22,-61.75 481.2,-48.9 455.86,-38.41"/>
<polygon fill="none" stroke="#4c566a" points="456.55,-36.42 450.21,-36.07 454.95,-40.3 456.55,-36.42"/>
</g>
<!-- sig -->
<g id="node12" class="node">
<title>sig</title>
<path fill="#eceff4" stroke="#3b4252" stroke-width="1.1" d="M683,-36C683,-36 547,-36 547,-36 541,-36 535,-30 535,-24 535,-24 535,-12 535,-12 535,-6 541,0 547,0 547,0 683,0 683,0 689,0 695,-6 695,-12 695,-12 695,-24 695,-24 695,-30 689,-36 683,-36"/>
<text text-anchor="middle" x="615" y="-15.2" font-family="Noto Sans CJK SC" font-size="11.00">SignalCommand（:1022）</text>
</g>
<!-- one&#45;&gt;sig -->
<g id="edge11" class="edge">
<title>one&#45;&gt;sig</title>
<path fill="none" stroke="#4c566a" d="M587.15,-71.7C591.94,-62.63 597.87,-51.4 603.03,-41.65"/>
<polygon fill="none" stroke="#4c566a" points="605.01,-42.39 605.96,-36.1 601.3,-40.43 605.01,-42.39"/>
</g>
<!-- dma -->
<g id="node13" class="node">
<title>dma</title>
<path fill="#d8ead0" stroke="#a3be8c" stroke-width="1.1" d="M882.5,-36C882.5,-36 729.5,-36 729.5,-36 723.5,-36 717.5,-30 717.5,-24 717.5,-24 717.5,-12 717.5,-12 717.5,-6 723.5,0 729.5,0 729.5,0 882.5,0 882.5,0 888.5,0 894.5,-6 894.5,-12 894.5,-12 894.5,-24 894.5,-24 894.5,-30 888.5,-36 882.5,-36"/>
<text text-anchor="middle" x="806" y="-21.2" font-family="Noto Sans CJK SC" font-size="11.00">DMACopyCommand（:659）</text>
<text text-anchor="middle" x="806" y="-9.2" font-family="Noto Sans CJK SC" font-size="11.00">→ submitDMACopy（SDMA）</text>
</g>
<!-- two&#45;&gt;dma -->
<g id="edge12" class="edge">
<title>two&#45;&gt;dma</title>
<path fill="none" stroke="#4c566a" d="M806,-71.7C806,-62.8 806,-51.82 806,-42.2"/>
<polygon fill="none" stroke="#4c566a" points="808.1,-42.1 806,-36.1 803.9,-42.1 808.1,-42.1"/>
</g>
<!-- hstg -->
<g id="node14" class="node">
<title>hstg</title>
<path fill="#eceff4" stroke="#3b4252" stroke-width="1.1" d="M1105.5,-36C1105.5,-36 928.5,-36 928.5,-36 922.5,-36 916.5,-30 916.5,-24 916.5,-24 916.5,-12 916.5,-12 916.5,-6 922.5,0 928.5,0 928.5,0 1105.5,0 1105.5,0 1111.5,0 1117.5,-6 1117.5,-12 1117.5,-12 1117.5,-24 1117.5,-24 1117.5,-30 1111.5,-36 1105.5,-36"/>
<text text-anchor="middle" x="1017" y="-15.2" font-family="Noto Sans CJK SC" font-size="11.00">HostStageCopyCommand（:687）</text>
</g>
<!-- two&#45;&gt;hstg -->
<g id="edge13" class="edge">
<title>two&#45;&gt;hstg</title>
<path fill="none" stroke="#4c566a" d="M857.35,-71.97C888.24,-61.72 927.63,-48.65 959.55,-38.06"/>
<polygon fill="none" stroke="#4c566a" points="960.39,-39.99 965.42,-36.11 959.07,-36.01 960.39,-39.99"/>
</g>
</g>
</svg>
