<?xml version="1.0" encoding="UTF-8" standalone="no"?>
<!DOCTYPE svg PUBLIC "-//W3C//DTD SVG 1.1//EN"
 "http://www.w3.org/Graphics/SVG/1.1/DTD/svg11.dtd">
<!-- Generated by graphviz version 2.43.0 (0)
 -->
<!-- Title: life Pages: 1 -->
<svg width="860pt" height="442pt"
 viewBox="0.00 0.00 860.00 442.00" xmlns="http://www.w3.org/2000/svg" xmlns:xlink="http://www.w3.org/1999/xlink">
<g id="graph0" class="graph" transform="scale(1 1) rotate(0) translate(4 438)">
<title>life</title>
<polygon fill="white" stroke="transparent" points="-4,4 -4,-438 856,-438 856,4 -4,4"/>
<!-- enq -->
<g id="node1" class="node">
<title>enq</title>
<path fill="#e5e9f0" stroke="#3b4252" stroke-width="1.1" d="M681.5,-434C681.5,-434 441.5,-434 441.5,-434 435.5,-434 429.5,-428 429.5,-422 429.5,-422 429.5,-410 429.5,-410 429.5,-404 435.5,-398 441.5,-398 441.5,-398 681.5,-398 681.5,-398 687.5,-398 693.5,-404 693.5,-410 693.5,-410 693.5,-422 693.5,-422 693.5,-428 687.5,-434 681.5,-434"/>
<text text-anchor="middle" x="561.5" y="-412.9" font-family="Noto Sans CJK SC" font-size="12.00">command&#45;&gt;enqueue() &#160;command.cpp:335</text>
</g>
<!-- q -->
<g id="node2" class="node">
<title>q</title>
<path fill="#eceff4" stroke="#3b4252" stroke-width="1.1" d="M704.5,-367C704.5,-367 418.5,-367 418.5,-367 412.5,-367 406.5,-361 406.5,-355 406.5,-355 406.5,-337 406.5,-337 406.5,-331 412.5,-325 418.5,-325 418.5,-325 704.5,-325 704.5,-325 710.5,-325 716.5,-331 716.5,-337 716.5,-337 716.5,-355 716.5,-355 716.5,-361 710.5,-367 704.5,-367"/>
<text text-anchor="middle" x="561.5" y="-349.4" font-family="Noto Sans CJK SC" font-size="12.00">setStatus(CL_QUEUED)</text>
<text text-anchor="middle" x="561.5" y="-336.4" font-family="Noto Sans CJK SC" font-size="12.00">FormSubmissionBatch（head→tail 链入 + retain）</text>
</g>
<!-- enq&#45;&gt;q -->
<g id="edge1" class="edge">
<title>enq&#45;&gt;q</title>
<path fill="none" stroke="#4c566a" d="M561.5,-397.84C561.5,-390.73 561.5,-382.31 561.5,-374.38"/>
<polygon fill="#4c566a" stroke="#4c566a" points="563.95,-374.3 561.5,-367.3 559.05,-374.3 563.95,-374.3"/>
</g>
<!-- dd -->
<g id="node3" class="node">
<title>dd</title>
<path fill="#eceff4" stroke="#3b4252" stroke-width="1.1" d="M276.6,-289.42C276.6,-289.42 164.78,-274.58 164.78,-274.58 158.83,-273.79 158.83,-272.21 164.78,-271.42 164.78,-271.42 276.6,-256.58 276.6,-256.58 282.55,-255.79 294.45,-255.79 300.4,-256.58 300.4,-256.58 412.22,-271.42 412.22,-271.42 418.17,-272.21 418.17,-273.79 412.22,-274.58 412.22,-274.58 300.4,-289.42 300.4,-289.42 294.45,-290.21 282.55,-290.21 276.6,-289.42"/>
<text text-anchor="middle" x="288.5" y="-269.9" font-family="Noto Sans CJK SC" font-size="12.00">AIGC_DIRECT_DISPATCH ?</text>
</g>
<!-- q&#45;&gt;dd -->
<g id="edge2" class="edge">
<title>q&#45;&gt;dd</title>
<path fill="none" stroke="#4c566a" d="M484.36,-324.94C437.71,-312.81 379.57,-297.68 338.79,-287.08"/>
<polygon fill="#4c566a" stroke="#4c566a" points="339.29,-284.68 331.9,-285.29 338.06,-289.42 339.29,-284.68"/>
</g>
<!-- sm -->
<g id="node8" class="node">
<title>sm</title>
<polygon fill="#fff7e6" stroke="#d0a070" stroke-width="1.1" points="846,-294 453,-294 453,-252 852,-252 852,-288 846,-294"/>
<polyline fill="none" stroke="#d0a070" stroke-width="1.1" points="846,-294 846,-288 "/>
<polyline fill="none" stroke="#d0a070" stroke-width="1.1" points="852,-288 846,-288 "/>
<text text-anchor="middle" x="652.5" y="-276.4" font-family="Noto Sans CJK SC" font-size="12.00">事件状态机：</text>
<text text-anchor="middle" x="652.5" y="-263.4" font-family="Noto Sans CJK SC" font-size="12.00">CL_QUEUED → CL_SUBMITTED → CL_RUNNING → CL_COMPLETE</text>
</g>
<!-- q&#45;&gt;sm -->
<!-- direct -->
<g id="node4" class="node">
<title>direct</title>
<path fill="#d8ead0" stroke="#a3be8c" stroke-width="1.1" d="M279,-211C279,-211 12,-211 12,-211 6,-211 0,-205 0,-199 0,-199 0,-168 0,-168 0,-162 6,-156 12,-156 12,-156 279,-156 279,-156 285,-156 291,-162 291,-168 291,-168 291,-199 291,-199 291,-205 285,-211 279,-211"/>
<text text-anchor="middle" x="145.5" y="-193.4" font-family="Noto Sans CJK SC" font-size="12.00">直发：当场</text>
<text text-anchor="middle" x="145.5" y="-180.4" font-family="Noto Sans CJK SC" font-size="12.00">setStatus(CL_SUBMITTED) → submit(*vdev)</text>
<text text-anchor="middle" x="145.5" y="-167.4" font-family="Noto Sans CJK SC" font-size="12.00">（VirtualGPU::submitKernel/submitDMACopy）</text>
</g>
<!-- dd&#45;&gt;direct -->
<g id="edge3" class="edge">
<title>dd&#45;&gt;direct</title>
<path fill="none" stroke="#4c566a" d="M265.52,-257.94C246.53,-246.32 218.88,-229.4 194.91,-214.73"/>
<polygon fill="#4c566a" stroke="#4c566a" points="196.15,-212.62 188.9,-211.05 193.59,-216.8 196.15,-212.62"/>
<text text-anchor="middle" x="255" y="-229" font-family="Noto Sans CJK SC" font-size="10.00">是（默认）</text>
</g>
<!-- thread -->
<g id="node5" class="node">
<title>thread</title>
<path fill="#e3effb" stroke="#81a1c1" stroke-width="1.1" d="M533,-211C533,-211 332,-211 332,-211 326,-211 320,-205 320,-199 320,-199 320,-168 320,-168 320,-162 326,-156 332,-156 332,-156 533,-156 533,-156 539,-156 545,-162 545,-168 545,-168 545,-199 545,-199 545,-205 539,-211 533,-211"/>
<text text-anchor="middle" x="432.5" y="-193.4" font-family="Noto Sans CJK SC" font-size="12.00">入 FIFO + flush()</text>
<text text-anchor="middle" x="432.5" y="-180.4" font-family="Noto Sans CJK SC" font-size="12.00">HostQueue::loop 线程取批、submit</text>
<text text-anchor="middle" x="432.5" y="-167.4" font-family="Noto Sans CJK SC" font-size="12.00">（commandqueue.hpp）</text>
</g>
<!-- dd&#45;&gt;thread -->
<g id="edge4" class="edge">
<title>dd&#45;&gt;thread</title>
<path fill="none" stroke="#4c566a" d="M311.64,-257.94C330.77,-246.32 358.61,-229.4 382.75,-214.73"/>
<polygon fill="#4c566a" stroke="#4c566a" points="384.09,-216.78 388.8,-211.05 381.54,-212.6 384.09,-216.78"/>
<text text-anchor="middle" x="365.5" y="-229" font-family="Noto Sans CJK SC" font-size="10.00">否</text>
</g>
<!-- done -->
<g id="node6" class="node">
<title>done</title>
<path fill="#eceff4" stroke="#3b4252" stroke-width="1.1" d="M395.5,-125C395.5,-125 181.5,-125 181.5,-125 175.5,-125 169.5,-119 169.5,-113 169.5,-113 169.5,-95 169.5,-95 169.5,-89 175.5,-83 181.5,-83 181.5,-83 395.5,-83 395.5,-83 401.5,-83 407.5,-89 407.5,-95 407.5,-95 407.5,-113 407.5,-113 407.5,-119 401.5,-125 395.5,-125"/>
<text text-anchor="middle" x="288.5" y="-107.4" font-family="Noto Sans CJK SC" font-size="12.00">GPU 完成 → setStatus(CL_COMPLETE)</text>
<text text-anchor="middle" x="288.5" y="-94.4" font-family="Noto Sans CJK SC" font-size="12.00">触发回调、唤醒等待者</text>
</g>
<!-- direct&#45;&gt;done -->
<g id="edge5" class="edge">
<title>direct&#45;&gt;done</title>
<path fill="none" stroke="#4c566a" d="M194.71,-155.83C211.12,-146.94 229.26,-137.11 245.18,-128.48"/>
<polygon fill="#4c566a" stroke="#4c566a" points="246.41,-130.6 251.4,-125.11 244.08,-126.29 246.41,-130.6"/>
</g>
<!-- thread&#45;&gt;done -->
<g id="edge6" class="edge">
<title>thread&#45;&gt;done</title>
<path fill="none" stroke="#4c566a" d="M382.94,-155.83C366.42,-146.94 348.15,-137.11 332.12,-128.48"/>
<polygon fill="#4c566a" stroke="#4c566a" points="333.19,-126.27 325.86,-125.11 330.86,-130.58 333.19,-126.27"/>
</g>
<!-- await -->
<g id="node7" class="node">
<title>await</title>
<path fill="#e5e9f0" stroke="#3b4252" stroke-width="1.1" d="M398,-42C398,-42 179,-42 179,-42 173,-42 167,-36 167,-30 167,-30 167,-12 167,-12 167,-6 173,0 179,0 179,0 398,0 398,0 404,0 410,-6 410,-12 410,-12 410,-30 410,-30 410,-36 404,-42 398,-42"/>
<text text-anchor="middle" x="288.5" y="-24.4" font-family="Noto Sans CJK SC" font-size="12.00">awaitCompletion() &#160;command.cpp:217</text>
<text text-anchor="middle" x="288.5" y="-11.4" font-family="Noto Sans CJK SC" font-size="12.00">ActiveWait 自旋 / 否则 CV 等信号</text>
</g>
<!-- done&#45;&gt;await -->
<g id="edge7" class="edge">
<title>done&#45;&gt;await</title>
<path fill="none" stroke="#4c566a" d="M288.5,-82.98C288.5,-72.76 288.5,-60.17 288.5,-49.09"/>
<polygon fill="#4c566a" stroke="#4c566a" points="290.95,-49.07 288.5,-42.07 286.05,-49.07 290.95,-49.07"/>
<text text-anchor="middle" x="328" y="-60" font-family="Noto Sans CJK SC" font-size="10.00">同步调用阻塞至此</text>
</g>
</g>
</svg>
