<?xml version="1.0" encoding="UTF-8" standalone="no"?>
<!DOCTYPE svg PUBLIC "-//W3C//DTD SVG 1.1//EN"
 "http://www.w3.org/Graphics/SVG/1.1/DTD/svg11.dtd">
<!-- Generated by graphviz version 2.43.0 (0)
 -->
<!-- Title: init_seq Pages: 1 -->
<svg width="354pt" height="668pt"
 viewBox="0.00 0.00 354.00 668.00" xmlns="http://www.w3.org/2000/svg" xmlns:xlink="http://www.w3.org/1999/xlink">
<g id="graph0" class="graph" transform="scale(1 1) rotate(0) translate(4 664)">
<title>init_seq</title>
<polygon fill="white" stroke="transparent" points="-4,4 -4,-664 350,-664 350,4 -4,4"/>
<g id="clust1" class="cluster">
<title>cluster_rt</title>
<path fill="#f7f9fc" stroke="#81a1c1" d="M74,-389C74,-389 287,-389 287,-389 293,-389 299,-395 299,-401 299,-401 299,-598 299,-598 299,-604 293,-610 287,-610 287,-610 74,-610 74,-610 68,-610 62,-604 62,-598 62,-598 62,-401 62,-401 62,-395 68,-389 74,-389"/>
<text text-anchor="middle" x="180.5" y="-596.4" font-family="Noto Sans CJK SC" font-size="12.00">Runtime::init() &#160;src/aica_runtime.cpp:67</text>
</g>
<g id="clust2" class="cluster">
<title>cluster_ctx</title>
<path fill="#f4f7f4" stroke="#81a1c1" d="M20,-89C20,-89 326,-89 326,-89 332,-89 338,-95 338,-101 338,-101 338,-369 338,-369 338,-375 332,-381 326,-381 326,-381 20,-381 20,-381 14,-381 8,-375 8,-369 8,-369 8,-101 8,-101 8,-95 14,-89 20,-89"/>
<text text-anchor="middle" x="173" y="-367.4" font-family="Noto Sans CJK SC" font-size="12.00">aica::init() &#160;src/aica_context.cpp:32&#45;110（遍历每个设备）</text>
</g>
<!-- trig -->
<g id="node1" class="node">
<title>trig</title>
<path fill="#e5e9f0" stroke="#3b4252" stroke-width="1.1" d="M253,-660C253,-660 93,-660 93,-660 87,-660 81,-654 81,-648 81,-648 81,-630 81,-630 81,-624 87,-618 93,-618 93,-618 253,-618 253,-618 259,-618 265,-624 265,-630 265,-630 265,-648 265,-648 265,-654 259,-660 253,-660"/>
<text text-anchor="middle" x="173" y="-642.4" font-family="Noto Sans CJK SC" font-size="12.00">首个 aica* API 调用</text>
<text text-anchor="middle" x="173" y="-629.4" font-family="Noto Sans CJK SC" font-size="12.00">AICA_INIT_API 触发懒初始化</text>
</g>
<!-- os -->
<g id="node2" class="node">
<title>os</title>
<path fill="#eceff4" stroke="#3b4252" stroke-width="1.1" d="M239,-581C239,-581 107,-581 107,-581 101,-581 95,-575 95,-569 95,-569 95,-551 95,-551 95,-545 101,-539 107,-539 107,-539 239,-539 239,-539 245,-539 251,-545 251,-551 251,-551 251,-569 251,-569 251,-575 245,-581 239,-581"/>
<text text-anchor="middle" x="173" y="-563.4" font-family="Noto Sans CJK SC" font-size="12.00">Os::init() / Cfg::init()</text>
<text text-anchor="middle" x="173" y="-550.4" font-family="Noto Sans CJK SC" font-size="12.00">OS 抽象 + 读配置(YAML)</text>
</g>
<!-- trig&#45;&gt;os -->
<g id="edge6" class="edge">
<title>trig&#45;&gt;os</title>
<path fill="none" stroke="#4c566a" d="M173,-617.77C173,-608.75 173,-597.99 173,-588.28"/>
<polygon fill="#4c566a" stroke="#4c566a" points="175.45,-588.1 173,-581.1 170.55,-588.1 175.45,-588.1"/>
</g>
<!-- topo -->
<g id="node3" class="node">
<title>topo</title>
<path fill="#eceff4" stroke="#3b4252" stroke-width="1.1" d="M236,-510C236,-510 110,-510 110,-510 104,-510 98,-504 98,-498 98,-498 98,-480 98,-480 98,-474 104,-468 110,-468 110,-468 236,-468 236,-468 242,-468 248,-474 248,-480 248,-480 248,-498 248,-498 248,-504 242,-510 236,-510"/>
<text text-anchor="middle" x="173" y="-492.4" font-family="Noto Sans CJK SC" font-size="12.00">BuildTopology()</text>
<text text-anchor="middle" x="173" y="-479.4" font-family="Noto Sans CJK SC" font-size="12.00">发现 GPU、返回设备数</text>
</g>
<!-- os&#45;&gt;topo -->
<g id="edge1" class="edge">
<title>os&#45;&gt;topo</title>
<path fill="none" stroke="#4c566a" d="M173,-538.67C173,-532.13 173,-524.77 173,-517.79"/>
<polygon fill="#4c566a" stroke="#4c566a" points="175.45,-517.42 173,-510.42 170.55,-517.42 175.45,-517.42"/>
</g>
<!-- devinit -->
<g id="node4" class="node">
<title>devinit</title>
<path fill="#eceff4" stroke="#3b4252" stroke-width="1.1" d="M224.5,-439C224.5,-439 121.5,-439 121.5,-439 115.5,-439 109.5,-433 109.5,-427 109.5,-427 109.5,-409 109.5,-409 109.5,-403 115.5,-397 121.5,-397 121.5,-397 224.5,-397 224.5,-397 230.5,-397 236.5,-403 236.5,-409 236.5,-409 236.5,-427 236.5,-427 236.5,-433 230.5,-439 224.5,-439"/>
<text text-anchor="middle" x="173" y="-421.4" font-family="Noto Sans CJK SC" font-size="12.00">Device::init()</text>
<text text-anchor="middle" x="173" y="-408.4" font-family="Noto Sans CJK SC" font-size="12.00">初始化 aigc 设备层</text>
</g>
<!-- topo&#45;&gt;devinit -->
<g id="edge2" class="edge">
<title>topo&#45;&gt;devinit</title>
<path fill="none" stroke="#4c566a" d="M173,-467.67C173,-461.13 173,-453.77 173,-446.79"/>
<polygon fill="#4c566a" stroke="#4c566a" points="175.45,-446.42 173,-439.42 170.55,-446.42 175.45,-446.42"/>
</g>
<!-- open -->
<g id="node5" class="node">
<title>open</title>
<path fill="#e3effb" stroke="#81a1c1" stroke-width="1.1" d="M253.5,-352C253.5,-352 92.5,-352 92.5,-352 86.5,-352 80.5,-346 80.5,-340 80.5,-340 80.5,-322 80.5,-322 80.5,-316 86.5,-310 92.5,-310 92.5,-310 253.5,-310 253.5,-310 259.5,-310 265.5,-316 265.5,-322 265.5,-322 265.5,-340 265.5,-340 265.5,-346 259.5,-352 253.5,-352"/>
<text text-anchor="middle" x="173" y="-334.4" font-family="Noto Sans CJK SC" font-size="12.00">KOpenDeviceWarp(node_id)</text>
<text text-anchor="middle" x="173" y="-321.4" font-family="Noto Sans CJK SC" font-size="12.00">经 thunk 打开 /dev/aigcN</text>
</g>
<!-- devinit&#45;&gt;open -->
<g id="edge7" class="edge">
<title>devinit&#45;&gt;open</title>
<path fill="none" stroke="#4c566a" d="M173,-396.86C173,-385.72 173,-371.71 173,-359.57"/>
<polygon fill="#4c566a" stroke="#4c566a" points="175.45,-359.29 173,-352.29 170.55,-359.29 175.45,-359.29"/>
</g>
<!-- ctx -->
<g id="node6" class="node">
<title>ctx</title>
<path fill="#e3effb" stroke="#81a1c1" stroke-width="1.1" d="M233,-281C233,-281 113,-281 113,-281 107,-281 101,-275 101,-269 101,-269 101,-251 101,-251 101,-245 107,-239 113,-239 113,-239 233,-239 233,-239 239,-239 245,-245 245,-251 245,-251 245,-269 245,-269 245,-275 239,-281 233,-281"/>
<text text-anchor="middle" x="173" y="-263.4" font-family="Noto Sans CJK SC" font-size="12.00">KCreateContextWarp</text>
<text text-anchor="middle" x="173" y="-250.4" font-family="Noto Sans CJK SC" font-size="12.00">建 KMD context 句柄</text>
</g>
<!-- open&#45;&gt;ctx -->
<g id="edge3" class="edge">
<title>open&#45;&gt;ctx</title>
<path fill="none" stroke="#4c566a" d="M173,-309.67C173,-303.13 173,-295.77 173,-288.79"/>
<polygon fill="#4c566a" stroke="#4c566a" points="175.45,-288.42 173,-281.42 170.55,-288.42 175.45,-288.42"/>
</g>
<!-- lmem -->
<g id="node7" class="node">
<title>lmem</title>
<path fill="#e3effb" stroke="#81a1c1" stroke-width="1.1" d="M285.5,-210C285.5,-210 60.5,-210 60.5,-210 54.5,-210 48.5,-204 48.5,-198 48.5,-198 48.5,-180 48.5,-180 48.5,-174 54.5,-168 60.5,-168 60.5,-168 285.5,-168 285.5,-168 291.5,-168 297.5,-174 297.5,-180 297.5,-180 297.5,-198 297.5,-198 297.5,-204 291.5,-210 285.5,-210"/>
<text text-anchor="middle" x="173" y="-192.4" font-family="Noto Sans CJK SC" font-size="12.00">CreateLocalMemory(LOCAL_MEM_SIZE)</text>
<text text-anchor="middle" x="173" y="-179.4" font-family="Noto Sans CJK SC" font-size="12.00">CreatePrintfBuffer()</text>
</g>
<!-- ctx&#45;&gt;lmem -->
<g id="edge4" class="edge">
<title>ctx&#45;&gt;lmem</title>
<path fill="none" stroke="#4c566a" d="M173,-238.67C173,-232.13 173,-224.77 173,-217.79"/>
<polygon fill="#4c566a" stroke="#4c566a" points="175.45,-217.42 173,-210.42 170.55,-217.42 175.45,-217.42"/>
</g>
<!-- push -->
<g id="node8" class="node">
<title>push</title>
<path fill="#eceff4" stroke="#3b4252" stroke-width="1.1" d="M290,-139C290,-139 56,-139 56,-139 50,-139 44,-133 44,-127 44,-127 44,-109 44,-109 44,-103 50,-97 56,-97 56,-97 290,-97 290,-97 296,-97 302,-103 302,-109 302,-109 302,-127 302,-127 302,-133 296,-139 290,-139"/>
<text text-anchor="middle" x="173" y="-121.4" font-family="Noto Sans CJK SC" font-size="12.00">new aica::Device → g_devices[i]</text>
<text text-anchor="middle" x="173" y="-108.4" font-family="Noto Sans CJK SC" font-size="12.00">gpu_agent&#45;&gt;SetDevice / CreateBlitQueue</text>
</g>
<!-- lmem&#45;&gt;push -->
<g id="edge5" class="edge">
<title>lmem&#45;&gt;push</title>
<path fill="none" stroke="#4c566a" d="M173,-167.67C173,-161.13 173,-153.77 173,-146.79"/>
<polygon fill="#4c566a" stroke="#4c566a" points="175.45,-146.42 173,-139.42 170.55,-146.42 175.45,-146.42"/>
</g>
<!-- fin -->
<g id="node9" class="node">
<title>fin</title>
<path fill="#e5e9f0" stroke="#3b4252" stroke-width="1.1" d="M285,-68C285,-68 61,-68 61,-68 55,-68 49,-62 49,-56 49,-56 49,-12 49,-12 49,-6 55,0 61,0 61,0 285,0 285,0 291,0 297,-6 297,-12 297,-12 297,-56 297,-56 297,-62 291,-68 285,-68"/>
<text text-anchor="middle" x="173" y="-50.4" font-family="Noto Sans CJK SC" font-size="12.00">aicaSetCurrentDevice(0)</text>
<text text-anchor="middle" x="173" y="-37.4" font-family="Noto Sans CJK SC" font-size="12.00">PlatformState::init()（StatCO 就绪）</text>
<text text-anchor="middle" x="173" y="-24.4" font-family="Noto Sans CJK SC" font-size="12.00">grace::Device::createP2PStage()（P2P）</text>
<text text-anchor="middle" x="173" y="-11.4" font-family="Noto Sans CJK SC" font-size="12.00">HwExceptionListener::init()</text>
</g>
<!-- push&#45;&gt;fin -->
<g id="edge8" class="edge">
<title>push&#45;&gt;fin</title>
<path fill="none" stroke="#4c566a" d="M173,-96.73C173,-90.26 173,-82.85 173,-75.46"/>
<polygon fill="#4c566a" stroke="#4c566a" points="175.45,-75.12 173,-68.12 170.55,-75.12 175.45,-75.12"/>
</g>
</g>
</svg>
