<?xml version="1.0" encoding="UTF-8" standalone="no"?>
<!DOCTYPE svg PUBLIC "-//W3C//DTD SVG 1.1//EN"
 "http://www.w3.org/Graphics/SVG/1.1/DTD/svg11.dtd">
<!-- Generated by graphviz version 2.43.0 (0)
 -->
<!-- Title: objmodel Pages: 1 -->
<svg width="765pt" height="308pt"
 viewBox="0.00 0.00 764.50 308.00" xmlns="http://www.w3.org/2000/svg" xmlns:xlink="http://www.w3.org/1999/xlink">
<g id="graph0" class="graph" transform="scale(1 1) rotate(0) translate(4 304)">
<title>objmodel</title>
<polygon fill="white" stroke="transparent" points="-4,4 -4,-304 760.5,-304 760.5,4 -4,4"/>
<!-- rt -->
<g id="node1" class="node">
<title>rt</title>
<path fill="#e5e9f0" stroke="#3b4252" stroke-width="1.1" d="M559,-300C559,-300 403,-300 403,-300 397,-300 391,-294 391,-288 391,-288 391,-270 391,-270 391,-264 397,-258 403,-258 403,-258 559,-258 559,-258 565,-258 571,-264 571,-270 571,-270 571,-288 571,-288 571,-294 565,-300 559,-300"/>
<text text-anchor="middle" x="481" y="-282.4" font-family="Noto Sans CJK SC" font-size="12.00">Runtime（单例）</text>
<text text-anchor="middle" x="481" y="-269.4" font-family="Noto Sans CJK SC" font-size="12.00">g_devices[] · gpu_agents[]</text>
</g>
<!-- adev -->
<g id="node2" class="node">
<title>adev</title>
<path fill="#eceff4" stroke="#3b4252" stroke-width="1.1" d="M453.5,-215C453.5,-215 214.5,-215 214.5,-215 208.5,-215 202.5,-209 202.5,-203 202.5,-203 202.5,-185 202.5,-185 202.5,-179 208.5,-173 214.5,-173 214.5,-173 453.5,-173 453.5,-173 459.5,-173 465.5,-179 465.5,-185 465.5,-185 465.5,-203 465.5,-203 465.5,-209 459.5,-215 453.5,-215"/>
<text text-anchor="middle" x="334" y="-197.4" font-family="Noto Sans CJK SC" font-size="12.00">aica::Device（每设备）</text>
<text text-anchor="middle" x="334" y="-184.4" font-family="Noto Sans CJK SC" font-size="12.00">NullStream（懒建）· helper copy stream</text>
</g>
<!-- rt&#45;&gt;adev -->
<g id="edge1" class="edge">
<title>rt&#45;&gt;adev</title>
<path fill="none" stroke="#4c566a" d="M445.42,-257.91C424.46,-246.07 397.84,-231.04 375.87,-218.64"/>
<polygon fill="#4c566a" stroke="#4c566a" points="376.81,-216.36 369.51,-215.05 374.4,-220.63 376.81,-216.36"/>
<text text-anchor="middle" x="426.5" y="-234" font-family="Noto Sans CJK SC" font-size="10.00">1..N</text>
</g>
<!-- tls -->
<g id="node7" class="node">
<title>tls</title>
<path fill="#fff7e6" stroke="#d0a070" stroke-width="1.1" d="M744.5,-215C744.5,-215 509.5,-215 509.5,-215 503.5,-215 497.5,-209 497.5,-203 497.5,-203 497.5,-185 497.5,-185 497.5,-179 503.5,-173 509.5,-173 509.5,-173 744.5,-173 744.5,-173 750.5,-173 756.5,-179 756.5,-185 756.5,-185 756.5,-203 756.5,-203 756.5,-209 750.5,-215 744.5,-215"/>
<text text-anchor="middle" x="627" y="-197.4" font-family="Noto Sans CJK SC" font-size="12.00">thread_local TlsAggregator</text>
<text text-anchor="middle" x="627" y="-184.4" font-family="Noto Sans CJK SC" font-size="12.00">当前设备 / 当前流 / last error / launch 配置</text>
</g>
<!-- rt&#45;&gt;tls -->
<g id="edge6" class="edge">
<title>rt&#45;&gt;tls</title>
<path fill="none" stroke="#d0a070" stroke-dasharray="5,2" d="M516.34,-257.91C537.16,-246.07 563.6,-231.04 585.41,-218.64"/>
<polygon fill="#d0a070" stroke="#d0a070" points="586.86,-220.64 591.73,-215.05 584.43,-216.38 586.86,-220.64"/>
<text text-anchor="middle" x="578" y="-234" font-family="Noto Sans CJK SC" font-size="10.00" fill="#b08030">每线程</text>
</g>
<!-- gdev -->
<g id="node3" class="node">
<title>gdev</title>
<path fill="#e8f0e6" stroke="#a3be8c" stroke-width="1.1" d="M300.5,-123.5C300.5,-123.5 115.5,-123.5 115.5,-123.5 109.5,-123.5 103.5,-117.5 103.5,-111.5 103.5,-111.5 103.5,-93.5 103.5,-93.5 103.5,-87.5 109.5,-81.5 115.5,-81.5 115.5,-81.5 300.5,-81.5 300.5,-81.5 306.5,-81.5 312.5,-87.5 312.5,-93.5 312.5,-93.5 312.5,-111.5 312.5,-111.5 312.5,-117.5 306.5,-123.5 300.5,-123.5"/>
<text text-anchor="middle" x="208" y="-105.9" font-family="Noto Sans CJK SC" font-size="12.00">aigc::Device &#160;← &#160;grace::Device</text>
<text text-anchor="middle" x="208" y="-92.9" font-family="Noto Sans CJK SC" font-size="12.00">ISA · KMD context 句柄 · info()</text>
</g>
<!-- adev&#45;&gt;gdev -->
<g id="edge2" class="edge">
<title>adev&#45;&gt;gdev</title>
<path fill="none" stroke="#4c566a" d="M305.72,-172.91C286.84,-159.5 261.89,-141.78 241.94,-127.61"/>
<polygon fill="#4c566a" stroke="#4c566a" points="243.31,-125.57 236.18,-123.52 240.47,-129.57 243.31,-125.57"/>
<text text-anchor="middle" x="293" y="-149" font-family="Noto Sans CJK SC" font-size="10.00">包装</text>
</g>
<!-- vgpu -->
<g id="node5" class="node">
<title>vgpu</title>
<path fill="#e8f0e6" stroke="#a3be8c" stroke-width="1.1" d="M563,-130C563,-130 357,-130 357,-130 351,-130 345,-124 345,-118 345,-118 345,-87 345,-87 345,-81 351,-75 357,-75 357,-75 563,-75 563,-75 569,-75 575,-81 575,-87 575,-87 575,-118 575,-118 575,-124 569,-130 563,-130"/>
<text text-anchor="middle" x="460" y="-112.4" font-family="Noto Sans CJK SC" font-size="12.00">grace::VirtualGPU（每 stream 一个）</text>
<text text-anchor="middle" x="460" y="-99.4" font-family="Noto Sans CJK SC" font-size="12.00">绑定一条硬件 ring buffer</text>
<text text-anchor="middle" x="460" y="-86.4" font-family="Noto Sans CJK SC" font-size="12.00">submitKernel / submitDMACopy</text>
</g>
<!-- adev&#45;&gt;vgpu -->
<g id="edge4" class="edge">
<title>adev&#45;&gt;vgpu</title>
<path fill="none" stroke="#4c566a" d="M362.28,-172.91C378.18,-161.62 398.38,-147.27 416.28,-134.55"/>
<polygon fill="#4c566a" stroke="#4c566a" points="417.97,-136.36 422.26,-130.31 415.13,-132.37 417.97,-136.36"/>
<text text-anchor="middle" x="419.5" y="-149" font-family="Noto Sans CJK SC" font-size="10.00">每 stream</text>
</g>
<!-- agent -->
<g id="node4" class="node">
<title>agent</title>
<path fill="#eceff4" stroke="#3b4252" stroke-width="1.1" d="M152,-42C152,-42 12,-42 12,-42 6,-42 0,-36 0,-30 0,-30 0,-12 0,-12 0,-6 6,0 12,0 12,0 152,0 152,0 158,0 164,-6 164,-12 164,-12 164,-30 164,-30 164,-36 158,-42 152,-42"/>
<text text-anchor="middle" x="82" y="-24.4" font-family="Noto Sans CJK SC" font-size="12.00">GpuAgent</text>
<text text-anchor="middle" x="82" y="-11.4" font-family="Noto Sans CJK SC" font-size="12.00">ISA · BlitQueue · DMA</text>
</g>
<!-- gdev&#45;&gt;agent -->
<g id="edge3" class="edge">
<title>gdev&#45;&gt;agent</title>
<path fill="none" stroke="#4c566a" d="M176.2,-81.44C159.04,-70.61 137.75,-57.18 119.75,-45.82"/>
<polygon fill="#4c566a" stroke="#4c566a" points="121.01,-43.72 113.78,-42.05 118.4,-47.86 121.01,-43.72"/>
</g>
<!-- pool -->
<g id="node6" class="node">
<title>pool</title>
<path fill="#eceff4" stroke="#3b4252" stroke-width="1.1" d="M462,-42C462,-42 208,-42 208,-42 202,-42 196,-36 196,-30 196,-30 196,-12 196,-12 196,-6 202,0 208,0 208,0 462,0 462,0 468,0 474,-6 474,-12 474,-12 474,-30 474,-30 474,-36 468,-42 462,-42"/>
<text text-anchor="middle" x="335" y="-24.4" font-family="Noto Sans CJK SC" font-size="12.00">内存池 MemoryManager / FenceMemoryPool</text>
<text text-anchor="middle" x="335" y="-11.4" font-family="Noto Sans CJK SC" font-size="12.00">MemObjMap（VA→Memory）</text>
</g>
<!-- gdev&#45;&gt;pool -->
<g id="edge5" class="edge">
<title>gdev&#45;&gt;pool</title>
<path fill="none" stroke="#4c566a" d="M240.05,-81.44C257.34,-70.61 278.81,-57.18 296.95,-45.82"/>
<polygon fill="#4c566a" stroke="#4c566a" points="298.33,-47.85 302.96,-42.05 295.73,-43.69 298.33,-47.85"/>
</g>
</g>
</svg>
