<?xml version="1.0" encoding="UTF-8" standalone="no"?>
<!DOCTYPE svg PUBLIC "-//W3C//DTD SVG 1.1//EN"
 "http://www.w3.org/Graphics/SVG/1.1/DTD/svg11.dtd">
<!-- Generated by graphviz version 2.43.0 (0)
 -->
<!-- Title: launch Pages: 1 -->
<svg width="339pt" height="640pt"
 viewBox="0.00 0.00 339.00 640.00" xmlns="http://www.w3.org/2000/svg" xmlns:xlink="http://www.w3.org/1999/xlink">
<g id="graph0" class="graph" transform="scale(1 1) rotate(0) translate(4 636)">
<title>launch</title>
<polygon fill="white" stroke="transparent" points="-4,4 -4,-636 335,-636 335,4 -4,4"/>
<g id="clust1" class="cluster">
<title>cluster_prep</title>
<path fill="#f7f9fc" stroke="#81a1c1" d="M23.5,-149C23.5,-149 308.5,-149 308.5,-149 314.5,-149 320.5,-155 320.5,-161 320.5,-161 320.5,-360 320.5,-360 320.5,-366 314.5,-372 308.5,-372 308.5,-372 23.5,-372 23.5,-372 17.5,-372 11.5,-366 11.5,-360 11.5,-360 11.5,-161 11.5,-161 11.5,-155 17.5,-149 23.5,-149"/>
<text text-anchor="middle" x="166" y="-358.4" font-family="Noto Sans CJK SC" font-size="12.00">prepareKernelCommand &#160;src/aica_platform.cpp:957</text>
</g>
<!-- a -->
<g id="node1" class="node">
<title>a</title>
<path fill="#e5e9f0" stroke="#3b4252" stroke-width="1.1" d="M297.5,-632C297.5,-632 33.5,-632 33.5,-632 27.5,-632 21.5,-626 21.5,-620 21.5,-620 21.5,-602 21.5,-602 21.5,-596 27.5,-590 33.5,-590 33.5,-590 297.5,-590 297.5,-590 303.5,-590 309.5,-596 309.5,-602 309.5,-602 309.5,-620 309.5,-620 309.5,-626 303.5,-632 297.5,-632"/>
<text text-anchor="middle" x="165.5" y="-614.4" font-family="Noto Sans CJK SC" font-size="12.00">aicaLaunchKernel(func, grid, block, params, ...)</text>
<text text-anchor="middle" x="165.5" y="-601.4" font-family="Noto Sans CJK SC" font-size="12.00">src/aica_runtime.cpp:560</text>
</g>
<!-- b -->
<g id="node2" class="node">
<title>b</title>
<path fill="#eceff4" stroke="#3b4252" stroke-width="1.1" d="M298,-560C298,-560 33,-560 33,-560 27,-560 21,-554 21,-548 21,-548 21,-530 21,-530 21,-524 27,-518 33,-518 33,-518 298,-518 298,-518 304,-518 310,-524 310,-530 310,-530 310,-548 310,-548 310,-554 304,-560 298,-560"/>
<text text-anchor="middle" x="165.5" y="-542.4" font-family="Noto Sans CJK SC" font-size="12.00">getStatFunc(func, device_id)</text>
<text text-anchor="middle" x="165.5" y="-529.4" font-family="Noto Sans CJK SC" font-size="12.00">host 桩地址 → DeviceFunc*（查 fatbin 注册表）</text>
</g>
<!-- a&#45;&gt;b -->
<g id="edge3" class="edge">
<title>a&#45;&gt;b</title>
<path fill="none" stroke="#4c566a" d="M165.5,-589.75C165.5,-582.85 165.5,-575.01 165.5,-567.62"/>
<polygon fill="#4c566a" stroke="#4c566a" points="167.95,-567.44 165.5,-560.44 163.05,-567.44 167.95,-567.44"/>
</g>
<!-- c -->
<g id="node3" class="node">
<title>c</title>
<path fill="#eceff4" stroke="#3b4252" stroke-width="1.1" d="M319,-488C319,-488 12,-488 12,-488 6,-488 0,-482 0,-476 0,-476 0,-464 0,-464 0,-458 6,-452 12,-452 12,-452 319,-452 319,-452 325,-452 331,-458 331,-464 331,-464 331,-476 331,-476 331,-482 325,-488 319,-488"/>
<text text-anchor="middle" x="165.5" y="-466.9" font-family="Noto Sans CJK SC" font-size="12.00">打包 AICALaunchParams（grid/block/shm）+ 配置校验</text>
</g>
<!-- b&#45;&gt;c -->
<g id="edge4" class="edge">
<title>b&#45;&gt;c</title>
<path fill="none" stroke="#4c566a" d="M165.5,-517.9C165.5,-510.84 165.5,-502.84 165.5,-495.47"/>
<polygon fill="#4c566a" stroke="#4c566a" points="167.95,-495.37 165.5,-488.37 163.05,-495.37 167.95,-495.37"/>
</g>
<!-- d -->
<g id="node4" class="node">
<title>d</title>
<path fill="#eceff4" stroke="#3b4252" stroke-width="1.1" d="M298.5,-422C298.5,-422 32.5,-422 32.5,-422 26.5,-422 20.5,-416 20.5,-410 20.5,-410 20.5,-392 20.5,-392 20.5,-386 26.5,-380 32.5,-380 32.5,-380 298.5,-380 298.5,-380 304.5,-380 310.5,-386 310.5,-392 310.5,-392 310.5,-410 310.5,-410 310.5,-416 304.5,-422 298.5,-422"/>
<text text-anchor="middle" x="165.5" y="-404.4" font-family="Noto Sans CJK SC" font-size="12.00">KernelLaunchKit::iaicaModuleLaunchKernel(...)</text>
<text text-anchor="middle" x="165.5" y="-391.4" font-family="Noto Sans CJK SC" font-size="12.00">src/aica_platform.cpp:1033</text>
</g>
<!-- c&#45;&gt;d -->
<g id="edge5" class="edge">
<title>c&#45;&gt;d</title>
<path fill="none" stroke="#4c566a" d="M165.5,-451.75C165.5,-445 165.5,-437.09 165.5,-429.59"/>
<polygon fill="#4c566a" stroke="#4c566a" points="167.95,-429.29 165.5,-422.29 163.05,-429.29 167.95,-429.29"/>
</g>
<!-- v -->
<g id="node5" class="node">
<title>v</title>
<path fill="#eceff4" stroke="#3b4252" stroke-width="1.1" d="M269,-343C269,-343 62,-343 62,-343 56,-343 50,-337 50,-331 50,-331 50,-313 50,-313 50,-307 56,-301 62,-301 62,-301 269,-301 269,-301 275,-301 281,-307 281,-313 281,-313 281,-331 281,-331 281,-337 275,-343 269,-343"/>
<text text-anchor="middle" x="165.5" y="-325.4" font-family="Noto Sans CJK SC" font-size="12.00">iaicaLaunchKernel_validate</text>
<text text-anchor="middle" x="165.5" y="-312.4" font-family="Noto Sans CJK SC" font-size="12.00">VGPR/LDS/gridDim.z&lt;512 等硬件约束</text>
</g>
<!-- d&#45;&gt;v -->
<g id="edge6" class="edge">
<title>d&#45;&gt;v</title>
<path fill="none" stroke="#4c566a" d="M165.5,-379.77C165.5,-370.75 165.5,-359.99 165.5,-350.28"/>
<polygon fill="#4c566a" stroke="#4c566a" points="167.95,-350.1 165.5,-343.1 163.05,-350.1 167.95,-350.1"/>
</g>
<!-- cm -->
<g id="node6" class="node">
<title>cm</title>
<path fill="#eceff4" stroke="#3b4252" stroke-width="1.1" d="M276.5,-271C276.5,-271 54.5,-271 54.5,-271 48.5,-271 42.5,-265 42.5,-259 42.5,-259 42.5,-241 42.5,-241 42.5,-235 48.5,-229 54.5,-229 54.5,-229 276.5,-229 276.5,-229 282.5,-229 288.5,-235 288.5,-241 288.5,-241 288.5,-259 288.5,-259 288.5,-265 282.5,-271 276.5,-271"/>
<text text-anchor="middle" x="165.5" y="-253.4" font-family="Noto Sans CJK SC" font-size="12.00">_setupConstantMem / _allocLocalMem</text>
<text text-anchor="middle" x="165.5" y="-240.4" font-family="Noto Sans CJK SC" font-size="12.00">备 const 内存（含 kernel 参数）</text>
</g>
<!-- v&#45;&gt;cm -->
<g id="edge1" class="edge">
<title>v&#45;&gt;cm</title>
<path fill="none" stroke="#4c566a" d="M165.5,-300.75C165.5,-293.85 165.5,-286.01 165.5,-278.62"/>
<polygon fill="#4c566a" stroke="#4c566a" points="167.95,-278.44 165.5,-271.44 163.05,-278.44 167.95,-278.44"/>
</g>
<!-- mk -->
<g id="node7" class="node">
<title>mk</title>
<path fill="#e8f0e6" stroke="#a3be8c" stroke-width="1.1" d="M274.5,-199C274.5,-199 56.5,-199 56.5,-199 50.5,-199 44.5,-193 44.5,-187 44.5,-187 44.5,-169 44.5,-169 44.5,-163 50.5,-157 56.5,-157 56.5,-157 274.5,-157 274.5,-157 280.5,-157 286.5,-163 286.5,-169 286.5,-169 286.5,-187 286.5,-187 286.5,-193 280.5,-199 274.5,-199"/>
<text text-anchor="middle" x="165.5" y="-181.4" font-family="Noto Sans CJK SC" font-size="12.00">iaicaLaunchKernelCommand</text>
<text text-anchor="middle" x="165.5" y="-168.4" font-family="Noto Sans CJK SC" font-size="12.00">new GraceKernelCommand（堆对象）</text>
</g>
<!-- cm&#45;&gt;mk -->
<g id="edge2" class="edge">
<title>cm&#45;&gt;mk</title>
<path fill="none" stroke="#4c566a" d="M165.5,-228.75C165.5,-221.85 165.5,-214.01 165.5,-206.62"/>
<polygon fill="#4c566a" stroke="#4c566a" points="167.95,-206.44 165.5,-199.44 163.05,-206.44 167.95,-206.44"/>
</g>
<!-- e -->
<g id="node8" class="node">
<title>e</title>
<path fill="#eceff4" stroke="#3b4252" stroke-width="1.1" d="M253.5,-127C253.5,-127 77.5,-127 77.5,-127 71.5,-127 65.5,-121 65.5,-115 65.5,-115 65.5,-97 65.5,-97 65.5,-91 71.5,-85 77.5,-85 77.5,-85 253.5,-85 253.5,-85 259.5,-85 265.5,-91 265.5,-97 265.5,-97 265.5,-115 265.5,-115 265.5,-121 259.5,-127 253.5,-127"/>
<text text-anchor="middle" x="165.5" y="-109.4" font-family="Noto Sans CJK SC" font-size="12.00">command&#45;&gt;enqueue()</text>
<text text-anchor="middle" x="165.5" y="-96.4" font-family="Noto Sans CJK SC" font-size="12.00">DIRECT_DISPATCH 当场 submit</text>
</g>
<!-- mk&#45;&gt;e -->
<g id="edge7" class="edge">
<title>mk&#45;&gt;e</title>
<path fill="none" stroke="#4c566a" d="M165.5,-156.75C165.5,-149.85 165.5,-142.01 165.5,-134.62"/>
<polygon fill="#4c566a" stroke="#4c566a" points="167.95,-134.44 165.5,-127.44 163.05,-134.44 167.95,-134.44"/>
</g>
<!-- f -->
<g id="node9" class="node">
<title>f</title>
<path fill="#d8ead0" stroke="#a3be8c" stroke-width="1.1" d="M314,-55C314,-55 17,-55 17,-55 11,-55 5,-49 5,-43 5,-43 5,-12 5,-12 5,-6 11,0 17,0 17,0 314,0 314,0 320,0 326,-6 326,-12 326,-12 326,-43 326,-43 326,-49 320,-55 314,-55"/>
<text text-anchor="middle" x="165.5" y="-37.4" font-family="Noto Sans CJK SC" font-size="12.00">VirtualGPU::submitKernel → submitKernelInternal</text>
<text text-anchor="middle" x="165.5" y="-24.4" font-family="Noto Sans CJK SC" font-size="12.00">建 dispatch packet → sendPacket → 敲 doorbell</text>
<text text-anchor="middle" x="165.5" y="-11.4" font-family="Noto Sans CJK SC" font-size="12.00">src/device/grace/gracevirtualgpu.cpp:1369/1172/629</text>
</g>
<!-- e&#45;&gt;f -->
<g id="edge8" class="edge">
<title>e&#45;&gt;f</title>
<path fill="none" stroke="#4c566a" d="M165.5,-84.9C165.5,-77.92 165.5,-69.89 165.5,-62.11"/>
<polygon fill="#4c566a" stroke="#4c566a" points="167.95,-62.08 165.5,-55.08 163.05,-62.08 167.95,-62.08"/>
</g>
</g>
</svg>
