<?xml version="1.0" encoding="UTF-8" standalone="no"?>
<!DOCTYPE svg PUBLIC "-//W3C//DTD SVG 1.1//EN"
 "http://www.w3.org/Graphics/SVG/1.1/DTD/svg11.dtd">
<!-- Generated by graphviz version 2.43.0 (0)
 -->
<!-- Title: cfg Pages: 1 -->
<svg width="422pt" height="434pt"
 viewBox="0.00 0.00 422.00 434.00" xmlns="http://www.w3.org/2000/svg" xmlns:xlink="http://www.w3.org/1999/xlink">
<g id="graph0" class="graph" transform="scale(1 1) rotate(0) translate(4 430)">
<title>cfg</title>
<polygon fill="white" stroke="transparent" points="-4,4 -4,-430 418,-430 418,4 -4,4"/>
<!-- src -->
<g id="node1" class="node">
<title>src</title>
<path fill="#e5e9f0" stroke="#3b4252" stroke-width="1.1" d="M366.5,-426C366.5,-426 129.5,-426 129.5,-426 123.5,-426 117.5,-420 117.5,-414 117.5,-414 117.5,-396 117.5,-396 117.5,-390 123.5,-384 129.5,-384 129.5,-384 366.5,-384 366.5,-384 372.5,-384 378.5,-390 378.5,-396 378.5,-396 378.5,-414 378.5,-414 378.5,-420 372.5,-426 366.5,-426"/>
<text text-anchor="middle" x="248" y="-408.4" font-family="Noto Sans CJK SC" font-size="12.00">add1&lt;&lt;&lt;grid, block, shm, stream&gt;&gt;&gt;(args)</text>
<text text-anchor="middle" x="248" y="-395.4" font-family="Noto Sans CJK SC" font-size="12.00">（编译器插桩展开）</text>
</g>
<!-- push -->
<g id="node2" class="node">
<title>push</title>
<path fill="#eceff4" stroke="#3b4252" stroke-width="1.1" d="M402,-351C402,-351 94,-351 94,-351 88,-351 82,-345 82,-339 82,-339 82,-321 82,-321 82,-315 88,-309 94,-309 94,-309 402,-309 402,-309 408,-309 414,-315 414,-321 414,-321 414,-339 414,-339 414,-345 408,-351 402,-351"/>
<text text-anchor="middle" x="248" y="-333.4" font-family="Noto Sans CJK SC" font-size="12.00">__aicaPushCallConfiguration(grid, block, shm, stream)</text>
<text text-anchor="middle" x="248" y="-320.4" font-family="Noto Sans CJK SC" font-size="12.00">→ PlatformState::configureCall()</text>
</g>
<!-- src&#45;&gt;push -->
<g id="edge1" class="edge">
<title>src&#45;&gt;push</title>
<path fill="none" stroke="#4c566a" d="M248,-383.67C248,-375.83 248,-366.76 248,-358.37"/>
<polygon fill="#4c566a" stroke="#4c566a" points="250.45,-358.23 248,-351.23 245.55,-358.23 250.45,-358.23"/>
</g>
<!-- arg -->
<g id="node3" class="node">
<title>arg</title>
<path fill="#eceff4" stroke="#3b4252" stroke-width="1.1" d="M290,-276C290,-276 12,-276 12,-276 6,-276 0,-270 0,-264 0,-264 0,-246 0,-246 0,-240 6,-234 12,-234 12,-234 290,-234 290,-234 296,-234 302,-240 302,-246 302,-246 302,-264 302,-264 302,-270 296,-276 290,-276"/>
<text text-anchor="middle" x="151" y="-258.4" font-family="Noto Sans CJK SC" font-size="12.00">__aicaSetupArgument(arg, size, offset)（逐参数）</text>
<text text-anchor="middle" x="151" y="-245.4" font-family="Noto Sans CJK SC" font-size="12.00">→ PlatformState::setupArgument()</text>
</g>
<!-- push&#45;&gt;arg -->
<g id="edge2" class="edge">
<title>push&#45;&gt;arg</title>
<path fill="none" stroke="#4c566a" d="M221.24,-308.86C209.58,-300.08 195.8,-289.71 183.55,-280.5"/>
<polygon fill="#4c566a" stroke="#4c566a" points="184.74,-278.33 177.68,-276.08 181.79,-282.24 184.74,-278.33"/>
</g>
<!-- tls -->
<g id="node4" class="node">
<title>tls</title>
<path fill="#fff7e6" stroke="#d0a070" stroke-width="1.1" d="M376.5,-201C376.5,-201 207.5,-201 207.5,-201 201.5,-201 195.5,-195 195.5,-189 195.5,-189 195.5,-171 195.5,-171 195.5,-165 201.5,-159 207.5,-159 207.5,-159 376.5,-159 376.5,-159 382.5,-159 388.5,-165 388.5,-171 388.5,-171 388.5,-189 388.5,-189 388.5,-195 382.5,-201 376.5,-201"/>
<text text-anchor="middle" x="292" y="-183.4" font-family="Noto Sans CJK SC" font-size="12.00">thread_local TLS</text>
<text text-anchor="middle" x="292" y="-170.4" font-family="Noto Sans CJK SC" font-size="12.00">暂存 launch 配置 + 参数 buffer</text>
</g>
<!-- push&#45;&gt;tls -->
<g id="edge3" class="edge">
<title>push&#45;&gt;tls</title>
<path fill="none" stroke="#d0a070" stroke-dasharray="5,2" d="M285.66,-308.93C297.62,-300.48 309.43,-289.45 316,-276 326.67,-254.16 317.95,-227.12 308.17,-207.47"/>
<polygon fill="#d0a070" stroke="#d0a070" points="310.26,-206.18 304.84,-201.11 305.92,-208.45 310.26,-206.18"/>
</g>
<!-- arg&#45;&gt;tls -->
<g id="edge4" class="edge">
<title>arg&#45;&gt;tls</title>
<path fill="none" stroke="#d0a070" stroke-dasharray="5,2" d="M189.9,-233.86C207.47,-224.76 228.34,-213.96 246.62,-204.5"/>
<polygon fill="#d0a070" stroke="#d0a070" points="248.13,-206.47 253.22,-201.08 245.88,-202.12 248.13,-206.47"/>
</g>
<!-- pop -->
<g id="node5" class="node">
<title>pop</title>
<path fill="#eceff4" stroke="#3b4252" stroke-width="1.1" d="M270.5,-117C270.5,-117 79.5,-117 79.5,-117 73.5,-117 67.5,-111 67.5,-105 67.5,-105 67.5,-87 67.5,-87 67.5,-81 73.5,-75 79.5,-75 79.5,-75 270.5,-75 270.5,-75 276.5,-75 282.5,-81 282.5,-87 282.5,-87 282.5,-105 282.5,-105 282.5,-111 276.5,-117 270.5,-117"/>
<text text-anchor="middle" x="175" y="-99.4" font-family="Noto Sans CJK SC" font-size="12.00">__aicaLaunchKernel → popExec()</text>
<text text-anchor="middle" x="175" y="-86.4" font-family="Noto Sans CJK SC" font-size="12.00">取回配置+参数</text>
</g>
<!-- arg&#45;&gt;pop -->
<g id="edge5" class="edge">
<title>arg&#45;&gt;pop</title>
<path fill="none" stroke="#4c566a" d="M154.09,-233.8C158.35,-205.89 166.06,-155.46 170.84,-124.24"/>
<polygon fill="#4c566a" stroke="#4c566a" points="173.29,-124.42 171.92,-117.13 168.44,-123.68 173.29,-124.42"/>
</g>
<!-- tls&#45;&gt;pop -->
<g id="edge6" class="edge">
<title>tls&#45;&gt;pop</title>
<path fill="none" stroke="#d0a070" stroke-dasharray="5,2" d="M263.38,-158.94C247.23,-147.62 226.93,-133.4 209.86,-121.43"/>
<polygon fill="#d0a070" stroke="#d0a070" points="210.87,-119.15 203.73,-117.14 208.06,-123.16 210.87,-119.15"/>
<text text-anchor="middle" x="250.5" y="-135.8" font-family="Noto Sans CJK SC" font-size="9.00" fill="#b08030">读回</text>
</g>
<!-- call -->
<g id="node6" class="node">
<title>call</title>
<path fill="#d8ead0" stroke="#a3be8c" stroke-width="1.1" d="M307,-42C307,-42 43,-42 43,-42 37,-42 31,-36 31,-30 31,-30 31,-12 31,-12 31,-6 37,0 43,0 43,0 307,0 307,0 313,0 319,-6 319,-12 319,-12 319,-30 319,-30 319,-36 313,-42 307,-42"/>
<text text-anchor="middle" x="175" y="-24.4" font-family="Noto Sans CJK SC" font-size="12.00">aicaLaunchKernel(func, grid, block, params, ...)</text>
<text text-anchor="middle" x="175" y="-11.4" font-family="Noto Sans CJK SC" font-size="12.00">（进入主调用链，见 k1）</text>
</g>
<!-- pop&#45;&gt;call -->
<g id="edge7" class="edge">
<title>pop&#45;&gt;call</title>
<path fill="none" stroke="#4c566a" d="M175,-74.67C175,-66.83 175,-57.76 175,-49.37"/>
<polygon fill="#4c566a" stroke="#4c566a" points="177.45,-49.23 175,-42.23 172.55,-49.23 177.45,-49.23"/>
</g>
</g>
</svg>
