<?xml version="1.0" encoding="UTF-8" standalone="no"?>
<!DOCTYPE svg PUBLIC "-//W3C//DTD SVG 1.1//EN"
 "http://www.w3.org/Graphics/SVG/1.1/DTD/svg11.dtd">
<!-- Generated by graphviz version 2.43.0 (0)
 -->
<!-- Title: alloc Pages: 1 -->
<svg width="704pt" height="465pt"
 viewBox="0.00 0.00 704.00 465.00" xmlns="http://www.w3.org/2000/svg" xmlns:xlink="http://www.w3.org/1999/xlink">
<g id="graph0" class="graph" transform="scale(1 1) rotate(0) translate(4 461)">
<title>alloc</title>
<polygon fill="white" stroke="transparent" points="-4,4 -4,-461 700,-461 700,4 -4,4"/>
<g id="clust1" class="cluster">
<title>cluster_pool</title>
<path fill="#f4f7f4" stroke="#a3be8c" d="M364,-67C364,-67 676,-67 676,-67 682,-67 688,-73 688,-79 688,-79 688,-203 688,-203 688,-209 682,-215 676,-215 676,-215 364,-215 364,-215 358,-215 352,-209 352,-203 352,-203 352,-79 352,-79 352,-73 358,-67 364,-67"/>
<text text-anchor="middle" x="520" y="-201.4" font-family="Noto Sans CJK SC" font-size="12.00">mempool 复用（无 ioctl，快）</text>
</g>
<g id="clust2" class="cluster">
<title>cluster_thunk</title>
<path fill="#f7f9fc" stroke="#81a1c1" d="M20,-67C20,-67 332,-67 332,-67 338,-67 344,-73 344,-79 344,-79 344,-299 344,-299 344,-305 338,-311 332,-311 332,-311 20,-311 20,-311 14,-311 8,-305 8,-299 8,-299 8,-79 8,-79 8,-73 14,-67 20,-67"/>
<text text-anchor="middle" x="176" y="-297.4" font-family="Noto Sans CJK SC" font-size="12.00">经 thunk 新分配（建立类，走 ioctl）</text>
</g>
<!-- api -->
<g id="node1" class="node">
<title>api</title>
<path fill="#e5e9f0" stroke="#3b4252" stroke-width="1.1" d="M419,-457C419,-457 215,-457 215,-457 209,-457 203,-451 203,-445 203,-445 203,-427 203,-427 203,-421 209,-415 215,-415 215,-415 419,-415 419,-415 425,-415 431,-421 431,-427 431,-427 431,-445 431,-445 431,-451 425,-457 419,-457"/>
<text text-anchor="middle" x="317" y="-439.4" font-family="Noto Sans CJK SC" font-size="12.00">aicaMalloc(&amp;p, n)</text>
<text text-anchor="middle" x="317" y="-426.4" font-family="Noto Sans CJK SC" font-size="12.00">→ iaicaMalloc → SvmBuffer::malloc</text>
</g>
<!-- dec -->
<g id="node2" class="node">
<title>dec</title>
<path fill="#eceff4" stroke="#3b4252" stroke-width="1.1" d="M305.08,-380.63C305.08,-380.63 172.02,-365.37 172.02,-365.37 166.05,-364.68 166.05,-363.32 172.02,-362.63 172.02,-362.63 305.08,-347.37 305.08,-347.37 311.04,-346.68 322.96,-346.68 328.92,-347.37 328.92,-347.37 461.98,-362.63 461.98,-362.63 467.95,-363.32 467.95,-364.68 461.98,-365.37 461.98,-365.37 328.92,-380.63 328.92,-380.63 322.96,-381.32 311.04,-381.32 305.08,-380.63"/>
<text text-anchor="middle" x="317" y="-360.9" font-family="Noto Sans CJK SC" font-size="12.00">来自内存池 (isFromMemPool) ?</text>
</g>
<!-- api&#45;&gt;dec -->
<g id="edge4" class="edge">
<title>api&#45;&gt;dec</title>
<path fill="none" stroke="#4c566a" d="M317,-414.75C317,-406.76 317,-397.51 317,-389.17"/>
<polygon fill="#4c566a" stroke="#4c566a" points="319.45,-389.12 317,-382.12 314.55,-389.12 319.45,-389.12"/>
</g>
<!-- p1 -->
<g id="node3" class="node">
<title>p1</title>
<path fill="#eceff4" stroke="#3b4252" stroke-width="1.1" d="M668,-186C668,-186 372,-186 372,-186 366,-186 360,-180 360,-174 360,-174 360,-156 360,-156 360,-150 366,-144 372,-144 372,-144 668,-144 668,-144 674,-144 680,-150 680,-156 680,-156 680,-174 680,-174 680,-180 674,-186 668,-186"/>
<text text-anchor="middle" x="520" y="-168.4" font-family="Noto Sans CJK SC" font-size="12.00">Heap::FindMemory</text>
<text text-anchor="middle" x="520" y="-155.4" font-family="Noto Sans CJK SC" font-size="12.00">按 MemoryTimestamp 判断 stream/event 依赖已满足</text>
</g>
<!-- dec&#45;&gt;p1 -->
<g id="edge5" class="edge">
<title>dec&#45;&gt;p1</title>
<path fill="none" stroke="#4c566a" d="M332.93,-347.54C367.8,-313.7 451.16,-232.8 493.85,-191.38"/>
<polygon fill="#4c566a" stroke="#4c566a" points="495.78,-192.92 499.09,-186.29 492.36,-189.41 495.78,-192.92"/>
<text text-anchor="middle" x="446" y="-258.5" font-family="Noto Sans CJK SC" font-size="10.00">是</text>
</g>
<!-- t1 -->
<g id="node5" class="node">
<title>t1</title>
<path fill="#e3effb" stroke="#81a1c1" stroke-width="1.1" d="M323.5,-282C323.5,-282 28.5,-282 28.5,-282 22.5,-282 16.5,-276 16.5,-270 16.5,-270 16.5,-252 16.5,-252 16.5,-246 22.5,-240 28.5,-240 28.5,-240 323.5,-240 323.5,-240 329.5,-240 335.5,-246 335.5,-252 335.5,-252 335.5,-270 335.5,-270 335.5,-276 329.5,-282 323.5,-282"/>
<text text-anchor="middle" x="176" y="-264.4" font-family="Noto Sans CJK SC" font-size="12.00">thunk_help::allocateDeviceMemory（:38）</text>
<text text-anchor="middle" x="176" y="-251.4" font-family="Noto Sans CJK SC" font-size="12.00">KCreateMemoryWarp → Thunk_CreateMemory ioctl</text>
</g>
<!-- dec&#45;&gt;t1 -->
<g id="edge6" class="edge">
<title>dec&#45;&gt;t1</title>
<path fill="none" stroke="#4c566a" d="M296.5,-348.31C273.85,-332.09 237.01,-305.7 210.02,-286.37"/>
<polygon fill="#4c566a" stroke="#4c566a" points="211.19,-284.19 204.07,-282.11 208.34,-288.18 211.19,-284.19"/>
<text text-anchor="middle" x="272" y="-322" font-family="Noto Sans CJK SC" font-size="10.00">否</text>
</g>
<!-- p2 -->
<g id="node4" class="node">
<title>p2</title>
<path fill="#d8ead0" stroke="#a3be8c" stroke-width="1.1" d="M556.5,-111C556.5,-111 409.5,-111 409.5,-111 403.5,-111 397.5,-105 397.5,-99 397.5,-99 397.5,-87 397.5,-87 397.5,-81 403.5,-75 409.5,-75 409.5,-75 556.5,-75 556.5,-75 562.5,-75 568.5,-81 568.5,-87 568.5,-87 568.5,-99 568.5,-99 568.5,-105 562.5,-111 556.5,-111"/>
<text text-anchor="middle" x="483" y="-89.9" font-family="Noto Sans CJK SC" font-size="12.00">复用空闲块（无需新分配）</text>
</g>
<!-- p1&#45;&gt;p2 -->
<g id="edge1" class="edge">
<title>p1&#45;&gt;p2</title>
<path fill="none" stroke="#4c566a" d="M509.3,-143.75C504.94,-135.52 499.88,-125.94 495.37,-117.41"/>
<polygon fill="#4c566a" stroke="#4c566a" points="497.49,-116.17 492.05,-111.12 493.16,-118.46 497.49,-116.17"/>
</g>
<!-- reg -->
<g id="node8" class="node">
<title>reg</title>
<path fill="#eceff4" stroke="#3b4252" stroke-width="1.1" d="M502,-42C502,-42 258,-42 258,-42 252,-42 246,-36 246,-30 246,-30 246,-12 246,-12 246,-6 252,0 258,0 258,0 502,0 502,0 508,0 514,-6 514,-12 514,-12 514,-30 514,-30 514,-36 508,-42 502,-42"/>
<text text-anchor="middle" x="380" y="-24.4" font-family="Noto Sans CJK SC" font-size="12.00">登记到 MemObjMap（VA → aigc::Memory）</text>
<text text-anchor="middle" x="380" y="-11.4" font-family="Noto Sans CJK SC" font-size="12.00">返回 GPU 可用地址</text>
</g>
<!-- p2&#45;&gt;reg -->
<g id="edge7" class="edge">
<title>p2&#45;&gt;reg</title>
<path fill="none" stroke="#4c566a" d="M457.8,-74.88C445.09,-66.23 429.45,-55.61 415.53,-46.15"/>
<polygon fill="#4c566a" stroke="#4c566a" points="416.86,-44.09 409.69,-42.18 414.1,-48.14 416.86,-44.09"/>
</g>
<!-- t2 -->
<g id="node6" class="node">
<title>t2</title>
<path fill="#e3effb" stroke="#81a1c1" stroke-width="1.1" d="M270,-183C270,-183 118,-183 118,-183 112,-183 106,-177 106,-171 106,-171 106,-159 106,-159 106,-153 112,-147 118,-147 118,-147 270,-147 270,-147 276,-147 282,-153 282,-159 282,-159 282,-171 282,-171 282,-177 276,-183 270,-183"/>
<text text-anchor="middle" x="194" y="-161.9" font-family="Noto Sans CJK SC" font-size="12.00">KMD 分物理页 + 建地址映射</text>
</g>
<!-- t1&#45;&gt;t2 -->
<g id="edge2" class="edge">
<title>t1&#45;&gt;t2</title>
<path fill="none" stroke="#4c566a" d="M179.91,-239.6C182.68,-225.13 186.41,-205.63 189.34,-190.33"/>
<polygon fill="#4c566a" stroke="#4c566a" points="191.79,-190.54 190.71,-183.21 186.98,-189.62 191.79,-190.54"/>
</g>
<!-- t3 -->
<g id="node7" class="node">
<title>t3</title>
<path fill="#e3effb" stroke="#81a1c1" stroke-width="1.1" d="M320.5,-111C320.5,-111 95.5,-111 95.5,-111 89.5,-111 83.5,-105 83.5,-99 83.5,-99 83.5,-87 83.5,-87 83.5,-81 89.5,-75 95.5,-75 95.5,-75 320.5,-75 320.5,-75 326.5,-75 332.5,-81 332.5,-87 332.5,-87 332.5,-99 332.5,-99 332.5,-105 326.5,-111 320.5,-111"/>
<text text-anchor="middle" x="208" y="-89.9" font-family="Noto Sans CJK SC" font-size="12.00">Thunk_Lock 拿 HVA（CPU 可访问映射）</text>
</g>
<!-- t2&#45;&gt;t3 -->
<g id="edge3" class="edge">
<title>t2&#45;&gt;t3</title>
<path fill="none" stroke="#4c566a" d="M197.46,-146.7C199.19,-138.05 201.31,-127.45 203.19,-118.03"/>
<polygon fill="#4c566a" stroke="#4c566a" points="205.61,-118.45 204.58,-111.1 200.8,-117.49 205.61,-118.45"/>
</g>
<!-- t3&#45;&gt;reg -->
<g id="edge8" class="edge">
<title>t3&#45;&gt;reg</title>
<path fill="none" stroke="#4c566a" d="M250.08,-74.88C272.35,-65.81 299.99,-54.56 324.05,-44.77"/>
<polygon fill="#4c566a" stroke="#4c566a" points="325.17,-46.96 330.73,-42.05 323.33,-42.42 325.17,-46.96"/>
</g>
</g>
</svg>
