<?xml version="1.0" encoding="UTF-8" standalone="no"?>
<!DOCTYPE svg PUBLIC "-//W3C//DTD SVG 1.1//EN"
 "http://www.w3.org/Graphics/SVG/1.1/DTD/svg11.dtd">
<!-- Generated by graphviz version 2.43.0 (0)
 -->
<!-- Title: memmodel Pages: 1 -->
<svg width="524pt" height="347pt"
 viewBox="0.00 0.00 523.50 347.00" xmlns="http://www.w3.org/2000/svg" xmlns:xlink="http://www.w3.org/1999/xlink">
<g id="graph0" class="graph" transform="scale(1 1) rotate(0) translate(4 343)">
<title>memmodel</title>
<polygon fill="white" stroke="transparent" points="-4,4 -4,-343 519.5,-343 519.5,4 -4,4"/>
<!-- svm -->
<g id="node1" class="node">
<title>svm</title>
<polygon fill="#fff7e6" stroke="#d0a070" stroke-width="1.1" points="332.5,-339 157.5,-339 157.5,-297 338.5,-297 338.5,-333 332.5,-339"/>
<polyline fill="none" stroke="#d0a070" stroke-width="1.1" points="332.5,-339 332.5,-333 "/>
<polyline fill="none" stroke="#d0a070" stroke-width="1.1" points="338.5,-333 332.5,-333 "/>
<text text-anchor="middle" x="248" y="-321.4" font-family="Noto Sans CJK SC" font-size="12.00">SVM 单一 64 位虚拟地址空间</text>
<text text-anchor="middle" x="248" y="-308.4" font-family="Noto Sans CJK SC" font-size="12.00">CPU 与 GPU 同一 VA 可见</text>
</g>
<!-- map -->
<g id="node2" class="node">
<title>map</title>
<path fill="#e5e9f0" stroke="#3b4252" stroke-width="1.1" d="M343.5,-264C343.5,-264 152.5,-264 152.5,-264 146.5,-264 140.5,-258 140.5,-252 140.5,-252 140.5,-221 140.5,-221 140.5,-215 146.5,-209 152.5,-209 152.5,-209 343.5,-209 343.5,-209 349.5,-209 355.5,-215 355.5,-221 355.5,-221 355.5,-252 355.5,-252 355.5,-258 349.5,-264 343.5,-264"/>
<text text-anchor="middle" x="248" y="-246.4" font-family="Noto Sans CJK SC" font-size="12.00">MemObjMap（device.hpp）</text>
<text text-anchor="middle" x="248" y="-233.4" font-family="Noto Sans CJK SC" font-size="12.00">VA → aigc::Memory 全局查找</text>
<text text-anchor="middle" x="248" y="-220.4" font-family="Noto Sans CJK SC" font-size="12.00">（memcpy/kernel 参数解析靠它）</text>
</g>
<!-- svm&#45;&gt;map -->
<g id="edge4" class="edge">
<title>svm&#45;&gt;map</title>
<path fill="none" stroke="#d0a070" stroke-dasharray="5,2" d="M248,-296.94C248,-289.18 248,-280.07 248,-271.36"/>
<polygon fill="#d0a070" stroke="#d0a070" points="250.45,-271.17 248,-264.17 245.55,-271.17 250.45,-271.17"/>
</g>
<!-- obj -->
<g id="node3" class="node">
<title>obj</title>
<path fill="#eceff4" stroke="#3b4252" stroke-width="1.1" d="M348,-166C348,-166 148,-166 148,-166 142,-166 136,-160 136,-154 136,-154 136,-110 136,-110 136,-104 142,-98 148,-98 148,-98 348,-98 348,-98 354,-98 360,-104 360,-110 360,-110 360,-154 360,-154 360,-160 354,-166 348,-166"/>
<text text-anchor="middle" x="248" y="-148.4" font-family="Noto Sans CJK SC" font-size="12.00">aigc::Memory（memory.hpp:272）</text>
<text text-anchor="middle" x="248" y="-135.4" font-family="Noto Sans CJK SC" font-size="12.00">Device* · size · Location</text>
<text text-anchor="middle" x="248" y="-122.4" font-family="Noto Sans CJK SC" font-size="12.00">{Device / PinnedHost / Managed}</text>
<text text-anchor="middle" x="248" y="-109.4" font-family="Noto Sans CJK SC" font-size="12.00">HVA / DVA / KMD 句柄(memoryInfo)</text>
</g>
<!-- map&#45;&gt;obj -->
<g id="edge1" class="edge">
<title>map&#45;&gt;obj</title>
<path fill="none" stroke="#4c566a" d="M248,-208.84C248,-198.03 248,-185.31 248,-173.41"/>
<polygon fill="#4c566a" stroke="#4c566a" points="250.45,-173.13 248,-166.13 245.55,-173.13 250.45,-173.13"/>
<text text-anchor="middle" x="263" y="-185" font-family="Noto Sans CJK SC" font-size="10.00">映射到</text>
</g>
<!-- pool -->
<g id="node4" class="node">
<title>pool</title>
<path fill="#e8f0e6" stroke="#a3be8c" stroke-width="1.1" d="M212,-55C212,-55 12,-55 12,-55 6,-55 0,-49 0,-43 0,-43 0,-12 0,-12 0,-6 6,0 12,0 12,0 212,0 212,0 218,0 224,-6 224,-12 224,-12 224,-43 224,-43 224,-49 218,-55 212,-55"/>
<text text-anchor="middle" x="112" y="-37.4" font-family="Noto Sans CJK SC" font-size="12.00">mempool（aica_mempool_impl）</text>
<text text-anchor="middle" x="112" y="-24.4" font-family="Noto Sans CJK SC" font-size="12.00">Heap 每设备 · MemoryTimestamp</text>
<text text-anchor="middle" x="112" y="-11.4" font-family="Noto Sans CJK SC" font-size="12.00">按 event 依赖安全复用/惰性释放</text>
</g>
<!-- obj&#45;&gt;pool -->
<g id="edge2" class="edge">
<title>obj&#45;&gt;pool</title>
<path fill="none" stroke="#4c566a" d="M203.84,-97.72C187.54,-85.43 169.15,-71.57 153.12,-59.49"/>
<polygon fill="#4c566a" stroke="#4c566a" points="154.4,-57.39 147.34,-55.13 151.45,-61.3 154.4,-57.39"/>
<text text-anchor="middle" x="195" y="-74" font-family="Noto Sans CJK SC" font-size="10.00">可池化</text>
</g>
<!-- ipc -->
<g id="node5" class="node">
<title>ipc</title>
<path fill="#e3effb" stroke="#81a1c1" stroke-width="1.1" d="M503.5,-55C503.5,-55 266.5,-55 266.5,-55 260.5,-55 254.5,-49 254.5,-43 254.5,-43 254.5,-12 254.5,-12 254.5,-6 260.5,0 266.5,0 266.5,0 503.5,0 503.5,0 509.5,0 515.5,-6 515.5,-12 515.5,-12 515.5,-43 515.5,-43 515.5,-49 509.5,-55 503.5,-55"/>
<text text-anchor="middle" x="385" y="-37.4" font-family="Noto Sans CJK SC" font-size="12.00">IPC / Peer</text>
<text text-anchor="middle" x="385" y="-24.4" font-family="Noto Sans CJK SC" font-size="12.00">MemObjMap::IpcMemHandle（khandle）</text>
<text text-anchor="middle" x="385" y="-11.4" font-family="Noto Sans CJK SC" font-size="12.00">aica_peer.cpp P2P 访问协商</text>
</g>
<!-- obj&#45;&gt;ipc -->
<g id="edge3" class="edge">
<title>obj&#45;&gt;ipc</title>
<path fill="none" stroke="#4c566a" d="M292.48,-97.72C308.9,-85.43 327.43,-71.57 343.57,-59.49"/>
<polygon fill="#4c566a" stroke="#4c566a" points="345.27,-61.29 349.4,-55.13 342.33,-57.36 345.27,-61.29"/>
<text text-anchor="middle" x="350.5" y="-74" font-family="Noto Sans CJK SC" font-size="10.00">可导出/对等</text>
</g>
</g>
</svg>
