<?xml version="1.0" encoding="UTF-8" standalone="no"?>
<!DOCTYPE svg PUBLIC "-//W3C//DTD SVG 1.1//EN"
 "http://www.w3.org/Graphics/SVG/1.1/DTD/svg11.dtd">
<!-- Generated by graphviz version 2.43.0 (0)
 -->
<!-- Title: ring Pages: 1 -->
<svg width="672pt" height="532pt"
 viewBox="0.00 0.00 672.00 532.00" xmlns="http://www.w3.org/2000/svg" xmlns:xlink="http://www.w3.org/1999/xlink">
<g id="graph0" class="graph" transform="scale(1 1) rotate(0) translate(4 528)">
<title>ring</title>
<polygon fill="white" stroke="transparent" points="-4,4 -4,-528 668,-528 668,4 -4,4"/>
<g id="clust1" class="cluster">
<title>cluster_send</title>
<path fill="#f4f7f4" stroke="#a3be8c" d="M20,-76C20,-76 320,-76 320,-76 326,-76 332,-82 332,-88 332,-88 332,-360 332,-360 332,-366 326,-372 320,-372 320,-372 20,-372 20,-372 14,-372 8,-366 8,-360 8,-360 8,-88 8,-88 8,-82 14,-76 20,-76"/>
<text text-anchor="middle" x="170" y="-358.4" font-family="Noto Sans CJK SC" font-size="12.00">sendPacket（gracevirtualgpu.cpp:629）</text>
</g>
<!-- sk -->
<g id="node1" class="node">
<title>sk</title>
<path fill="#e5e9f0" stroke="#3b4252" stroke-width="1.1" d="M322.5,-524C322.5,-524 25.5,-524 25.5,-524 19.5,-524 13.5,-518 13.5,-512 13.5,-512 13.5,-481 13.5,-481 13.5,-475 19.5,-469 25.5,-469 25.5,-469 322.5,-469 322.5,-469 328.5,-469 334.5,-475 334.5,-481 334.5,-481 334.5,-512 334.5,-512 334.5,-518 328.5,-524 322.5,-524"/>
<text text-anchor="middle" x="174" y="-506.4" font-family="Noto Sans CJK SC" font-size="12.00">VirtualGPU::submitKernel（:1369）</text>
<text text-anchor="middle" x="174" y="-493.4" font-family="Noto Sans CJK SC" font-size="12.00">→ submitKernelInternal（:1172）建 dispatch packet</text>
<text text-anchor="middle" x="174" y="-480.4" font-family="Noto Sans CJK SC" font-size="12.00">（_setupConstantMem 填 const_base 等）</text>
</g>
<!-- dp -->
<g id="node2" class="node">
<title>dp</title>
<path fill="#eceff4" stroke="#3b4252" stroke-width="1.1" d="M275,-438C275,-438 73,-438 73,-438 67,-438 61,-432 61,-426 61,-426 61,-408 61,-408 61,-402 67,-396 73,-396 73,-396 275,-396 275,-396 281,-396 287,-402 287,-408 287,-408 287,-426 287,-426 287,-432 281,-438 275,-438"/>
<text text-anchor="middle" x="174" y="-420.4" font-family="Noto Sans CJK SC" font-size="12.00">dispatchCommandPacket（:680）</text>
<text text-anchor="middle" x="174" y="-407.4" font-family="Noto Sans CJK SC" font-size="12.00">（必要时先发 barrier 处理依赖信号）</text>
</g>
<!-- sk&#45;&gt;dp -->
<g id="edge4" class="edge">
<title>sk&#45;&gt;dp</title>
<path fill="none" stroke="#4c566a" d="M174,-468.83C174,-461.34 174,-453.19 174,-445.64"/>
<polygon fill="#4c566a" stroke="#4c566a" points="176.45,-445.35 174,-438.35 171.55,-445.35 176.45,-445.35"/>
</g>
<!-- s1 -->
<g id="node3" class="node">
<title>s1</title>
<path fill="#eceff4" stroke="#3b4252" stroke-width="1.1" d="M259.5,-343C259.5,-343 88.5,-343 88.5,-343 82.5,-343 76.5,-337 76.5,-331 76.5,-331 76.5,-313 76.5,-313 76.5,-307 82.5,-301 88.5,-301 88.5,-301 259.5,-301 259.5,-301 265.5,-301 271.5,-307 271.5,-313 271.5,-313 271.5,-331 271.5,-331 271.5,-337 265.5,-343 259.5,-343"/>
<text text-anchor="middle" x="174" y="-325.4" font-family="Noto Sans CJK SC" font-size="12.00">load write_index（acquire）</text>
<text text-anchor="middle" x="174" y="-312.4" font-family="Noto Sans CJK SC" font-size="12.00">CHECK_AND_WAIT 环满则自旋</text>
</g>
<!-- dp&#45;&gt;s1 -->
<g id="edge5" class="edge">
<title>dp&#45;&gt;s1</title>
<path fill="none" stroke="#4c566a" d="M174,-395.82C174,-382.54 174,-364.98 174,-350.43"/>
<polygon fill="#4c566a" stroke="#4c566a" points="176.45,-350.14 174,-343.14 171.55,-350.14 176.45,-350.14"/>
</g>
<!-- s2 -->
<g id="node4" class="node">
<title>s2</title>
<path fill="#d8ead0" stroke="#a3be8c" stroke-width="1.1" d="M310.5,-270C310.5,-270 37.5,-270 37.5,-270 31.5,-270 25.5,-264 25.5,-258 25.5,-258 25.5,-246 25.5,-246 25.5,-240 31.5,-234 37.5,-234 37.5,-234 310.5,-234 310.5,-234 316.5,-234 322.5,-240 322.5,-246 322.5,-246 322.5,-258 322.5,-258 322.5,-264 316.5,-270 310.5,-270"/>
<text text-anchor="middle" x="174" y="-248.9" font-family="Noto Sans CJK SC" font-size="12.00">写包：base[write_index &amp; queueMask] = *packet</text>
</g>
<!-- s1&#45;&gt;s2 -->
<g id="edge1" class="edge">
<title>s1&#45;&gt;s2</title>
<path fill="none" stroke="#4c566a" d="M174,-300.97C174,-293.68 174,-285.36 174,-277.71"/>
<polygon fill="#4c566a" stroke="#4c566a" points="176.45,-277.36 174,-270.36 171.55,-277.36 176.45,-277.36"/>
</g>
<!-- s3 -->
<g id="node5" class="node">
<title>s3</title>
<path fill="#eceff4" stroke="#3b4252" stroke-width="1.1" d="M292.5,-190C292.5,-190 51.5,-190 51.5,-190 45.5,-190 39.5,-184 39.5,-178 39.5,-178 39.5,-166 39.5,-166 39.5,-160 45.5,-154 51.5,-154 51.5,-154 292.5,-154 292.5,-154 298.5,-154 304.5,-160 304.5,-166 304.5,-166 304.5,-178 304.5,-178 304.5,-184 298.5,-190 292.5,-190"/>
<text text-anchor="middle" x="172" y="-168.9" font-family="Noto Sans CJK SC" font-size="12.00">StepWriteIndex → StoreWriteIndexRelease</text>
</g>
<!-- s2&#45;&gt;s3 -->
<g id="edge2" class="edge">
<title>s2&#45;&gt;s3</title>
<path fill="none" stroke="#4c566a" d="M173.56,-233.69C173.28,-222.98 172.93,-209.08 172.62,-197.29"/>
<polygon fill="#4c566a" stroke="#4c566a" points="175.07,-197.2 172.44,-190.26 170.17,-197.32 175.07,-197.2"/>
</g>
<!-- rb -->
<g id="node7" class="node">
<title>rb</title>
<path fill="#eceff4" stroke="#3b4252" stroke-width="1.1" d="M652,-193C652,-193 352,-193 352,-193 346,-193 340,-187 340,-181 340,-181 340,-163 340,-163 340,-157 346,-151 352,-151 352,-151 652,-151 652,-151 658,-151 664,-157 664,-163 664,-163 664,-181 664,-181 664,-187 658,-193 652,-193"/>
<text text-anchor="middle" x="502" y="-175.4" font-family="Noto Sans CJK SC" font-size="12.00">host ring buffer（AICA_RB_ALLOC==1，host 内存）</text>
<text text-anchor="middle" x="502" y="-162.4" font-family="Noto Sans CJK SC" font-size="12.00">[pkt0][pkt1]...[pktN&#45;1] &#160;环形，write/read 指针带 toggle</text>
</g>
<!-- s2&#45;&gt;rb -->
<g id="edge6" class="edge">
<title>s2&#45;&gt;rb</title>
<path fill="none" stroke="#a3be8c" stroke-dasharray="5,2" d="M245.58,-233.98C294.1,-222.44 358.66,-207.09 410.86,-194.67"/>
<polygon fill="#a3be8c" stroke="#a3be8c" points="411.57,-197.02 417.81,-193.02 410.43,-192.26 411.57,-197.02"/>
<text text-anchor="middle" x="357" y="-211" font-family="Noto Sans CJK SC" font-size="10.00" fill="#5e8050">落位</text>
</g>
<!-- s4 -->
<g id="node6" class="node">
<title>s4</title>
<path fill="#d8ead0" stroke="#a3be8c" stroke-width="1.1" d="M312.5,-120C312.5,-120 27.5,-120 27.5,-120 21.5,-120 15.5,-114 15.5,-108 15.5,-108 15.5,-96 15.5,-96 15.5,-90 21.5,-84 27.5,-84 27.5,-84 312.5,-84 312.5,-84 318.5,-84 324.5,-90 324.5,-96 324.5,-96 324.5,-108 324.5,-108 324.5,-114 318.5,-120 312.5,-120"/>
<text text-anchor="middle" x="170" y="-98.9" font-family="Noto Sans CJK SC" font-size="12.00">UpdateDoorBellRelaxed(write_index)（MMIO 写）</text>
</g>
<!-- s3&#45;&gt;s4 -->
<g id="edge3" class="edge">
<title>s3&#45;&gt;s4</title>
<path fill="none" stroke="#4c566a" d="M171.5,-153.84C171.26,-145.85 170.98,-136.2 170.72,-127.46"/>
<polygon fill="#4c566a" stroke="#4c566a" points="173.17,-127.32 170.51,-120.39 168.27,-127.46 173.17,-127.32"/>
</g>
<!-- gpu -->
<g id="node8" class="node">
<title>gpu</title>
<path fill="#e5e9f0" stroke="#3b4252" stroke-width="1.1" d="M436.5,-42C436.5,-42 175.5,-42 175.5,-42 169.5,-42 163.5,-36 163.5,-30 163.5,-30 163.5,-12 163.5,-12 163.5,-6 169.5,0 175.5,0 175.5,0 436.5,0 436.5,0 442.5,0 448.5,-6 448.5,-12 448.5,-12 448.5,-30 448.5,-30 448.5,-36 442.5,-42 436.5,-42"/>
<text text-anchor="middle" x="306" y="-24.4" font-family="Noto Sans CJK SC" font-size="12.00">GraceC CP 固件</text>
<text text-anchor="middle" x="306" y="-11.4" font-family="Noto Sans CJK SC" font-size="12.00">DMA 取包 → 分派计算核执行 → 写 fence/置信号</text>
</g>
<!-- s4&#45;&gt;gpu -->
<g id="edge7" class="edge">
<title>s4&#45;&gt;gpu</title>
<path fill="none" stroke="#a3be8c" stroke-width="1.5" d="M199.51,-83.86C218.71,-72.71 244.01,-58.01 265.13,-45.74"/>
<polygon fill="#a3be8c" stroke="#a3be8c" stroke-width="1.5" points="266.43,-47.82 271.26,-42.18 263.97,-43.58 266.43,-47.82"/>
<text text-anchor="middle" x="266.5" y="-60" font-family="Noto Sans CJK SC" font-size="10.00" fill="#5e8050">通知有新包</text>
</g>
<!-- rb&#45;&gt;gpu -->
<g id="edge8" class="edge">
<title>rb&#45;&gt;gpu</title>
<path fill="none" stroke="#4c566a" stroke-dasharray="5,2" d="M475.57,-150.91C439.96,-123.84 376.64,-75.7 338.26,-46.53"/>
<polygon fill="#4c566a" stroke="#4c566a" points="339.38,-44.3 332.33,-42.01 336.42,-48.2 339.38,-44.3"/>
<text text-anchor="middle" x="458.5" y="-99.5" font-family="Noto Sans CJK SC" font-size="10.00" fill="#7b8394">CP DMA 读</text>
</g>
</g>
</svg>
