<?xml version="1.0" encoding="UTF-8" standalone="no"?>
<!DOCTYPE svg PUBLIC "-//W3C//DTD SVG 1.1//EN"
 "http://www.w3.org/Graphics/SVG/1.1/DTD/svg11.dtd">
<!-- Generated by graphviz version 2.43.0 (0)
 -->
<!-- Title: pkt Pages: 1 -->
<svg width="962pt" height="154pt"
 viewBox="0.00 0.00 962.00 154.00" xmlns="http://www.w3.org/2000/svg" xmlns:xlink="http://www.w3.org/1999/xlink">
<g id="graph0" class="graph" transform="scale(1 1) rotate(0) translate(4 150)">
<title>pkt</title>
<polygon fill="white" stroke="transparent" points="-4,4 -4,-150 958,-150 958,4 -4,4"/>
<!-- types -->
<g id="node1" class="node">
<title>types</title>
<polygon fill="#fff7e6" stroke="#d0a070" stroke-width="1.1" points="210,-129.5 0,-129.5 0,-16.5 216,-16.5 216,-123.5 210,-129.5"/>
<polyline fill="none" stroke="#d0a070" stroke-width="1.1" points="210,-129.5 210,-123.5 "/>
<polyline fill="none" stroke="#d0a070" stroke-width="1.1" points="216,-123.5 210,-123.5 "/>
<text text-anchor="start" x="12" y="-114.5" font-family="Noto Sans CJK SC" font-size="10.00">aica_packet_type_t（cp_operator）</text>
<text text-anchor="start" x="12" y="-103.5" font-family="Noto Sans CJK SC" font-size="10.00">──────────────</text>
<text text-anchor="start" x="12" y="-92.5" font-family="Noto Sans CJK SC" font-size="10.00">0x10 KERNEL_DISPATCH（kernel 直发）</text>
<text text-anchor="start" x="12" y="-81.5" font-family="Noto Sans CJK SC" font-size="10.00">0x11 SDMA（DMA 拷贝）</text>
<text text-anchor="start" x="12" y="-70.5" font-family="Noto Sans CJK SC" font-size="10.00">0x20/21/22 ATOMIC add/swap/cmp_swap</text>
<text text-anchor="start" x="12" y="-59.5" font-family="Noto Sans CJK SC" font-size="10.00">0x30 BARRIER（事件 signal）</text>
<text text-anchor="start" x="12" y="-48.5" font-family="Noto Sans CJK SC" font-size="10.00">0x31 BARRIER_WAIT（事件等待）</text>
<text text-anchor="start" x="12" y="-37.5" font-family="Noto Sans CJK SC" font-size="10.00">0x40 BARRIER_WAIT_HOST</text>
<text text-anchor="start" x="12" y="-26.5" font-family="Noto Sans CJK SC" font-size="10.00">0xEE NOP</text>
</g>
<!-- head -->
<g id="node2" class="node">
<title>head</title>
<path fill="#eceff4" stroke="#3b4252" stroke-width="1.1" d="M587,-118.5C587,-118.5 349,-118.5 349,-118.5 343,-118.5 337,-112.5 337,-106.5 337,-106.5 337,-39.5 337,-39.5 337,-33.5 343,-27.5 349,-27.5 349,-27.5 587,-27.5 587,-27.5 593,-27.5 599,-33.5 599,-39.5 599,-39.5 599,-106.5 599,-106.5 599,-112.5 593,-118.5 587,-118.5"/>
<text text-anchor="start" x="349" y="-103.5" font-family="Noto Sans CJK SC" font-size="10.00">aica_head_t（4B 联合体）</text>
<text text-anchor="start" x="349" y="-92.5" font-family="Noto Sans CJK SC" font-size="10.00">──────────────</text>
<text text-anchor="start" x="349" y="-81.5" font-family="Noto Sans CJK SC" font-size="10.00">cp_operator : 8 &#160;&#160;包类型</text>
<text text-anchor="start" x="349" y="-70.5" font-family="Noto Sans CJK SC" font-size="10.00">body_size : 5 &#160;&#160;&#160;&#160;包体字数(&lt;=31)</text>
<text text-anchor="start" x="349" y="-59.5" font-family="Noto Sans CJK SC" font-size="10.00">reserved_1 : 11 &#160;&#160;(→ hcqdid/asid)</text>
<text text-anchor="start" x="349" y="-48.5" font-family="Noto Sans CJK SC" font-size="10.00">block_mask : 4 &#160;&#160;&#160;依赖：compute/dma/video/atomic</text>
<text text-anchor="start" x="349" y="-37.5" font-family="Noto Sans CJK SC" font-size="10.00">reserved_2 : 4</text>
</g>
<!-- types&#45;&gt;head -->
<g id="edge1" class="edge">
<title>types&#45;&gt;head</title>
<path fill="none" stroke="#4c566a" d="M216.41,-73C251.94,-73 291.97,-73 329.44,-73"/>
<polygon fill="#4c566a" stroke="#4c566a" points="329.9,-75.45 336.9,-73 329.9,-70.55 329.9,-75.45"/>
<text text-anchor="middle" x="276.5" y="-75.8" font-family="Noto Sans CJK SC" font-size="9.00" fill="#b08030">cp_operator=0x10</text>
</g>
<!-- body -->
<g id="node3" class="node">
<title>body</title>
<path fill="#d8ead0" stroke="#a3be8c" stroke-width="1.1" d="M942,-146C942,-146 701,-146 701,-146 695,-146 689,-140 689,-134 689,-134 689,-12 689,-12 689,-6 695,0 701,0 701,0 942,0 942,0 948,0 954,-6 954,-12 954,-12 954,-134 954,-134 954,-140 948,-146 942,-146"/>
<text text-anchor="start" x="701" y="-131" font-family="Noto Sans CJK SC" font-size="10.00">aica_kernel_dispatch_packet_t（~32 字 / 128B）</text>
<text text-anchor="start" x="701" y="-120" font-family="Noto Sans CJK SC" font-size="10.00">──────────────</text>
<text text-anchor="start" x="701" y="-109" font-family="Noto Sans CJK SC" font-size="10.00">header + stream_id/seq_id（调试定位）</text>
<text text-anchor="start" x="701" y="-98" font-family="Noto Sans CJK SC" font-size="10.00">grid_dim_x/y/z · block_dim_x/y/z · cluster_dim</text>
<text text-anchor="start" x="701" y="-87" font-family="Noto Sans CJK SC" font-size="10.00">cta_num · cluster_ctrl（cluster 位图/模式）</text>
<text text-anchor="start" x="701" y="-76" font-family="Noto Sans CJK SC" font-size="10.00">icache_base + init_pc → pa_init_addr（入口）</text>
<text text-anchor="start" x="701" y="-65" font-family="Noto Sans CJK SC" font-size="10.00">local_base · local_step · const_base（参数/常量）</text>
<text text-anchor="start" x="701" y="-54" font-family="Noto Sans CJK SC" font-size="10.00">trf_size · shm_size（每 block 共享内存）</text>
<text text-anchor="start" x="701" y="-43" font-family="Noto Sans CJK SC" font-size="10.00">packet_done（完成后算子）</text>
<text text-anchor="start" x="701" y="-32" font-family="Noto Sans CJK SC" font-size="10.00">cfg_addr（寄存器配置）</text>
<text text-anchor="start" x="701" y="-21" font-family="Noto Sans CJK SC" font-size="10.00">fence_addr + fence_value（完成写 fence）</text>
<text text-anchor="start" x="701" y="-10" font-family="Noto Sans CJK SC" font-size="10.00">ICodLen/CCodLen（代码长度）· scatter_cfg</text>
</g>
<!-- head&#45;&gt;body -->
<g id="edge2" class="edge">
<title>head&#45;&gt;body</title>
<path fill="none" stroke="#4c566a" d="M599.39,-73C626.2,-73 654.52,-73 681.62,-73"/>
<polygon fill="#4c566a" stroke="#4c566a" points="681.86,-75.45 688.86,-73 681.86,-70.55 681.86,-75.45"/>
<text text-anchor="middle" x="644" y="-75.8" font-family="Noto Sans CJK SC" font-size="9.00" fill="#7b8394">作为首字段</text>
</g>
</g>
</svg>
