<?xml version="1.0" encoding="UTF-8" standalone="no"?>
<!DOCTYPE svg PUBLIC "-//W3C//DTD SVG 1.1//EN"
 "http://www.w3.org/Graphics/SVG/1.1/DTD/svg11.dtd">
<!-- Generated by graphviz version 2.43.0 (0)
 -->
<!-- Title: ses Pages: 1 -->
<svg width="618pt" height="479pt"
 viewBox="0.00 0.00 618.00 479.00" xmlns="http://www.w3.org/2000/svg" xmlns:xlink="http://www.w3.org/1999/xlink">
<g id="graph0" class="graph" transform="scale(1 1) rotate(0) translate(4 475)">
<title>ses</title>
<polygon fill="white" stroke="transparent" points="-4,4 -4,-475 614,-475 614,4 -4,4"/>
<g id="clust1" class="cluster">
<title>cluster_sig</title>
<path fill="#f7f9fc" stroke="#81a1c1" d="M82,-152C82,-152 590,-152 590,-152 596,-152 602,-158 602,-164 602,-164 602,-219 602,-219 602,-225 596,-231 590,-231 590,-231 82,-231 82,-231 76,-231 70,-225 70,-219 70,-219 70,-164 70,-164 70,-158 76,-152 82,-152"/>
<text text-anchor="middle" x="336" y="-217.4" font-family="Noto Sans CJK SC" font-size="12.00">core::Signal（signal.hpp）三类</text>
</g>
<!-- stream -->
<g id="node1" class="node">
<title>stream</title>
<path fill="#e5e9f0" stroke="#3b4252" stroke-width="1.1" d="M331,-471C331,-471 125,-471 125,-471 119,-471 113,-465 113,-459 113,-459 113,-428 113,-428 113,-422 119,-416 125,-416 125,-416 331,-416 331,-416 337,-416 343,-422 343,-428 343,-428 343,-459 343,-459 343,-465 337,-471 331,-471"/>
<text text-anchor="middle" x="228" y="-453.4" font-family="Noto Sans CJK SC" font-size="12.00">aicaStream = aigc::HostQueue</text>
<text text-anchor="middle" x="228" y="-440.4" font-family="Noto Sans CJK SC" font-size="12.00">（commandqueue.hpp）首次真用时</text>
<text text-anchor="middle" x="228" y="-427.4" font-family="Noto Sans CJK SC" font-size="12.00">懒创建一条硬件 ring buffer</text>
</g>
<!-- cmds -->
<g id="node2" class="node">
<title>cmds</title>
<path fill="#eceff4" stroke="#3b4252" stroke-width="1.1" d="M386,-383C386,-383 70,-383 70,-383 64,-383 58,-377 58,-371 58,-371 58,-353 58,-353 58,-347 64,-341 70,-341 70,-341 386,-341 386,-341 392,-341 398,-347 398,-353 398,-353 398,-371 398,-371 398,-377 392,-383 386,-383"/>
<text text-anchor="middle" x="228" y="-365.4" font-family="Noto Sans CJK SC" font-size="12.00">命令按序入队</text>
<text text-anchor="middle" x="228" y="-352.4" font-family="Noto Sans CJK SC" font-size="12.00">GraceKernelCommand / DMACopyCommand / Marker ...</text>
</g>
<!-- stream&#45;&gt;cmds -->
<g id="edge1" class="edge">
<title>stream&#45;&gt;cmds</title>
<path fill="none" stroke="#4c566a" d="M228,-415.58C228,-407.45 228,-398.5 228,-390.34"/>
<polygon fill="#4c566a" stroke="#4c566a" points="230.45,-390.1 228,-383.1 225.55,-390.1 230.45,-390.1"/>
</g>
<!-- event -->
<g id="node3" class="node">
<title>event</title>
<path fill="#eceff4" stroke="#3b4252" stroke-width="1.1" d="M252,-308C252,-308 12,-308 12,-308 6,-308 0,-302 0,-296 0,-296 0,-278 0,-278 0,-272 6,-266 12,-266 12,-266 252,-266 252,-266 258,-266 264,-272 264,-278 264,-278 264,-296 264,-296 264,-302 258,-308 252,-308"/>
<text text-anchor="middle" x="132" y="-290.4" font-family="Noto Sans CJK SC" font-size="12.00">aicaEvent = Event/Marker</text>
<text text-anchor="middle" x="132" y="-277.4" font-family="Noto Sans CJK SC" font-size="12.00">BindCommand 绑到命令，记录时间戳/依赖</text>
</g>
<!-- cmds&#45;&gt;event -->
<g id="edge2" class="edge">
<title>cmds&#45;&gt;event</title>
<path fill="none" stroke="#4c566a" d="M201.51,-340.86C189.97,-332.08 176.34,-321.71 164.21,-312.5"/>
<polygon fill="#4c566a" stroke="#4c566a" points="165.46,-310.36 158.4,-308.08 162.49,-314.26 165.46,-310.36"/>
</g>
<!-- door -->
<g id="node5" class="node">
<title>door</title>
<path fill="#d8ead0" stroke="#a3be8c" stroke-width="1.1" d="M362,-202C362,-202 272,-202 272,-202 266,-202 260,-196 260,-190 260,-190 260,-172 260,-172 260,-166 266,-160 272,-160 272,-160 362,-160 362,-160 368,-160 374,-166 374,-172 374,-172 374,-190 374,-190 374,-196 368,-202 362,-202"/>
<text text-anchor="middle" x="317" y="-184.4" font-family="Noto Sans CJK SC" font-size="12.00">doorbell 信号</text>
<text text-anchor="middle" x="317" y="-171.4" font-family="Noto Sans CJK SC" font-size="12.00">MMIO 通知 GPU</text>
</g>
<!-- cmds&#45;&gt;door -->
<g id="edge3" class="edge">
<title>cmds&#45;&gt;door</title>
<path fill="none" stroke="#4c566a" d="M251.92,-340.78C261.49,-331.61 271.9,-320.12 279,-308 297.25,-276.82 307.45,-236.08 312.59,-209.49"/>
<polygon fill="#4c566a" stroke="#4c566a" points="315.04,-209.72 313.9,-202.39 310.22,-208.82 315.04,-209.72"/>
<text text-anchor="middle" x="327.5" y="-284.5" font-family="Noto Sans CJK SC" font-size="10.00" fill="#5e8050">kernel 下发敲</text>
</g>
<!-- hw -->
<g id="node6" class="node">
<title>hw</title>
<path fill="#e3effb" stroke="#81a1c1" stroke-width="1.1" d="M217.5,-202C217.5,-202 90.5,-202 90.5,-202 84.5,-202 78.5,-196 78.5,-190 78.5,-190 78.5,-172 78.5,-172 78.5,-166 84.5,-160 90.5,-160 90.5,-160 217.5,-160 217.5,-160 223.5,-160 229.5,-166 229.5,-172 229.5,-172 229.5,-190 229.5,-190 229.5,-196 223.5,-202 217.5,-202"/>
<text text-anchor="middle" x="154" y="-184.4" font-family="Noto Sans CJK SC" font-size="12.00">HW event 信号</text>
<text text-anchor="middle" x="154" y="-171.4" font-family="Noto Sans CJK SC" font-size="12.00">KMD fence/timestamp</text>
</g>
<!-- event&#45;&gt;hw -->
<g id="edge4" class="edge">
<title>event&#45;&gt;hw</title>
<path fill="none" stroke="#4c566a" d="M136.24,-265.95C139.63,-249.94 144.41,-227.33 148.16,-209.61"/>
<polygon fill="#4c566a" stroke="#4c566a" points="150.64,-209.7 149.7,-202.35 145.85,-208.69 150.64,-209.7"/>
<text text-anchor="middle" x="166.5" y="-242" font-family="Noto Sans CJK SC" font-size="10.00" fill="#5e81ac">完成事件挂</text>
</g>
<!-- busy -->
<g id="node4" class="node">
<title>busy</title>
<path fill="#eceff4" stroke="#3b4252" stroke-width="1.1" d="M581.5,-202C581.5,-202 416.5,-202 416.5,-202 410.5,-202 404.5,-196 404.5,-190 404.5,-190 404.5,-172 404.5,-172 404.5,-166 410.5,-160 416.5,-160 416.5,-160 581.5,-160 581.5,-160 587.5,-160 593.5,-166 593.5,-172 593.5,-172 593.5,-190 593.5,-190 593.5,-196 587.5,-202 581.5,-202"/>
<text text-anchor="middle" x="499" y="-184.4" font-family="Noto Sans CJK SC" font-size="12.00">busy&#45;wait 信号</text>
<text text-anchor="middle" x="499" y="-171.4" font-family="Noto Sans CJK SC" font-size="12.00">Load/Store/Wait/Cas（自旋）</text>
</g>
<!-- done -->
<g id="node7" class="node">
<title>done</title>
<path fill="#eceff4" stroke="#3b4252" stroke-width="1.1" d="M408,-127C408,-127 226,-127 226,-127 220,-127 214,-121 214,-115 214,-115 214,-97 214,-97 214,-91 220,-85 226,-85 226,-85 408,-85 408,-85 414,-85 420,-91 420,-97 420,-97 420,-115 420,-115 420,-121 414,-127 408,-127"/>
<text text-anchor="middle" x="317" y="-109.4" font-family="Noto Sans CJK SC" font-size="12.00">GPU 完成 → 写 fence / 置信号</text>
<text text-anchor="middle" x="317" y="-96.4" font-family="Noto Sans CJK SC" font-size="12.00">Event::setStatus(CL_COMPLETE)</text>
</g>
<!-- door&#45;&gt;done -->
<!-- hw&#45;&gt;done -->
<g id="edge5" class="edge">
<title>hw&#45;&gt;done</title>
<path fill="none" stroke="#4c566a" d="M198.97,-159.86C219.64,-150.6 244.26,-139.58 265.65,-130"/>
<polygon fill="#4c566a" stroke="#4c566a" points="266.79,-132.17 272.17,-127.08 264.78,-127.7 266.79,-132.17"/>
</g>
<!-- wait -->
<g id="node8" class="node">
<title>wait</title>
<path fill="#e5e9f0" stroke="#3b4252" stroke-width="1.1" d="M574,-42C574,-42 242,-42 242,-42 236,-42 230,-36 230,-30 230,-30 230,-12 230,-12 230,-6 236,0 242,0 242,0 574,0 574,0 580,0 586,-6 586,-12 586,-12 586,-30 586,-30 586,-36 580,-42 574,-42"/>
<text text-anchor="middle" x="408" y="-24.4" font-family="Noto Sans CJK SC" font-size="12.00">host 同步：aicaStreamSynchronize / aicaEventSynchronize</text>
<text text-anchor="middle" x="408" y="-11.4" font-family="Noto Sans CJK SC" font-size="12.00">→ command&#45;&gt;awaitCompletion()（spin 或 CV 等信号）</text>
</g>
<!-- done&#45;&gt;wait -->
<g id="edge7" class="edge">
<title>done&#45;&gt;wait</title>
<path fill="none" stroke="#4c566a" d="M339.03,-84.91C351.46,-73.57 367.1,-59.31 380.35,-47.22"/>
<polygon fill="#4c566a" stroke="#4c566a" points="382.34,-48.72 385.86,-42.19 379.04,-45.1 382.34,-48.72"/>
<text text-anchor="middle" x="391.5" y="-61" font-family="Noto Sans CJK SC" font-size="10.00">唤醒等待者</text>
</g>
<!-- wait&#45;&gt;busy -->
<g id="edge8" class="edge">
<title>wait&#45;&gt;busy</title>
<path fill="none" stroke="#4c566a" stroke-dasharray="5,2" d="M419.72,-42.35C436.08,-70.75 465.77,-122.31 483.81,-153.63"/>
<polygon fill="#4c566a" stroke="#4c566a" points="481.86,-155.15 487.47,-159.99 486.1,-152.7 481.86,-155.15"/>
<text text-anchor="middle" x="500.5" y="-103.8" font-family="Noto Sans CJK SC" font-size="9.00" fill="#7b8394">ActiveWait 自旋</text>
</g>
</g>
</svg>
