<?xml version="1.0" encoding="UTF-8" standalone="no"?>
<!DOCTYPE svg PUBLIC "-//W3C//DTD SVG 1.1//EN"
 "http://www.w3.org/Graphics/SVG/1.1/DTD/svg11.dtd">
<!-- Generated by graphviz version 2.43.0 (0)
 -->
<!-- Title: thunk Pages: 1 -->
<svg width="530pt" height="501pt"
 viewBox="0.00 0.00 529.50 501.00" xmlns="http://www.w3.org/2000/svg" xmlns:xlink="http://www.w3.org/1999/xlink">
<g id="graph0" class="graph" transform="scale(1 1) rotate(0) translate(4 497)">
<title>thunk</title>
<polygon fill="white" stroke="transparent" points="-4,4 -4,-497 525.5,-497 525.5,4 -4,4"/>
<!-- umd -->
<g id="node1" class="node">
<title>umd</title>
<path fill="#e5e9f0" stroke="#3b4252" stroke-width="1.1" d="M382.5,-493C382.5,-493 227.5,-493 227.5,-493 221.5,-493 215.5,-487 215.5,-481 215.5,-481 215.5,-469 215.5,-469 215.5,-463 221.5,-457 227.5,-457 227.5,-457 382.5,-457 382.5,-457 388.5,-457 394.5,-463 394.5,-469 394.5,-469 394.5,-481 394.5,-481 394.5,-487 388.5,-493 382.5,-493"/>
<text text-anchor="middle" x="305" y="-471.9" font-family="Noto Sans CJK SC" font-size="12.00">UMD（aica* / aigc / grace）</text>
</g>
<!-- est -->
<g id="node2" class="node">
<title>est</title>
<path fill="#eceff4" stroke="#3b4252" stroke-width="1.1" d="M327,-420C327,-420 15,-420 15,-420 9,-420 3,-414 3,-408 3,-408 3,-390 3,-390 3,-384 9,-378 15,-378 15,-378 327,-378 327,-378 333,-378 339,-384 339,-390 339,-390 339,-408 339,-408 339,-414 333,-420 327,-420"/>
<text text-anchor="middle" x="171" y="-402.4" font-family="Noto Sans CJK SC" font-size="12.00">建立类操作</text>
<text text-anchor="middle" x="171" y="-389.4" font-family="Noto Sans CJK SC" font-size="12.00">open device / create context / engine / event / memory</text>
</g>
<!-- umd&#45;&gt;est -->
<g id="edge1" class="edge">
<title>umd&#45;&gt;est</title>
<path fill="none" stroke="#4c566a" d="M273.92,-456.84C256.06,-446.97 233.37,-434.44 213.84,-423.66"/>
<polygon fill="#4c566a" stroke="#4c566a" points="214.93,-421.46 207.62,-420.22 212.56,-425.75 214.93,-421.46"/>
</g>
<!-- disp -->
<g id="node3" class="node">
<title>disp</title>
<path fill="#d8ead0" stroke="#a3be8c" stroke-width="1.1" d="M498.5,-420C498.5,-420 383.5,-420 383.5,-420 377.5,-420 371.5,-414 371.5,-408 371.5,-408 371.5,-390 371.5,-390 371.5,-384 377.5,-378 383.5,-378 383.5,-378 498.5,-378 498.5,-378 504.5,-378 510.5,-384 510.5,-390 510.5,-390 510.5,-408 510.5,-408 510.5,-414 504.5,-420 498.5,-420"/>
<text text-anchor="middle" x="441" y="-402.4" font-family="Noto Sans CJK SC" font-size="12.00">kernel / 拷贝 下发</text>
<text text-anchor="middle" x="441" y="-389.4" font-family="Noto Sans CJK SC" font-size="12.00">sendPacket（每包）</text>
</g>
<!-- umd&#45;&gt;disp -->
<g id="edge2" class="edge">
<title>umd&#45;&gt;disp</title>
<path fill="none" stroke="#4c566a" d="M336.54,-456.84C354.67,-446.97 377.7,-434.44 397.52,-423.66"/>
<polygon fill="#4c566a" stroke="#4c566a" points="398.86,-425.72 403.84,-420.22 396.52,-421.41 398.86,-425.72"/>
</g>
<!-- trm -->
<g id="node4" class="node">
<title>trm</title>
<path fill="#e3effb" stroke="#81a1c1" stroke-width="1.1" d="M372,-331C372,-331 12,-331 12,-331 6,-331 0,-325 0,-319 0,-319 0,-288 0,-288 0,-282 6,-276 12,-276 12,-276 372,-276 372,-276 378,-276 384,-282 384,-288 384,-288 384,-319 384,-319 384,-325 378,-331 372,-331"/>
<text text-anchor="middle" x="192" y="-313.4" font-family="Noto Sans CJK SC" font-size="12.00">ThunkResourcesManager（thunk_manager.hpp）</text>
<text text-anchor="middle" x="192" y="-300.4" font-family="Noto Sans CJK SC" font-size="12.00">KOpenDeviceWarp / KCreateContextWarp /</text>
<text text-anchor="middle" x="192" y="-287.4" font-family="Noto Sans CJK SC" font-size="12.00">KCreateEngineWarp / KCreateEventWarp / KCreateMemoryWarp</text>
</g>
<!-- est&#45;&gt;trm -->
<g id="edge3" class="edge">
<title>est&#45;&gt;trm</title>
<path fill="none" stroke="#5e81ac" d="M175.56,-377.71C178.14,-366.2 181.44,-351.5 184.41,-338.29"/>
<polygon fill="#5e81ac" stroke="#5e81ac" points="186.87,-338.51 186.02,-331.14 182.09,-337.44 186.87,-338.51"/>
<text text-anchor="middle" x="199" y="-352" font-family="Noto Sans CJK SC" font-size="10.00" fill="#5e81ac">走 ioctl</text>
</g>
<!-- mmio -->
<g id="node7" class="node">
<title>mmio</title>
<path fill="#d8ead0" stroke="#a3be8c" stroke-width="1.1" d="M509.5,-258C509.5,-258 350.5,-258 350.5,-258 344.5,-258 338.5,-252 338.5,-246 338.5,-246 338.5,-234 338.5,-234 338.5,-228 344.5,-222 350.5,-222 350.5,-222 509.5,-222 509.5,-222 515.5,-222 521.5,-228 521.5,-234 521.5,-234 521.5,-246 521.5,-246 521.5,-252 515.5,-258 509.5,-258"/>
<text text-anchor="middle" x="430" y="-236.9" font-family="Noto Sans CJK SC" font-size="12.00">MMIO doorbell（不经内核）</text>
</g>
<!-- disp&#45;&gt;mmio -->
<g id="edge6" class="edge">
<title>disp&#45;&gt;mmio</title>
<path fill="none" stroke="#a3be8c" stroke-width="1.5" d="M439.58,-377.8C437.57,-349.09 433.89,-296.55 431.72,-265.61"/>
<polygon fill="#a3be8c" stroke="#a3be8c" stroke-width="1.5" points="434.14,-265.05 431.21,-258.24 429.25,-265.39 434.14,-265.05"/>
<text text-anchor="middle" x="448" y="-352" font-family="Noto Sans CJK SC" font-size="10.00" fill="#5e8050">直发</text>
</g>
<!-- ajt -->
<g id="node5" class="node">
<title>ajt</title>
<path fill="#e3effb" stroke="#81a1c1" stroke-width="1.1" d="M348.5,-204C348.5,-204 171.5,-204 171.5,-204 165.5,-204 159.5,-198 159.5,-192 159.5,-192 159.5,-174 159.5,-174 159.5,-168 165.5,-162 171.5,-162 171.5,-162 348.5,-162 348.5,-162 354.5,-162 360.5,-168 360.5,-174 360.5,-174 360.5,-192 360.5,-192 360.5,-198 354.5,-204 348.5,-204"/>
<text text-anchor="middle" x="260" y="-186.4" font-family="Noto Sans CJK SC" font-size="12.00">ajthunk &#160;Thunk_*（封装 ioctl）</text>
<text text-anchor="middle" x="260" y="-173.4" font-family="Noto Sans CJK SC" font-size="12.00">3rdparty/ajthunk（多闭源）</text>
</g>
<!-- trm&#45;&gt;ajt -->
<g id="edge4" class="edge">
<title>trm&#45;&gt;ajt</title>
<path fill="none" stroke="#5e81ac" d="M207.26,-275.91C218.5,-256.33 233.7,-229.83 244.9,-210.31"/>
<polygon fill="#5e81ac" stroke="#5e81ac" points="247.03,-211.53 248.39,-204.24 242.78,-209.09 247.03,-211.53"/>
<text text-anchor="middle" x="256" y="-237.5" font-family="Noto Sans CJK SC" font-size="10.00" fill="#5e81ac">走 ioctl</text>
</g>
<!-- kmd -->
<g id="node6" class="node">
<title>kmd</title>
<path fill="#eceff4" stroke="#3b4252" stroke-width="1.1" d="M355,-115C355,-115 179,-115 179,-115 173,-115 167,-109 167,-103 167,-103 167,-85 167,-85 167,-79 173,-73 179,-73 179,-73 355,-73 355,-73 361,-73 367,-79 367,-85 367,-85 367,-103 367,-103 367,-109 361,-115 355,-115"/>
<text text-anchor="middle" x="267" y="-97.4" font-family="Noto Sans CJK SC" font-size="12.00">KMD aigc.ko：ioctl(/dev/aigcN)</text>
<text text-anchor="middle" x="267" y="-84.4" font-family="Noto Sans CJK SC" font-size="12.00">建场 / 分页 / 建队列</text>
</g>
<!-- ajt&#45;&gt;kmd -->
<g id="edge5" class="edge">
<title>ajt&#45;&gt;kmd</title>
<path fill="none" stroke="#5e81ac" d="M261.62,-161.82C262.57,-150.07 263.77,-135.1 264.8,-122.31"/>
<polygon fill="#5e81ac" stroke="#5e81ac" points="267.27,-122.24 265.39,-115.07 262.38,-121.85 267.27,-122.24"/>
<text text-anchor="middle" x="281" y="-136" font-family="Noto Sans CJK SC" font-size="10.00" fill="#5e81ac">走 ioctl</text>
</g>
<!-- gpu -->
<g id="node8" class="node">
<title>gpu</title>
<path fill="#e5e9f0" stroke="#3b4252" stroke-width="1.1" d="M380,-36C380,-36 310,-36 310,-36 304,-36 298,-30 298,-24 298,-24 298,-12 298,-12 298,-6 304,0 310,0 310,0 380,0 380,0 386,0 392,-6 392,-12 392,-12 392,-24 392,-24 392,-30 386,-36 380,-36"/>
<text text-anchor="middle" x="345" y="-14.9" font-family="Noto Sans CJK SC" font-size="12.00">GraceC GPU</text>
</g>
<!-- kmd&#45;&gt;gpu -->
<g id="edge7" class="edge">
<title>kmd&#45;&gt;gpu</title>
<path fill="none" stroke="#4c566a" d="M288.31,-72.78C298.61,-63.01 310.99,-51.27 321.55,-41.25"/>
<polygon fill="#4c566a" stroke="#4c566a" points="323.49,-42.78 326.88,-36.19 320.12,-39.23 323.49,-42.78"/>
</g>
<!-- mmio&#45;&gt;gpu -->
<g id="edge8" class="edge">
<title>mmio&#45;&gt;gpu</title>
<path fill="none" stroke="#4c566a" d="M427.12,-221.83C421.51,-190.93 407.47,-124.38 383,-73 377.82,-62.13 370.5,-51.1 363.66,-41.86"/>
<polygon fill="#4c566a" stroke="#4c566a" points="365.45,-40.16 359.27,-36.06 361.55,-43.12 365.45,-40.16"/>
</g>
</g>
</svg>
