<?xml version="1.0" encoding="UTF-8" standalone="no"?>
<!DOCTYPE svg PUBLIC "-//W3C//DTD SVG 1.1//EN"
 "http://www.w3.org/Graphics/SVG/1.1/DTD/svg11.dtd">
<!-- Generated by graphviz version 2.43.0 (0)
 -->
<!-- Title: sync Pages: 1 -->
<svg width="580pt" height="246pt"
 viewBox="0.00 0.00 579.50 246.00" xmlns="http://www.w3.org/2000/svg" xmlns:xlink="http://www.w3.org/1999/xlink">
<g id="graph0" class="graph" transform="scale(1 1) rotate(0) translate(4 242)">
<title>sync</title>
<polygon fill="white" stroke="transparent" points="-4,4 -4,-242 575.5,-242 575.5,4 -4,4"/>
<!-- thread -->
<g id="node1" class="node">
<title>thread</title>
<path fill="#eceff4" stroke="#3b4252" stroke-width="1.1" d="M261,-231.5C261,-231.5 12,-231.5 12,-231.5 6,-231.5 0,-225.5 0,-219.5 0,-219.5 0,-201.5 0,-201.5 0,-195.5 6,-189.5 12,-189.5 12,-189.5 261,-189.5 261,-189.5 267,-189.5 273,-195.5 273,-201.5 273,-201.5 273,-219.5 273,-219.5 273,-225.5 267,-231.5 261,-231.5"/>
<text text-anchor="middle" x="136.5" y="-213.9" font-family="Noto Sans CJK SC" font-size="12.00">Thread（thread.hpp）</text>
<text text-anchor="middle" x="136.5" y="-200.9" font-family="Noto Sans CJK SC" font-size="12.00">pthread 封装；HostQueue::Thread 跑 loop()</text>
</g>
<!-- mon -->
<g id="node2" class="node">
<title>mon</title>
<path fill="#e5e9f0" stroke="#3b4252" stroke-width="1.1" d="M403.5,-140C403.5,-140 169.5,-140 169.5,-140 163.5,-140 157.5,-134 157.5,-128 157.5,-128 157.5,-97 157.5,-97 157.5,-91 163.5,-85 169.5,-85 169.5,-85 403.5,-85 403.5,-85 409.5,-85 415.5,-91 415.5,-97 415.5,-97 415.5,-128 415.5,-128 415.5,-134 409.5,-140 403.5,-140"/>
<text text-anchor="middle" x="286.5" y="-122.4" font-family="Noto Sans CJK SC" font-size="12.00">Monitor（monitor.hpp:62）</text>
<text text-anchor="middle" x="286.5" y="-109.4" font-family="Noto Sans CJK SC" font-size="12.00">递归互斥 + 条件变量</text>
<text text-anchor="middle" x="286.5" y="-96.4" font-family="Noto Sans CJK SC" font-size="12.00">快路 CAS spinlock，竞争退化到信号量队列</text>
</g>
<!-- thread&#45;&gt;mon -->
<g id="edge1" class="edge">
<title>thread&#45;&gt;mon</title>
<path fill="none" stroke="#4c566a" d="M167.94,-189.38C188.45,-176.25 215.6,-158.88 238.74,-144.06"/>
<polygon fill="#4c566a" stroke="#4c566a" points="240.27,-146 244.84,-140.16 237.63,-141.87 240.27,-146"/>
<text text-anchor="middle" x="265.5" y="-159" font-family="Noto Sans CJK SC" font-size="10.00">队列线程用其保护批次</text>
</g>
<!-- sem -->
<g id="node3" class="node">
<title>sem</title>
<path fill="#eceff4" stroke="#3b4252" stroke-width="1.1" d="M282,-42C282,-42 63,-42 63,-42 57,-42 51,-36 51,-30 51,-30 51,-12 51,-12 51,-6 57,0 63,0 63,0 282,0 282,0 288,0 294,-6 294,-12 294,-12 294,-30 294,-30 294,-36 288,-42 282,-42"/>
<text text-anchor="middle" x="172.5" y="-24.4" font-family="Noto Sans CJK SC" font-size="12.00">Semaphore（semaphore.hpp）</text>
<text text-anchor="middle" x="172.5" y="-11.4" font-family="Noto Sans CJK SC" font-size="12.00">POSIX 计数信号量；Monitor 阻塞的底座</text>
</g>
<!-- mon&#45;&gt;sem -->
<g id="edge2" class="edge">
<title>mon&#45;&gt;sem</title>
<path fill="none" stroke="#4c566a" d="M252.6,-84.89C237.19,-72.79 219.07,-58.56 203.96,-46.7"/>
<polygon fill="#4c566a" stroke="#4c566a" points="205.13,-44.51 198.12,-42.11 202.11,-48.36 205.13,-44.51"/>
<text text-anchor="middle" x="254" y="-61" font-family="Noto Sans CJK SC" font-size="10.00">阻塞底层用</text>
</g>
<!-- scope -->
<g id="node5" class="node">
<title>scope</title>
<polygon fill="#fff7e6" stroke="#d0a070" stroke-width="1.1" points="472.5,-42 324.5,-42 324.5,0 478.5,0 478.5,-36 472.5,-42"/>
<polyline fill="none" stroke="#d0a070" stroke-width="1.1" points="472.5,-42 472.5,-36 "/>
<polyline fill="none" stroke="#d0a070" stroke-width="1.1" points="478.5,-36 472.5,-36 "/>
<text text-anchor="middle" x="401.5" y="-24.4" font-family="Noto Sans CJK SC" font-size="12.00">ScopedLock（RAII）</text>
<text text-anchor="middle" x="401.5" y="-11.4" font-family="Noto Sans CJK SC" font-size="12.00">构造 lock / 析构 unlock</text>
</g>
<!-- mon&#45;&gt;scope -->
<g id="edge3" class="edge">
<title>mon&#45;&gt;scope</title>
<path fill="none" stroke="#d0a070" stroke-dasharray="5,2" d="M320.69,-84.89C336.24,-72.79 354.52,-58.56 369.76,-46.7"/>
<polygon fill="#d0a070" stroke="#d0a070" points="371.64,-48.34 375.66,-42.11 368.63,-44.48 371.64,-48.34"/>
</g>
<!-- sig -->
<g id="node4" class="node">
<title>sig</title>
<path fill="#e8f0e6" stroke="#a3be8c" stroke-width="1.1" d="M559.5,-238C559.5,-238 315.5,-238 315.5,-238 309.5,-238 303.5,-232 303.5,-226 303.5,-226 303.5,-195 303.5,-195 303.5,-189 309.5,-183 315.5,-183 315.5,-183 559.5,-183 559.5,-183 565.5,-183 571.5,-189 571.5,-195 571.5,-195 571.5,-226 571.5,-226 571.5,-232 565.5,-238 559.5,-238"/>
<text text-anchor="middle" x="437.5" y="-220.4" font-family="Noto Sans CJK SC" font-size="12.00">core::Signal（signal.hpp）</text>
<text text-anchor="middle" x="437.5" y="-207.4" font-family="Noto Sans CJK SC" font-size="12.00">GPU↔CPU 同步：Load/Store/Wait/Add/Cas</text>
<text text-anchor="middle" x="437.5" y="-194.4" font-family="Noto Sans CJK SC" font-size="12.00">busy / doorbell / HW&#45;event 三类</text>
</g>
<!-- sig&#45;&gt;mon -->
</g>
</svg>
