<?xml version="1.0" encoding="UTF-8" standalone="no"?>
<!DOCTYPE svg PUBLIC "-//W3C//DTD SVG 1.1//EN"
 "http://www.w3.org/Graphics/SVG/1.1/DTD/svg11.dtd">
<!-- Generated by graphviz version 14.1.5 (20260411.2331)
 -->
<!-- Title: switch_forwarding Pages: 1 -->
<svg width="1941pt" height="290pt"
 viewBox="0.00 0.00 1941.00 290.00" xmlns="http://www.w3.org/2000/svg" xmlns:xlink="http://www.w3.org/1999/xlink">
<g id="graph0" class="graph" transform="scale(1 1) rotate(0) translate(25.2 265)">
<title>switch_forwarding</title>
<polygon fill="#f8fafc" stroke="none" points="-25.2,25.2 -25.2,-265 1915.31,-265 1915.31,25.2 -25.2,25.2"/>
<!-- start -->
<g id="node1" class="node">
<title>start</title>
<path fill="#dbeafe" stroke="#60a5fa" d="M105.8,-108.8C105.8,-108.8 12,-108.8 12,-108.8 6,-108.8 0,-102.8 0,-96.8 0,-96.8 0,-81.6 0,-81.6 0,-75.6 6,-69.6 12,-69.6 12,-69.6 105.8,-69.6 105.8,-69.6 111.8,-69.6 117.8,-75.6 117.8,-81.6 117.8,-81.6 117.8,-96.8 117.8,-96.8 117.8,-102.8 111.8,-108.8 105.8,-108.8"/>
<text xml:space="preserve" text-anchor="middle" x="58.9" y="-93.1" font-family="Microsoft YaHei" font-size="13.00">Source DIE request</text>
<text xml:space="preserve" text-anchor="middle" x="58.9" y="-77.5" font-family="Microsoft YaHei" font-size="13.00">AXI / NoC</text>
</g>
<!-- amt -->
<g id="node2" class="node">
<title>amt</title>
<path fill="#e0f2fe" stroke="#38bdf8" d="M295.79,-108.8C295.79,-108.8 196.8,-108.8 196.8,-108.8 190.8,-108.8 184.8,-102.8 184.8,-96.8 184.8,-96.8 184.8,-81.6 184.8,-81.6 184.8,-75.6 190.8,-69.6 196.8,-69.6 196.8,-69.6 295.79,-69.6 295.79,-69.6 301.79,-69.6 307.79,-75.6 307.79,-81.6 307.79,-81.6 307.79,-96.8 307.79,-96.8 307.79,-102.8 301.79,-108.8 295.79,-108.8"/>
<text xml:space="preserve" text-anchor="middle" x="246.3" y="-93.1" font-family="Microsoft YaHei" font-size="13.00">AMT / route decode</text>
<text xml:space="preserve" text-anchor="middle" x="246.3" y="-77.5" font-family="Microsoft YaHei" font-size="13.00">目标 GPU + 目标 DIE</text>
</g>
<!-- start&#45;&gt;amt -->
<g id="edge1" class="edge">
<title>start&#45;&gt;amt</title>
<path fill="none" stroke="#64748b" d="M118.05,-89.2C136.13,-89.2 156.25,-89.2 175.06,-89.2"/>
<polygon fill="#64748b" stroke="#64748b" points="174.95,-92 182.95,-89.2 174.95,-86.4 174.95,-92"/>
</g>
<!-- same_gpu -->
<g id="node3" class="node">
<title>same_gpu</title>
<path fill="#fef3c7" stroke="#f59e0b" d="M429.28,-122.19C429.28,-122.19 385.06,-95.41 385.06,-95.41 379.93,-92.31 379.93,-86.09 385.06,-82.99 385.06,-82.99 429.28,-56.21 429.28,-56.21 434.42,-53.11 444.68,-53.11 449.82,-56.21 449.82,-56.21 494.04,-82.99 494.04,-82.99 499.17,-86.09 499.17,-92.31 494.04,-95.41 494.04,-95.41 449.82,-122.19 449.82,-122.19 444.68,-125.29 434.42,-125.29 429.28,-122.19"/>
<text xml:space="preserve" text-anchor="middle" x="439.55" y="-93.1" font-family="Microsoft YaHei" font-size="13.00">目标 GPU</text>
<text xml:space="preserve" text-anchor="middle" x="439.55" y="-77.5" font-family="Microsoft YaHei" font-size="13.00">相同？</text>
</g>
<!-- amt&#45;&gt;same_gpu -->
<g id="edge2" class="edge">
<title>amt&#45;&gt;same_gpu</title>
<path fill="none" stroke="#64748b" d="M308.07,-89.2C326.04,-89.2 345.9,-89.2 364.6,-89.2"/>
<polygon fill="#64748b" stroke="#64748b" points="364.45,-92 372.45,-89.2 364.45,-86.4 364.45,-92"/>
</g>
<!-- same_die -->
<g id="node4" class="node">
<title>same_die</title>
<path fill="#fce7f3" stroke="#f472b6" d="M670.46,-171.87C670.46,-171.87 630.18,-145.73 630.18,-145.73 625.15,-142.47 625.15,-135.93 630.18,-132.67 630.18,-132.67 670.46,-106.53 670.46,-106.53 675.49,-103.27 685.56,-103.27 690.59,-106.53 690.59,-106.53 730.87,-132.67 730.87,-132.67 735.9,-135.93 735.9,-142.47 730.87,-145.73 730.87,-145.73 690.59,-171.87 690.59,-171.87 685.56,-175.13 675.49,-175.13 670.46,-171.87"/>
<text xml:space="preserve" text-anchor="middle" x="680.53" y="-143.1" font-family="Microsoft YaHei" font-size="13.00">目标 DIE</text>
<text xml:space="preserve" text-anchor="middle" x="680.53" y="-127.5" font-family="Microsoft YaHei" font-size="13.00">相同？</text>
</g>
<!-- same_gpu&#45;&gt;same_die -->
<g id="edge3" class="edge">
<title>same_gpu&#45;&gt;same_die</title>
<path fill="none" stroke="#64748b" d="M488.62,-99.26C528.03,-107.5 583.81,-119.17 624.9,-127.77"/>
<polygon fill="#64748b" stroke="#64748b" points="624.08,-130.46 632.48,-129.36 625.22,-124.98 624.08,-130.46"/>
<text xml:space="preserve" text-anchor="middle" x="562.21" y="-121.98" font-family="Microsoft YaHei" font-size="11.00">是</text>
</g>
<!-- c2c -->
<g id="node8" class="node">
<title>c2c</title>
<path fill="#fef3c7" stroke="#f59e0b" d="M709.2,-59.8C709.2,-59.8 651.85,-59.8 651.85,-59.8 645.85,-59.8 639.85,-53.8 639.85,-47.8 639.85,-47.8 639.85,-32.6 639.85,-32.6 639.85,-26.6 645.85,-20.6 651.85,-20.6 651.85,-20.6 709.2,-20.6 709.2,-20.6 715.2,-20.6 721.2,-26.6 721.2,-32.6 721.2,-32.6 721.2,-47.8 721.2,-47.8 721.2,-53.8 715.2,-59.8 709.2,-59.8"/>
<text xml:space="preserve" text-anchor="middle" x="680.53" y="-44.1" font-family="Microsoft YaHei" font-size="13.00">C2C adapter</text>
<text xml:space="preserve" text-anchor="middle" x="680.53" y="-28.5" font-family="Microsoft YaHei" font-size="13.00">跨 GPU 平面</text>
</g>
<!-- same_gpu&#45;&gt;c2c -->
<g id="edge7" class="edge">
<title>same_gpu&#45;&gt;c2c</title>
<path fill="none" stroke="#64748b" d="M485.19,-77.32C501.53,-73.16 520.2,-68.63 537.31,-65 568.01,-58.49 602.71,-52.42 630.15,-47.91"/>
<polygon fill="#64748b" stroke="#64748b" points="630.59,-50.67 638.04,-46.62 629.69,-45.14 630.59,-50.67"/>
<text xml:space="preserve" text-anchor="middle" x="562.21" y="-68.3" font-family="Microsoft YaHei" font-size="11.00">否 / 跨 GPU</text>
</g>
<!-- local -->
<g id="node5" class="node">
<title>local</title>
<path fill="#dcfce7" stroke="#22c55e" d="M902.23,-239.8C902.23,-239.8 843.07,-239.8 843.07,-239.8 837.07,-239.8 831.07,-233.8 831.07,-227.8 831.07,-227.8 831.07,-212.6 831.07,-212.6 831.07,-206.6 837.07,-200.6 843.07,-200.6 843.07,-200.6 902.23,-200.6 902.23,-200.6 908.23,-200.6 914.23,-206.6 914.23,-212.6 914.23,-212.6 914.23,-227.8 914.23,-227.8 914.23,-233.8 908.23,-239.8 902.23,-239.8"/>
<text xml:space="preserve" text-anchor="middle" x="872.65" y="-224.1" font-family="Microsoft YaHei" font-size="13.00">Local hit</text>
<text xml:space="preserve" text-anchor="middle" x="872.65" y="-208.5" font-family="Microsoft YaHei" font-size="13.00">本地 DIE 命中</text>
</g>
<!-- same_die&#45;&gt;local -->
<g id="edge4" class="edge">
<title>same_die&#45;&gt;local</title>
<path fill="none" stroke="#64748b" d="M717.73,-154.63C747.31,-167.22 789.4,-185.16 822.1,-199.09"/>
<polygon fill="#64748b" stroke="#64748b" points="820.77,-201.57 829.23,-202.13 822.97,-196.42 820.77,-201.57"/>
<text xml:space="preserve" text-anchor="middle" x="778.06" y="-183" font-family="Microsoft YaHei" font-size="11.00">是</text>
</g>
<!-- d2d -->
<g id="node6" class="node">
<title>d2d</title>
<path fill="#f5f3ff" stroke="#a78bfa" d="M1736.28,-126.8C1736.28,-126.8 1655.11,-126.8 1655.11,-126.8 1649.11,-126.8 1643.11,-120.8 1643.11,-114.8 1643.11,-114.8 1643.11,-99.6 1643.11,-99.6 1643.11,-93.6 1649.11,-87.6 1655.11,-87.6 1655.11,-87.6 1736.28,-87.6 1736.28,-87.6 1742.28,-87.6 1748.28,-93.6 1748.28,-99.6 1748.28,-99.6 1748.28,-114.8 1748.28,-114.8 1748.28,-120.8 1742.28,-126.8 1736.28,-126.8"/>
<text xml:space="preserve" text-anchor="middle" x="1695.7" y="-111.1" font-family="Microsoft YaHei" font-size="13.00">D2D port map</text>
<text xml:space="preserve" text-anchor="middle" x="1695.7" y="-95.5" font-family="Microsoft YaHei" font-size="13.00">选择 ucie0 / ucie1</text>
</g>
<!-- same_die&#45;&gt;d2d -->
<g id="edge5" class="edge">
<title>same_die&#45;&gt;d2d</title>
<path fill="none" stroke="#64748b" d="M741.47,-139.2C778.89,-139.2 828.08,-139.2 871.65,-139.2 871.65,-139.2 871.65,-139.2 1480.21,-139.2 1532.47,-139.2 1591.12,-129.79 1633.86,-121.18"/>
<polygon fill="#64748b" stroke="#64748b" points="1634.25,-123.96 1641.52,-119.6 1633.12,-118.47 1634.25,-123.96"/>
<text xml:space="preserve" text-anchor="middle" x="1144.83" y="-142.5" font-family="Microsoft YaHei" font-size="11.00">否</text>
</g>
<!-- target_die -->
<g id="node7" class="node">
<title>target_die</title>
<path fill="#eef2ff" stroke="#818cf8" d="M1878.11,-76.8C1878.11,-76.8 1827.28,-76.8 1827.28,-76.8 1821.28,-76.8 1815.28,-70.8 1815.28,-64.8 1815.28,-64.8 1815.28,-49.6 1815.28,-49.6 1815.28,-43.6 1821.28,-37.6 1827.28,-37.6 1827.28,-37.6 1878.11,-37.6 1878.11,-37.6 1884.11,-37.6 1890.11,-43.6 1890.11,-49.6 1890.11,-49.6 1890.11,-64.8 1890.11,-64.8 1890.11,-70.8 1884.11,-76.8 1878.11,-76.8"/>
<text xml:space="preserve" text-anchor="middle" x="1852.69" y="-61.1" font-family="Microsoft YaHei" font-size="13.00">Target DIE</text>
<text xml:space="preserve" text-anchor="middle" x="1852.69" y="-45.5" font-family="Microsoft YaHei" font-size="13.00">GPU 内到达</text>
</g>
<!-- d2d&#45;&gt;target_die -->
<g id="edge6" class="edge">
<title>d2d&#45;&gt;target_die</title>
<path fill="none" stroke="#64748b" d="M1748.74,-90.41C1767.48,-84.37 1788.46,-77.6 1806.57,-71.76"/>
<polygon fill="#64748b" stroke="#64748b" points="1807.01,-74.56 1813.76,-69.44 1805.29,-69.23 1807.01,-74.56"/>
</g>
<!-- poll -->
<g id="node9" class="node">
<title>poll</title>
<path fill="#fff7ed" stroke="#fb923c" d="M918.11,-58.8C918.11,-58.8 827.18,-58.8 827.18,-58.8 821.18,-58.8 815.18,-52.8 815.18,-46.8 815.18,-46.8 815.18,-31.6 815.18,-31.6 815.18,-25.6 821.18,-19.6 827.18,-19.6 827.18,-19.6 918.11,-19.6 918.11,-19.6 924.11,-19.6 930.11,-25.6 930.11,-31.6 930.11,-31.6 930.11,-46.8 930.11,-46.8 930.11,-52.8 924.11,-58.8 918.11,-58.8"/>
<text xml:space="preserve" text-anchor="middle" x="872.65" y="-43.1" font-family="Microsoft YaHei" font-size="13.00">硬件轮询 serdes port</text>
<text xml:space="preserve" text-anchor="middle" x="872.65" y="-27.5" font-family="Microsoft YaHei" font-size="13.00">选择可用 C2C 出口</text>
</g>
<!-- c2c&#45;&gt;poll -->
<g id="edge8" class="edge">
<title>c2c&#45;&gt;poll</title>
<path fill="none" stroke="#64748b" d="M721.38,-39.99C745.74,-39.86 777.5,-39.7 805.54,-39.55"/>
<polygon fill="#64748b" stroke="#64748b" points="805.4,-42.35 813.38,-39.51 805.37,-36.75 805.4,-42.35"/>
</g>
<!-- sw -->
<g id="node10" class="node">
<title>sw</title>
<path fill="#e2e8f0" stroke="#64748b" d="M1095.71,-58.8C1095.71,-58.8 1009.11,-58.8 1009.11,-58.8 1003.11,-58.8 997.11,-52.8 997.11,-46.8 997.11,-46.8 997.11,-31.6 997.11,-31.6 997.11,-25.6 1003.11,-19.6 1009.11,-19.6 1009.11,-19.6 1095.71,-19.6 1095.71,-19.6 1101.71,-19.6 1107.71,-25.6 1107.71,-31.6 1107.71,-31.6 1107.71,-46.8 1107.71,-46.8 1107.71,-52.8 1101.71,-58.8 1095.71,-58.8"/>
<text xml:space="preserve" text-anchor="middle" x="1052.41" y="-43.1" font-family="Microsoft YaHei" font-size="13.00">C2C switch fabric</text>
<text xml:space="preserve" text-anchor="middle" x="1052.41" y="-27.5" font-family="Microsoft YaHei" font-size="13.00">转到目标 GPU 端口</text>
</g>
<!-- poll&#45;&gt;sw -->
<g id="edge9" class="edge">
<title>poll&#45;&gt;sw</title>
<path fill="none" stroke="#64748b" d="M930.38,-39.2C948.55,-39.2 968.79,-39.2 987.43,-39.2"/>
<polygon fill="#64748b" stroke="#64748b" points="987.22,-42 995.22,-39.2 987.22,-36.4 987.22,-42"/>
</g>
<!-- endpoint -->
<g id="node11" class="node">
<title>endpoint</title>
<path fill="#dbeafe" stroke="#60a5fa" d="M1310.55,-58.8C1310.55,-58.8 1193.96,-58.8 1193.96,-58.8 1187.96,-58.8 1181.96,-52.8 1181.96,-46.8 1181.96,-46.8 1181.96,-31.6 1181.96,-31.6 1181.96,-25.6 1187.96,-19.6 1193.96,-19.6 1193.96,-19.6 1310.55,-19.6 1310.55,-19.6 1316.55,-19.6 1322.55,-25.6 1322.55,-31.6 1322.55,-31.6 1322.55,-46.8 1322.55,-46.8 1322.55,-52.8 1316.55,-58.8 1310.55,-58.8"/>
<text xml:space="preserve" text-anchor="middle" x="1252.25" y="-43.1" font-family="Microsoft YaHei" font-size="13.00">目标 GPU C2C endpoint</text>
<text xml:space="preserve" text-anchor="middle" x="1252.25" y="-27.5" font-family="Microsoft YaHei" font-size="13.00">接收跨 GPU 包</text>
</g>
<!-- sw&#45;&gt;endpoint -->
<g id="edge10" class="edge">
<title>sw&#45;&gt;endpoint</title>
<path fill="none" stroke="#64748b" d="M1107.99,-39.2C1127.82,-39.2 1150.64,-39.2 1172.16,-39.2"/>
<polygon fill="#64748b" stroke="#64748b" points="1172.1,-42 1180.1,-39.2 1172.1,-36.4 1172.1,-42"/>
</g>
<!-- maybe_d2d -->
<g id="node12" class="node">
<title>maybe_d2d</title>
<path fill="#fce7f3" stroke="#f472b6" d="M1468.21,-73.59C1468.21,-73.59 1400.54,-44.01 1400.54,-44.01 1395.04,-41.6 1395.04,-36.8 1400.54,-34.39 1400.54,-34.39 1468.21,-4.81 1468.21,-4.81 1473.71,-2.4 1484.7,-2.4 1490.2,-4.81 1490.2,-4.81 1557.87,-34.39 1557.87,-34.39 1563.37,-36.8 1563.37,-41.6 1557.87,-44.01 1557.87,-44.01 1490.2,-73.59 1490.2,-73.59 1484.7,-76 1473.71,-76 1468.21,-73.59"/>
<text xml:space="preserve" text-anchor="middle" x="1479.21" y="-43.1" font-family="Microsoft YaHei" font-size="13.00">入口 DIE</text>
<text xml:space="preserve" text-anchor="middle" x="1479.21" y="-27.5" font-family="Microsoft YaHei" font-size="13.00">就是目标 DIE？</text>
</g>
<!-- endpoint&#45;&gt;maybe_d2d -->
<g id="edge11" class="edge">
<title>endpoint&#45;&gt;maybe_d2d</title>
<path fill="none" stroke="#64748b" d="M1322.89,-39.2C1340.74,-39.2 1360.29,-39.2 1379.31,-39.2"/>
<polygon fill="#64748b" stroke="#64748b" points="1379.08,-42 1387.08,-39.2 1379.08,-36.4 1379.08,-42"/>
</g>
<!-- maybe_d2d&#45;&gt;d2d -->
<g id="edge13" class="edge">
<title>maybe_d2d&#45;&gt;d2d</title>
<path fill="none" stroke="#64748b" d="M1532.13,-55.66C1562.84,-65.4 1601.89,-77.78 1634.01,-87.96"/>
<polygon fill="#64748b" stroke="#64748b" points="1632.97,-90.57 1641.44,-90.32 1634.66,-85.23 1632.97,-90.57"/>
<text xml:space="preserve" text-anchor="middle" x="1605.99" y="-82.59" font-family="Microsoft YaHei" font-size="11.00">否</text>
</g>
<!-- maybe_d2d&#45;&gt;target_die -->
<g id="edge12" class="edge">
<title>maybe_d2d&#45;&gt;target_die</title>
<path fill="none" stroke="#64748b" d="M1560.81,-43.11C1635.76,-46.74 1744.76,-52.02 1805.82,-54.98"/>
<polygon fill="#64748b" stroke="#64748b" points="1805.56,-57.77 1813.69,-55.36 1805.83,-52.17 1805.56,-57.77"/>
<text xml:space="preserve" text-anchor="middle" x="1695.7" y="-55.29" font-family="Microsoft YaHei" font-size="11.00">是</text>
</g>
</g>
</svg>
