<svg xmlns="http://www.w3.org/2000/svg" width="1500" height="880" viewBox="0 0 1500 880">
<defs>
  <style>
    text { font-family: "Microsoft YaHei", "Noto Sans CJK SC", Arial, sans-serif; }
  </style>
</defs>
<rect width="1500" height="880" fill="#f8fafc"/>
<text x="750" y="50" font-size="30" font-weight="800" fill="#0f172a" text-anchor="middle">AXI 读事务波形：AR / R 两条 channel 解耦</text>
<text x="750" y="84" font-size="18" font-weight="500" fill="#475569" text-anchor="middle">示例为 3-beat read burst；RRESP 是 R channel 内的响应信号，跟随每个 RDATA beat 返回</text>
<line x1="220" y1="130" x2="220" y2="146" stroke="#94a3b8" stroke-width="2" />
<line x1="220" y1="684" x2="220" y2="700" stroke="#94a3b8" stroke-width="2" />
<text x="280" y="112" font-size="16" font-weight="600" fill="#64748b" text-anchor="middle">C0</text>
<line x1="340" y1="130" x2="340" y2="146" stroke="#e2e8f0" stroke-width="1" />
<line x1="340" y1="684" x2="340" y2="700" stroke="#e2e8f0" stroke-width="1" />
<text x="400" y="112" font-size="16" font-weight="600" fill="#64748b" text-anchor="middle">C1</text>
<line x1="460" y1="130" x2="460" y2="146" stroke="#e2e8f0" stroke-width="1" />
<line x1="460" y1="684" x2="460" y2="700" stroke="#e2e8f0" stroke-width="1" />
<text x="520" y="112" font-size="16" font-weight="600" fill="#64748b" text-anchor="middle">C2</text>
<line x1="580" y1="130" x2="580" y2="146" stroke="#e2e8f0" stroke-width="1" />
<line x1="580" y1="684" x2="580" y2="700" stroke="#e2e8f0" stroke-width="1" />
<text x="640" y="112" font-size="16" font-weight="600" fill="#64748b" text-anchor="middle">C3</text>
<line x1="700" y1="130" x2="700" y2="146" stroke="#e2e8f0" stroke-width="1" />
<line x1="700" y1="684" x2="700" y2="700" stroke="#e2e8f0" stroke-width="1" />
<text x="760" y="112" font-size="16" font-weight="600" fill="#64748b" text-anchor="middle">C4</text>
<line x1="820" y1="130" x2="820" y2="146" stroke="#e2e8f0" stroke-width="1" />
<line x1="820" y1="684" x2="820" y2="700" stroke="#e2e8f0" stroke-width="1" />
<text x="880" y="112" font-size="16" font-weight="600" fill="#64748b" text-anchor="middle">C5</text>
<line x1="940" y1="130" x2="940" y2="146" stroke="#e2e8f0" stroke-width="1" />
<line x1="940" y1="684" x2="940" y2="700" stroke="#e2e8f0" stroke-width="1" />
<text x="1000" y="112" font-size="16" font-weight="600" fill="#64748b" text-anchor="middle">C6</text>
<line x1="1060" y1="130" x2="1060" y2="146" stroke="#e2e8f0" stroke-width="1" />
<line x1="1060" y1="684" x2="1060" y2="700" stroke="#e2e8f0" stroke-width="1" />
<text x="1120" y="112" font-size="16" font-weight="600" fill="#64748b" text-anchor="middle">C7</text>
<line x1="1180" y1="130" x2="1180" y2="146" stroke="#e2e8f0" stroke-width="1" />
<line x1="1180" y1="684" x2="1180" y2="700" stroke="#e2e8f0" stroke-width="1" />
<text x="1240" y="112" font-size="16" font-weight="600" fill="#64748b" text-anchor="middle">C8</text>
<line x1="1300" y1="130" x2="1300" y2="146" stroke="#e2e8f0" stroke-width="1" />
<line x1="1300" y1="684" x2="1300" y2="700" stroke="#e2e8f0" stroke-width="1" />
<text x="1360" y="112" font-size="16" font-weight="600" fill="#64748b" text-anchor="middle">C9</text>
<line x1="1420" y1="130" x2="1420" y2="146" stroke="#e2e8f0" stroke-width="1" />
<line x1="1420" y1="684" x2="1420" y2="700" stroke="#e2e8f0" stroke-width="1" />
<line x1="220" y1="700" x2="1420" y2="700" stroke="#e2e8f0" stroke-width="1" />
<rect x="468" y="130" width="104" height="570" fill="#dcfce7" opacity="0.75"/>
<rect x="708" y="130" width="104" height="570" fill="#dcfce7" opacity="0.75"/>
<rect x="948" y="130" width="104" height="570" fill="#dcfce7" opacity="0.75"/>
<rect x="1068" y="130" width="104" height="570" fill="#dcfce7" opacity="0.75"/>
<text x="46" y="177" font-size="18" font-weight="700" fill="#334155" text-anchor="start">ARVALID</text>
<path d="M 220 186 L 340 186 L 340 154 L 460 154 L 580 154 L 580 186 L 700 186 L 820 186 L 940 186 L 1060 186 L 1180 186 L 1300 186 L 1420 186" fill="none" stroke="#7c3aed" stroke-width="4" stroke-linejoin="round"/>
<text x="46" y="232" font-size="18" font-weight="700" fill="#334155" text-anchor="start">ARREADY</text>
<path d="M 220 241 L 340 241 L 460 241 L 460 209 L 580 209 L 700 209 L 700 241 L 820 241 L 940 241 L 1060 241 L 1180 241 L 1300 241 L 1420 241" fill="none" stroke="#16a34a" stroke-width="4" stroke-linejoin="round"/>
<text x="46" y="292" font-size="18" font-weight="700" fill="#334155" text-anchor="start">ARADDR</text>
<rect x="348" y="261" width="224" height="48" rx="8" fill="#f5f3ff" stroke="#7c3aed" stroke-width="2"/>
<text x="460" y="292" font-size="17" font-weight="700" fill="#7c3aed" text-anchor="middle">addr + attr + ID</text>
<text x="46" y="372" font-size="18" font-weight="700" fill="#334155" text-anchor="start">RVALID</text>
<path d="M 220 381 L 340 381 L 460 381 L 580 381 L 580 349 L 700 349 L 820 349 L 940 349 L 1060 349 L 1180 349 L 1180 381 L 1300 381 L 1420 381" fill="none" stroke="#15803d" stroke-width="4" stroke-linejoin="round"/>
<text x="46" y="427" font-size="18" font-weight="700" fill="#334155" text-anchor="start">RREADY</text>
<path d="M 220 436 L 340 436 L 460 436 L 580 436 L 700 436 L 700 404 L 820 404 L 820 436 L 940 436 L 940 404 L 1060 404 L 1180 404 L 1300 404 L 1300 436 L 1420 436" fill="none" stroke="#16a34a" stroke-width="4" stroke-linejoin="round"/>
<text x="46" y="487" font-size="18" font-weight="700" fill="#334155" text-anchor="start">RDATA</text>
<rect x="588" y="456" width="224" height="48" rx="8" fill="#f0fdf4" stroke="#15803d" stroke-width="2"/>
<text x="700" y="487" font-size="17" font-weight="700" fill="#15803d" text-anchor="middle">R0</text>
<rect x="828" y="456" width="224" height="48" rx="8" fill="#f0fdf4" stroke="#15803d" stroke-width="2"/>
<text x="940" y="487" font-size="17" font-weight="700" fill="#15803d" text-anchor="middle">R1 held</text>
<rect x="1068" y="456" width="104" height="48" rx="8" fill="#f0fdf4" stroke="#15803d" stroke-width="2"/>
<text x="1120" y="487" font-size="17" font-weight="700" fill="#15803d" text-anchor="middle">R2</text>
<text x="46" y="562" font-size="18" font-weight="700" fill="#334155" text-anchor="start">RRESP sig</text>
<rect x="588" y="531" width="224" height="48" rx="8" fill="#fff7ed" stroke="#f97316" stroke-width="2"/>
<text x="700" y="562" font-size="17" font-weight="700" fill="#f97316" text-anchor="middle">OKAY</text>
<rect x="828" y="531" width="224" height="48" rx="8" fill="#fff7ed" stroke="#f97316" stroke-width="2"/>
<text x="940" y="562" font-size="17" font-weight="700" fill="#f97316" text-anchor="middle">OKAY</text>
<rect x="1068" y="531" width="104" height="48" rx="8" fill="#fff7ed" stroke="#f97316" stroke-width="2"/>
<text x="1120" y="562" font-size="17" font-weight="700" fill="#f97316" text-anchor="middle">OKAY</text>
<text x="46" y="642" font-size="18" font-weight="700" fill="#334155" text-anchor="start">RLAST</text>
<path d="M 220 651 L 340 651 L 460 651 L 580 651 L 700 651 L 820 651 L 940 651 L 1060 651 L 1060 619 L 1180 619 L 1180 651 L 1300 651 L 1420 651" fill="none" stroke="#f97316" stroke-width="4" stroke-linejoin="round"/>
<text x="180" y="815" font-size="20" font-weight="700" fill="#334155" text-anchor="start">要点：AR 和 R 是独立 channel；RRESP 只是 R channel 内的 signal，不是单独 channel。</text>
</svg>
